<svg width="24" height="24" viewBox="0 0 24 24" fill="none" xmlns="http://www.w3.org/2000/svg">
<path fill-rule="evenodd" clip-rule="evenodd" d="M12 24C18.6274 24 24 18.6274 24 12C24 5.37258 18.6274 0 12 0C5.37258 0 0 5.37258 0 12C0 18.6274 5.37258 24 12 24Z" fill="#FADBDA"/>
<path fill-rule="evenodd" clip-rule="evenodd" d="M13.4792 12.0001L15.938 14.853C16.2158 15.1747 16.1796 15.661 15.858 15.9381C15.5694 16.1867 15.1415 16.1867 14.8529 15.9381L12 13.4793L9.14713 15.9381C8.82544 16.2159 8.33906 16.1797 8.06201 15.8581C7.81266 15.5695 7.81266 15.1416 8.06201 14.853L10.5208 12.0001L8.06201 9.14731C7.78419 8.82563 7.82036 8.33925 8.14205 8.06143C8.43064 7.81286 8.85854 7.81286 9.14713 8.06143L12 10.521L14.8529 8.06143C15.1746 7.78438 15.6609 7.82055 15.938 8.14224C16.1873 8.43083 16.1873 8.85795 15.938 9.14731L13.4792 12.0001Z" fill="#E01F19"/>
</svg>
