<svg width="24" height="24" viewBox="0 0 24 24" fill="none" xmlns="http://www.w3.org/2000/svg">
<path fill-rule="evenodd" clip-rule="evenodd" d="M15.3526 1.06511C15.6448 1.20103 15.8098 1.52044 15.754 1.8421L14.4884 9.13045H19.2941C19.5661 9.13045 19.8138 9.28921 19.931 9.53858C20.0483 9.78796 20.0141 10.0836 19.8432 10.2986L9.9609 22.7333C9.75772 22.989 9.40959 23.0716 9.11598 22.9339C8.82237 22.7962 8.65838 22.4734 8.71798 22.1504L9.973 15.3478H4.70589C4.4334 15.3478 4.18525 15.1884 4.06831 14.9383C3.95137 14.6882 3.98654 14.392 4.15866 14.1773L14.5116 1.26428C14.7146 1.01106 15.0603 0.929184 15.3526 1.06511Z" fill="#FF4E4E"/>
</svg>
