<svg width="24" height="24" viewBox="0 0 24 24" fill="none" xmlns="http://www.w3.org/2000/svg">
<g clip-path="url(#clip0_26476_273119)">
<path fill-rule="evenodd" clip-rule="evenodd" d="M15.0621 0.068038C15.3726 0.210142 15.5479 0.544065 15.4886 0.880354L14.1439 8.50002H19.25C19.5389 8.50002 19.8022 8.66599 19.9267 8.9267C20.0513 9.18742 20.015 9.49649 19.8335 9.72127L9.33346 22.7213C9.11758 22.9886 8.74769 23.075 8.43573 22.931C8.12378 22.787 7.94954 22.4495 8.01285 22.1118L9.34631 15H3.75001C3.46049 15 3.19683 14.8334 3.07258 14.5719C2.94834 14.3104 2.9857 14.0007 3.16858 13.7763L14.1686 0.27626C14.3843 0.0115289 14.7516 -0.0740661 15.0621 0.068038ZM5.32857 13.5H10.25C10.4731 13.5 10.6847 13.5994 10.8271 13.771C10.9696 13.9427 11.0283 14.1689 10.9872 14.3882L10.0352 19.4651L17.6802 10H13.25C13.0283 10 12.8179 9.90192 12.6754 9.73207C12.5329 9.56221 12.4729 9.33802 12.5114 9.11968L13.5104 3.45864L5.32857 13.5Z" fill="#FF8A01"/>
</g>
<defs>
<clipPath id="clip0_26476_273119">
<rect width="24" height="24" fill="white"/>
</clipPath>
</defs>
</svg>
