<svg width="24" height="24" viewBox="0 0 24 24" fill="none" xmlns="http://www.w3.org/2000/svg">
<path d="M21.8569 11.6258C21.8569 15.6939 19.7917 19.559 16.3276 21.9618C14.9757 22.9022 13.5207 23.5859 11.9999 24C10.479 23.5859 9.02375 22.9022 7.67214 21.9618C4.20804 19.559 2.14258 15.6939 2.14258 11.6258V4.12749C7.88782 4.01569 10.9951 1.84903 11.9999 1C12.9995 1.84903 16.1116 4.0116 21.8569 4.12749V11.6258Z" fill="#00C2FF"/>
<path d="M14.732 7.8541C15.1093 7.47702 15.7208 7.47702 16.0981 7.8541C16.4754 8.23161 16.4754 8.84315 16.0981 9.22024L9.26784 16.0501C8.89098 16.4276 8.27905 16.4276 7.90178 16.0501C7.52493 15.673 7.52493 15.0614 7.90178 14.6843L14.732 7.8541Z" fill="white"/>
<path d="M16.0984 14.6843C16.4753 15.0614 16.4753 15.673 16.0984 16.0501C15.7211 16.4276 15.1092 16.4276 14.7323 16.0501L7.90209 9.22024C7.52482 8.84315 7.52482 8.23161 7.90209 7.8541C8.27936 7.47702 8.89088 7.47702 9.26815 7.8541L16.0984 14.6843Z" fill="white"/>
</svg>
