<svg width="24" height="24" viewBox="0 0 24 24" fill="none" xmlns="http://www.w3.org/2000/svg">
<g clip-path="url(#clip0_9612_29)">
<path d="M14.9204 0.399093C14.1223 0.145125 13.2515 0 12.3626 0C9.80479 0 7.50093 1.161 5.95898 2.9932L9.91363 6.31293L14.9204 0.399093Z" fill="#1A73E8"/>
<path d="M5.95918 2.99319C4.74376 4.44444 4 6.33106 4 8.36281C4 9.94104 4.30839 11.2109 4.83447 12.3537L9.91383 6.31292L5.95918 2.99319Z" fill="#EA4335"/>
<path d="M12.3812 5.17005C14.159 5.17005 15.5921 6.60316 15.5921 8.38094C15.5921 9.16098 15.3018 9.88661 14.8302 10.449C14.8302 10.449 17.3517 7.43763 19.8188 4.51699C18.8029 2.55781 17.0433 1.07028 14.9209 0.399078L9.91406 6.31291C10.5127 5.62357 11.3835 5.17005 12.3812 5.17005Z" fill="#4285F4"/>
<path d="M12.3805 11.5737C10.6027 11.5737 9.16958 10.1406 9.16958 8.36281C9.16958 7.58277 9.44169 6.85714 9.91335 6.31293L4.83398 12.3537C5.70473 14.2766 7.15598 15.8367 8.64351 17.7778L14.8294 10.4308C14.2308 11.1383 13.3601 11.5737 12.3805 11.5737Z" fill="#FBBC04"/>
<path d="M14.7216 19.8095C17.5153 15.4376 20.7624 13.4603 20.7624 8.38094C20.7624 6.98412 20.4178 5.678 19.8191 4.517L8.64453 17.7778C9.11619 18.3945 9.60598 19.102 10.0776 19.8277C11.7829 22.458 11.3112 24.0181 12.3996 24.0181C13.4881 24.0181 13.0164 22.4399 14.7216 19.8095Z" fill="#34A853"/>
</g>
<defs>
<clipPath id="clip0_9612_29">
<rect width="16.7438" height="24" fill="white" transform="translate(4)"/>
</clipPath>
</defs>
</svg>
