<svg width="24" height="24" viewBox="0 0 24 24" fill="none" xmlns="http://www.w3.org/2000/svg">
<path d="M24.0005 12.2664C24.0005 11.2797 23.9188 10.5597 23.742 9.81305H12.2451V14.2664H18.9935C18.8575 15.3732 18.1228 17.0399 16.4901 18.1598L16.4672 18.3089L20.1023 21.0687L20.3541 21.0933C22.6671 18.9999 24.0005 15.9198 24.0005 12.2664" fill="#4285F4"/>
<path d="M12.2447 24.0009C15.5508 24.0009 18.3264 22.9341 20.3537 21.0942L16.4897 18.1607C15.4556 18.8674 14.0678 19.3607 12.2447 19.3607C9.00656 19.3607 6.25822 17.2674 5.27852 14.374L5.13491 14.386L1.35509 17.2527L1.30566 17.3874C3.31929 21.3074 7.45544 24.0009 12.2447 24.0009Z" fill="#34A853"/>
<path d="M5.27897 14.3738C5.02047 13.6271 4.87086 12.8271 4.87086 12.0004C4.87086 11.1737 5.02047 10.3737 5.26537 9.62701L5.25852 9.46799L1.43134 6.55521L1.30612 6.61358C0.476206 8.2403 0 10.067 0 12.0004C0 13.9338 0.476206 15.7604 1.30612 17.3871L5.27897 14.3738" fill="#FBBC05"/>
<path d="M12.2447 4.64007C14.544 4.64007 16.0951 5.61342 16.9795 6.42682L20.4353 3.12007C18.3129 1.1867 15.5508 0 12.2447 0C7.45544 0 3.31929 2.69337 1.30566 6.61342L5.26492 9.62686C6.25822 6.73347 9.00656 4.64007 12.2447 4.64007" fill="#EB4335"/>
</svg>
