<svg width="24" height="24" viewBox="0 0 24 24" fill="none" xmlns="http://www.w3.org/2000/svg">
<path fill-rule="evenodd" clip-rule="evenodd" d="M7.03458 13.5C8.84606 4.7803 15.75 1.5 15.75 1.5C15.75 1.5 4.91006 5.23896 1.29102 6.46943C1.02656 6.5589 0.776332 6.69782 0.564861 6.90078C-0.188287 7.62314 -0.188287 8.79475 0.564861 9.51711C0.647781 9.59669 0.73757 9.66356 0.830303 9.72525L7.03458 13.5Z" fill="#00C2FF"/>
<path fill-rule="evenodd" clip-rule="evenodd" d="M17.2807 22.8179L23.9075 2.50898L23.9027 2.50274C24.1137 1.8412 23.9828 1.07884 23.4978 0.550285C22.6586 -0.364252 21.6207 0.136943 21.619 0.137903C11.6979 4.18827 9.71944 18.2933 14.4503 23.4473C15.1265 24.1842 16.2225 24.1842 16.8987 23.4473C17.0692 23.262 17.1961 23.0469 17.2807 22.8179Z" fill="#0DAD36"/>
</svg>
