<svg width="41" height="32" viewBox="0 0 41 32" fill="none" xmlns="http://www.w3.org/2000/svg">
<path d="M26.0442 22.3201H14.9551V2.67285H26.0442V22.3201Z" fill="#FF5F00"/>
<path d="M40.159 31.0207V31.1025H40.2355C40.2524 31.1025 40.2669 31.0985 40.2774 31.0922C40.2871 31.0858 40.2927 31.0747 40.2927 31.0612C40.2927 31.0477 40.2871 31.0374 40.2774 31.031C40.2669 31.0238 40.2524 31.0207 40.2355 31.0207H40.159ZM40.2363 30.9635C40.2758 30.9635 40.3064 30.9722 40.3282 30.9897C40.3499 31.0072 40.3604 31.031 40.3604 31.0612C40.3604 31.0866 40.3524 31.1073 40.3346 31.1239C40.3177 31.1398 40.2935 31.1502 40.2613 31.1541L40.3628 31.2693H40.2839L40.1896 31.1549H40.159V31.2693H40.0929V30.9635H40.2363ZM40.2162 31.375C40.2524 31.375 40.2863 31.3678 40.3169 31.3543C40.3483 31.3408 40.3757 31.3225 40.3991 31.2995C40.4225 31.2765 40.441 31.2495 40.4547 31.2177C40.4676 31.1867 40.4748 31.1533 40.4748 31.1176C40.4748 31.0818 40.4676 31.0485 40.4547 31.0175C40.441 30.9865 40.4225 30.9587 40.3991 30.9357C40.3757 30.9126 40.3483 30.8944 40.3169 30.8809C40.2863 30.8681 40.2524 30.8618 40.2162 30.8618C40.1799 30.8618 40.1453 30.8681 40.1138 30.8809C40.0816 30.8944 40.0534 30.9126 40.03 30.9357C40.0067 30.9587 39.9881 30.9865 39.9752 31.0175C39.9615 31.0485 39.9551 31.0818 39.9551 31.1176C39.9551 31.1533 39.9615 31.1867 39.9752 31.2177C39.9881 31.2495 40.0067 31.2765 40.03 31.2995C40.0534 31.3225 40.0816 31.3408 40.1138 31.3543C40.1453 31.3678 40.1799 31.375 40.2162 31.375V31.375ZM40.2162 30.7879C40.2637 30.7879 40.3072 30.7966 40.3491 30.8141C40.3902 30.8308 40.4257 30.8546 40.4571 30.8848C40.4877 30.9142 40.5119 30.9492 40.5296 30.9897C40.5474 31.0294 40.5562 31.0723 40.5562 31.1176C40.5562 31.1629 40.5474 31.2058 40.5296 31.2455C40.5119 31.2852 40.4877 31.3202 40.4571 31.3503C40.4257 31.3797 40.3902 31.4036 40.3491 31.4211C40.3072 31.4385 40.2637 31.4473 40.2162 31.4473C40.1678 31.4473 40.1235 31.4385 40.0816 31.4211C40.0397 31.4036 40.0034 31.3797 39.9728 31.3503C39.9422 31.3202 39.918 31.2852 39.9003 31.2455C39.8826 31.2058 39.8737 31.1629 39.8737 31.1176C39.8737 31.0723 39.8826 31.0294 39.9003 30.9897C39.918 30.9492 39.9422 30.9142 39.9728 30.8848C40.0034 30.8546 40.0397 30.8308 40.0816 30.8141C40.1235 30.7966 40.1678 30.7879 40.2162 30.7879V30.7879ZM8.8213 29.6098C8.8213 29.0267 9.20889 28.5477 9.84225 28.5477C10.4474 28.5477 10.8559 29.0061 10.8559 29.6098C10.8559 30.2136 10.4474 30.6719 9.84225 30.6719C9.20889 30.6719 8.8213 30.1929 8.8213 29.6098V29.6098ZM11.5457 29.6098V27.9511H10.814V28.3539C10.582 28.0552 10.2298 27.8677 9.7512 27.8677C8.8076 27.8677 8.06787 28.5969 8.06787 29.6098C8.06787 30.6235 8.8076 31.3519 9.7512 31.3519C10.2298 31.3519 10.582 31.1645 10.814 30.8658V31.2685H11.5457V29.6098ZM36.271 29.6098C36.271 29.0267 36.6586 28.5477 37.2919 28.5477C37.8979 28.5477 38.3056 29.0061 38.3056 29.6098C38.3056 30.2136 37.8979 30.6719 37.2919 30.6719C36.6586 30.6719 36.271 30.1929 36.271 29.6098ZM38.9962 29.6098V26.6189H38.2637V28.3539C38.0316 28.0552 37.6795 27.8677 37.2009 27.8677C36.2573 27.8677 35.5175 28.5969 35.5175 29.6098C35.5175 30.6235 36.2573 31.3519 37.2009 31.3519C37.6795 31.3519 38.0316 31.1645 38.2637 30.8658V31.2685H38.9962V29.6098ZM20.6279 28.5135C21.0993 28.5135 21.4023 28.8051 21.4797 29.3183H19.7335C19.8116 28.8392 20.1066 28.5135 20.6279 28.5135ZM20.6424 27.8677C19.6561 27.8677 18.9664 28.5755 18.9664 29.6098C18.9664 30.6648 19.6843 31.3519 20.6916 31.3519C21.1984 31.3519 21.6626 31.2272 22.0711 30.8872L21.7125 30.3526C21.4305 30.5742 21.0711 30.6997 20.7335 30.6997C20.2621 30.6997 19.8326 30.4844 19.727 29.8871H22.2258C22.2331 29.7973 22.2403 29.7067 22.2403 29.6098C22.2331 28.5755 21.5852 27.8677 20.6424 27.8677ZM29.4772 29.6098C29.4772 29.0267 29.8648 28.5477 30.4982 28.5477C31.1034 28.5477 31.5119 29.0061 31.5119 29.6098C31.5119 30.2136 31.1034 30.6719 30.4982 30.6719C29.8648 30.6719 29.4772 30.1929 29.4772 29.6098V29.6098ZM32.2017 29.6098V27.9511H31.47V28.3539C31.2371 28.0552 30.8858 27.8677 30.4071 27.8677C29.4635 27.8677 28.7238 28.5969 28.7238 29.6098C28.7238 30.6235 29.4635 31.3519 30.4071 31.3519C30.8858 31.3519 31.2371 31.1645 31.47 30.8658V31.2685H32.2017V29.6098ZM25.3451 29.6098C25.3451 30.6163 26.0558 31.3519 27.1404 31.3519C27.6473 31.3519 27.9849 31.2407 28.3507 30.9563L27.9994 30.3732C27.7246 30.5679 27.4361 30.6719 27.1187 30.6719C26.5345 30.6648 26.105 30.2485 26.105 29.6098C26.105 28.9711 26.5345 28.5548 27.1187 28.5477C27.4361 28.5477 27.7246 28.6518 27.9994 28.8464L28.3507 28.2633C27.9849 27.9789 27.6473 27.8677 27.1404 27.8677C26.0558 27.8677 25.3451 28.6033 25.3451 29.6098V29.6098ZM34.7786 27.8677C34.3564 27.8677 34.0816 28.0623 33.8914 28.3539V27.9511H33.1662V31.2685H33.8987V29.4088C33.8987 28.8599 34.138 28.5548 34.6167 28.5548C34.7649 28.5548 34.9196 28.5755 35.0743 28.6383L35.3 27.9582C35.138 27.8955 34.9269 27.8677 34.7786 27.8677V27.8677ZM15.1646 28.2148C14.8124 27.9861 14.3273 27.8677 13.7923 27.8677C12.9398 27.8677 12.391 28.2704 12.391 28.9298C12.391 29.4708 12.7995 29.8044 13.5522 29.9085L13.8979 29.957C14.2991 30.0126 14.4885 30.1166 14.4885 30.3041C14.4885 30.5607 14.221 30.7069 13.7214 30.7069C13.2145 30.7069 12.8487 30.5472 12.6021 30.3597L12.2572 30.9214C12.6585 31.2129 13.1654 31.3519 13.7141 31.3519C14.6859 31.3519 15.2492 30.9007 15.2492 30.2692C15.2492 29.6861 14.806 29.381 14.0735 29.277L13.7286 29.2277C13.412 29.1864 13.1581 29.1244 13.1581 28.902C13.1581 28.6589 13.3975 28.5135 13.7987 28.5135C14.2282 28.5135 14.644 28.6732 14.8479 28.7979L15.1646 28.2148ZM24.6054 27.8677C24.1831 27.8677 23.9083 28.0623 23.719 28.3539V27.9511H22.9938V31.2685H23.7254V29.4088C23.7254 28.8599 23.9647 28.5548 24.4434 28.5548C24.5917 28.5548 24.7464 28.5755 24.9011 28.6383L25.1267 27.9582C24.9647 27.8955 24.7536 27.8677 24.6054 27.8677V27.8677ZM18.3612 27.9511H17.1646V26.9446H16.4249V27.9511H15.7423V28.6105H16.4249V30.1238C16.4249 30.8936 16.7278 31.3519 17.5933 31.3519C17.9108 31.3519 18.2766 31.255 18.5087 31.0953L18.2975 30.4773C18.0792 30.602 17.8398 30.6648 17.6497 30.6648C17.2838 30.6648 17.1646 30.4423 17.1646 30.1095V28.6105H18.3612V27.9511ZM7.42082 31.2685V29.1864C7.42082 28.4023 6.91396 27.8748 6.09688 27.8677C5.66739 27.8605 5.2242 27.9924 4.91396 28.4579C4.68189 28.0901 4.31606 27.8677 3.80196 27.8677C3.44257 27.8677 3.09124 27.9718 2.81646 28.3602V27.9511H2.08398V31.2685H2.82291V29.4295C2.82291 28.8535 3.14684 28.5477 3.64724 28.5477C4.13314 28.5477 4.37891 28.8599 4.37891 29.4223V31.2685H5.11864V29.4295C5.11864 28.8535 5.45627 28.5477 5.94217 28.5477C6.44176 28.5477 6.68109 28.8599 6.68109 29.4223V31.2685H7.42082Z" fill="white"/>
<path d="M15.6648 12.495C15.6648 8.50951 17.5576 4.95931 20.5053 2.67142C18.3497 0.998407 15.6293 -0.000159734 12.6729 -0.000159734C5.67366 -0.000159734 0 5.59404 0 12.495C0 19.396 5.67366 24.9902 12.6729 24.9902C15.6293 24.9902 18.3497 23.9917 20.5053 22.3187C17.5576 20.0308 15.6648 16.4806 15.6648 12.495Z" fill="#EB001B"/>
<path d="M41.0002 12.495C41.0002 19.396 35.3265 24.9902 28.3273 24.9902C25.3709 24.9902 22.6505 23.9917 20.4941 22.3187C23.4426 20.0308 25.3354 16.4806 25.3354 12.495C25.3354 8.50951 23.4426 4.95931 20.4941 2.67142C22.6505 0.998407 25.3709 -0.000159734 28.3273 -0.000159734C35.3265 -0.000159734 41.0002 5.59404 41.0002 12.495Z" fill="#F79E1B"/>
</svg>
