<svg width="24" height="24" viewBox="0 0 24 24" fill="none" xmlns="http://www.w3.org/2000/svg">
<path d="M11.8993 2.34549C12.0489 1.88484 12.7006 1.88484 12.8503 2.34549L14.9567 8.82827C15.0236 9.03428 15.2156 9.17376 15.4322 9.17376H22.2486C22.733 9.17376 22.9344 9.79357 22.5425 10.0783L17.0279 14.0848C16.8527 14.2122 16.7794 14.4379 16.8463 14.6439L18.9527 21.1266C19.1024 21.5873 18.5751 21.9704 18.1833 21.6857L12.6687 17.6791C12.4934 17.5518 12.2561 17.5518 12.0809 17.6791L6.56632 21.6857C6.17446 21.9704 5.64722 21.5873 5.7969 21.1266L7.90328 14.6439C7.97022 14.4379 7.89689 14.2122 7.72165 14.0848L2.20707 10.0783C1.81521 9.79357 2.0166 9.17376 2.50096 9.17376H9.31736C9.53397 9.17376 9.72595 9.03428 9.79288 8.82827L11.8993 2.34549Z" fill="#FF8A01"/>
</svg>
