<svg width="24" height="24" viewBox="0 0 24 24" fill="none" xmlns="http://www.w3.org/2000/svg">
<path d="M21.1462 17.7268C20.0702 18.6393 18.5107 19.2938 16.4678 19.6902C14.425 20.0867 12.3197 20.2026 10.152 20.038L6.03509 23V19.2976C4.67836 18.8937 3.61793 18.3701 2.8538 17.7268C1.94932 16.9639 1.24756 15.8681 0.748538 14.4395C0.249513 13.0109 0 11.5524 0 10.0639C0 8.57545 0.249513 7.11691 0.748538 5.68829C1.24756 4.25967 1.95322 3.16016 2.8655 2.38976C3.77778 1.61935 5.08382 1.02846 6.78363 0.617073C8.48343 0.205691 10.2222 0 12 0C13.7778 0 15.5166 0.205691 17.2164 0.617073C18.9162 1.02846 20.2222 1.61935 21.1345 2.38976C22.0468 3.16016 22.7524 4.25967 23.2515 5.68829C23.7505 7.11691 24 8.57545 24 10.0639C24 11.5524 23.7505 13.0109 23.2515 14.4395C22.7524 15.8681 22.0507 16.9639 21.1462 17.7268ZM14.9474 12.2293L16.4678 12.4761C16.3431 10.681 15.6218 9.14764 14.3041 7.8761C12.9864 6.60455 11.3918 5.90894 9.52047 5.78927L9.77778 7.2478C11.1189 7.41236 12.2729 7.95837 13.2398 8.88585C14.2066 9.81333 14.7758 10.9278 14.9474 12.2293ZM10.0351 8.75122L10.3158 10.3668C10.9396 10.666 11.3996 11.1073 11.6959 11.6907L13.3801 11.96C13.193 11.1672 12.7953 10.4828 12.1871 9.90683C11.5789 9.33089 10.8616 8.94569 10.0351 8.75122ZM7.53216 10.0751V8.63902C7.53216 8.38472 7.4347 8.13041 7.23977 7.8761C7.04483 7.62179 6.83821 7.43854 6.61988 7.32634C6.40156 7.21415 6.23782 7.20293 6.12865 7.29268L5.05263 8.34732C4.44444 8.93073 4.35478 9.83951 4.78363 11.0737C5.21248 12.3078 6.03119 13.5046 7.23977 14.6639C8.44834 15.8233 9.69591 16.6086 10.9825 17.02C12.269 17.4314 13.2086 17.3454 13.8012 16.762L14.9006 15.7073C15.0097 15.6176 15.0058 15.4642 14.8889 15.2473C14.7719 15.0304 14.5809 14.8322 14.3158 14.6527C14.0507 14.4732 13.7856 14.3834 13.5205 14.3834H12.0234L11.1579 15.1015C10.4717 14.922 9.61793 14.3423 8.59649 13.3624C7.57505 12.3826 6.97076 11.5561 6.78363 10.8829L7.53216 10.0751ZM9.02924 2.89463L9.26316 4.35317C10.8226 4.38309 12.2651 4.77577 13.5906 5.53122C14.9162 6.28667 15.9688 7.29642 16.7485 8.56049C17.5283 9.82455 17.9415 11.2046 17.9883 12.7005L19.5088 12.9473C19.5088 11.586 19.232 10.2846 18.6784 9.04293C18.1248 7.8013 17.3801 6.73171 16.4444 5.83415C15.5088 4.93658 14.3938 4.22228 13.0994 3.69122C11.8051 3.16016 10.4483 2.89463 9.02924 2.89463Z" fill="#650293"/>
</svg>
