<svg width="48" height="16" viewBox="0 0 48 16" fill="none" xmlns="http://www.w3.org/2000/svg">
<path d="M47.1537 15.31C45.9765 15.31 44.7993 15.31 43.6038 15.31C43.4741 14.6959 43.3349 14.0946 43.2244 13.4882C43.1792 13.2364 43.0974 13.1388 42.812 13.143C41.3885 13.161 39.9651 13.1567 38.5416 13.1456C38.3258 13.1439 38.2405 13.2141 38.1753 13.4068C37.9795 13.9841 37.7646 14.5563 37.5453 15.1258C37.5158 15.2029 37.4166 15.3091 37.3496 15.31C36.0662 15.3211 34.7837 15.3177 33.4629 15.3177C33.703 14.7472 33.931 14.2025 34.1624 13.6595C35.8165 9.77446 37.4714 5.88942 39.1263 2.00352C39.4848 1.16244 40.0216 0.80957 40.9465 0.80957C41.9767 0.80957 43.0069 0.80957 44.0632 0.80957C44.1658 1.28321 44.2702 1.75 44.3694 2.21764C45.1838 6.05729 45.9956 9.89694 46.8118 13.7366C46.9162 14.2282 47.0397 14.7164 47.1546 15.2063C47.1537 15.2414 47.1537 15.2757 47.1537 15.31ZM42.5075 10.1582C42.129 8.37239 41.7557 6.61144 41.3824 4.84964C41.3668 4.84707 41.352 4.84364 41.3363 4.84107C40.6864 6.60716 40.0355 8.37239 39.3777 10.1582C40.441 10.1582 41.4581 10.1582 42.5075 10.1582Z" fill="white"/>
<path d="M31.692 0.552734C32.1601 0.638384 32.6326 0.708616 33.0963 0.813964C33.5192 0.909891 33.9342 1.04436 34.3841 1.17026C34.157 2.21433 33.936 3.2327 33.7193 4.22965C33.1259 4.05836 32.5586 3.86136 31.9757 3.7346C31.1778 3.56159 30.3608 3.49564 29.5629 3.71405C29.2384 3.80312 28.9103 3.97356 28.6545 4.1894C28.2169 4.55855 28.2108 5.09043 28.6293 5.47842C28.9182 5.74564 29.2592 5.96576 29.6012 6.16789C30.3782 6.62783 31.1934 7.02781 31.9478 7.51858C32.837 8.09671 33.4853 8.8924 33.621 9.96729C33.862 11.8687 33.1477 13.3667 31.5249 14.4262C30.5043 15.0925 29.3497 15.3897 28.1464 15.5002C26.4663 15.6544 24.8201 15.4685 23.2147 14.9495C23.1069 14.9144 23.0024 14.8716 22.8972 14.8287C22.8658 14.8159 22.8389 14.7936 22.791 14.7645C23.0181 13.7196 23.2452 12.6721 23.4784 11.5963C23.7516 11.7137 24.0091 11.8319 24.271 11.9355C25.5248 12.4331 26.8204 12.6601 28.1621 12.4126C28.511 12.3483 28.8677 12.1967 29.1635 12.0015C29.8057 11.5775 29.8674 10.781 29.2827 10.2833C28.8982 9.95616 28.4361 9.71463 27.9985 9.45168C27.3146 9.04142 26.5872 8.69198 25.9399 8.2329C25.1098 7.64449 24.5094 6.85994 24.3955 5.81673C24.2249 4.25535 24.8131 2.98688 26.0312 2.00192C27.091 1.14457 28.3491 0.764288 29.6891 0.604124C29.7639 0.595559 29.8361 0.569864 29.9092 0.552734C30.5035 0.552734 31.0977 0.552734 31.692 0.552734Z" fill="white"/>
<path d="M17.8846 0.822951C17.6854 1.29488 17.4966 1.74539 17.3052 2.19505C15.478 6.48522 13.6491 10.7737 11.8297 15.0673C11.7427 15.272 11.6365 15.3259 11.426 15.3242C10.2731 15.3148 9.11938 15.3114 7.96652 15.3268C7.72202 15.3302 7.64285 15.2454 7.58629 15.0296C6.60918 11.2799 5.61554 7.53357 4.64888 3.78127C4.47138 3.09265 4.11638 2.62244 3.45077 2.3338C2.38404 1.8713 1.27642 1.54669 0.147045 1.28289C0.0965797 1.2709 0.0469847 1.25805 0 1.24691C0.00522052 0.811816 0.00522052 0.811816 0.426343 0.811816C2.44407 0.811816 4.46181 0.81096 6.48041 0.811816C7.4375 0.811816 8.12835 1.35911 8.30933 2.29183C8.82181 4.93154 9.32298 7.57382 9.82937 10.2152C9.85113 10.3309 9.87636 10.4456 9.91029 10.6084C9.9625 10.5116 9.99904 10.4568 10.0225 10.3977C11.2755 7.27662 12.5293 4.15642 13.7761 1.03365C13.844 0.863206 13.9284 0.804964 14.1154 0.806677C15.2857 0.816099 16.4568 0.81096 17.6271 0.811816C17.7019 0.811816 17.7776 0.818668 17.8846 0.822951Z" fill="white"/>
<path d="M16.3535 15.3185C17.4081 10.469 18.4548 5.65385 19.5041 0.82666C20.7805 0.82666 22.0421 0.82666 23.3273 0.82666C23.168 1.56153 23.0123 2.2827 22.8557 3.00386C21.9891 6.99083 21.1199 10.9778 20.2637 14.9673C20.2045 15.2448 20.1045 15.3322 19.8121 15.3271C18.7645 15.3074 17.7161 15.3194 16.6676 15.3194C16.5736 15.3185 16.4797 15.3185 16.3535 15.3185Z" fill="white"/>
</svg>
