<svg width="24" height="26" viewBox="0 0 24 26" fill="none" xmlns="http://www.w3.org/2000/svg">
<g clip-path="url(#clip0_8284_1269)">
<path d="M0.922852 24.9442L2.55528 18.7817C1.54868 16.9742 1.01916 14.9243 1.01988 12.838C1.01988 6.2796 6.17984 0.944336 12.5097 0.944336C15.5863 0.944336 18.4688 2.18509 20.6378 4.43023C22.8067 6.67546 23.9998 9.66515 23.9998 12.8438C23.9998 19.4021 18.8398 24.7374 12.5098 24.7374H12.5041C10.5805 24.7374 8.69121 24.2352 7.01311 23.2899L0.922852 24.9443V24.9442Z" fill="url(#paint0_linear_8284_1269)"/>
<path d="M9.05694 6.20133C8.80185 5.58825 8.53374 5.57409 8.29191 5.56708C8.09576 5.56006 7.86695 5.56006 7.63802 5.56006C7.40921 5.56006 7.04297 5.65165 6.72917 6.01802C6.41525 6.38452 5.53906 7.27237 5.53906 9.08342C5.53906 10.8872 6.76184 12.6347 6.93182 12.8813C7.1018 13.128 9.29226 16.9542 12.7512 18.427C15.6282 19.6532 16.2168 19.4064 16.8379 19.343C17.4656 19.2796 18.8518 18.4552 19.1395 17.5955C19.4206 16.7359 19.4206 16.003 19.3356 15.848C19.2506 15.6929 19.0218 15.6014 18.6817 15.4181C18.3418 15.2349 16.6679 14.3471 16.3541 14.2203C16.0401 14.0934 15.8113 14.0371 15.589 14.4034C15.3601 14.7698 14.7063 15.5943 14.5101 15.841C14.3139 16.0876 14.1113 16.1158 13.7712 15.9326C13.4312 15.7494 12.3328 15.3617 11.0316 14.1075C10.0181 13.135 9.33156 11.9301 9.1353 11.5637C8.93916 11.1973 9.11577 10.9999 9.28575 10.8168C9.43609 10.6547 9.62572 10.3869 9.79581 10.1755C9.9658 9.96414 10.0246 9.80915 10.1358 9.56244C10.2469 9.31585 10.1946 9.10448 10.1096 8.92129C10.0246 8.73798 9.35772 6.92706 9.05694 6.20133Z" fill="white"/>
</g>
<defs>
<linearGradient id="paint0_linear_8284_1269" x1="12.4609" y1="24.9427" x2="12.4609" y2="0.942895" gradientUnits="userSpaceOnUse">
<stop stop-color="#20B038"/>
<stop offset="1" stop-color="#60D66A"/>
</linearGradient>
<clipPath id="clip0_8284_1269">
<rect width="24" height="25" fill="white" transform="translate(0 0.90625)"/>
</clipPath>
</defs>
</svg>
