<?xml version="1.0" encoding="UTF-8" standalone="no"?>
<svg
   xmlns="http://www.w3.org/2000/svg"
   width="24"
   height="24"
   viewBox="0 0 24 24">
  <path
     style="fill:#1a2633"
     d="m 18.012712,11.148305 h -5.25 V 5.8983051 h -1.5 V 11.148305 H 6.0127119 v 1.5 h 5.2500001 v 5.25 h 1.5 v -5.25 h 5.25 z m -6,-8.2499999 c 4.95,0 9,4.05 9,8.9999999 0,4.95 -4.05,9 -9,9 -4.9500001,0 -9.0000001,-4.05 -9.0000001,-9 0,-4.9499999 4.05,-8.9999999 9.0000001,-8.9999999 z m 0,-1.5 c -5.7750001,0 -10.5000001,4.725 -10.5000001,10.4999999 0,5.775 4.725,10.5 10.5000001,10.5 5.775,0 10.5,-4.725 10.5,-10.5 0,-5.7749999 -4.725,-10.4999999 -10.5,-10.4999999 z"
/>
</svg>
