<?xml version="1.0" encoding="UTF-8" standalone="no"?>
<svg
   xmlns="http://www.w3.org/2000/svg"
   width="24"
   height="24"
   viewBox="0 0 24 24">
  <path
     d="M 12,1.5 C 9.2256505,1.53357 6.5744,2.65059 4.61249,4.61249 2.65059,6.5744 1.53357,9.22565 1.5,12 1.53357,14.7743 2.65059,17.4256 4.61249,19.3875 6.5744,21.3494 9.2256505,22.4664 12,22.5 14.7743,22.4664 17.4256,21.3494 19.3875,19.3875 21.3494,17.4256 22.4664,14.7743 22.5,12 22.4664,9.22565 21.3494,6.5744 19.3875,4.61249 17.4256,2.65059 14.7743,1.53357 12,1.5 Z m 6,11.25 H 12.75 V 18 h -1.5 V 12.75 H 6 v -1.5 h 5.25 V 6 h 1.5 v 5.25 H 18 Z"
     style="fill:#1a2633"/>
</svg>
