<?xml version="1.0" encoding="UTF-8" standalone="no"?>
<svg
   xmlns="http://www.w3.org/2000/svg"
   width="24"
   height="24"
   viewBox="0 0 24 24">
  <path
     d="M 18.3,7.8147 C 18.3021,7.7125 18.2951,6.7892 17.39,5.9002 16.4989,5.0252 15.6001,5 15.5,5 H 8.4972 C 8.3299,5 7.4521,5.0441 6.6016,5.9114 5.7252,6.8046 5.7,7.7013 5.7,7.8 V 9.9 H 5 V 12 h 0.7 v 4.2 c 0,0.5138 0.2842,0.9611 0.7,1.2047 V 18.3 c 0,0.1857 0.07375,0.3637 0.20503,0.495 C 6.7363,18.9263 6.91435,19 7.1,19 H 7.8 C 7.98565,19 8.1637,18.9263 8.29497,18.795 8.42625,18.6637 8.5,18.4857 8.5,18.3 v -0.7 h 7 v 0.7 c 0,0.1857 0.0737,0.3637 0.205,0.495 C 15.8363,18.9263 16.0143,19 16.2,19 h 0.7 c 0.1857,0 0.3637,-0.0737 0.495,-0.205 C 17.5263,18.6637 17.6,18.4857 17.6,18.3 V 17.4061 C 17.8124,17.2843 17.9889,17.1087 18.1118,16.897 18.2347,16.6852 18.2996,16.4448 18.3,16.2 V 12 H 19 V 9.9 H 18.3 Z M 9.9,6.4 h 4.2 V 7.8 H 9.9 Z M 8.15,16.2 C 7.87143,16.1999 7.60431,16.0892 7.40739,15.8921 7.21048,15.6951 7.09991,15.4279 7.1,15.1493 c 9e-5,-0.27857 0.11084,-0.54569 0.30789,-0.74261 0.19704,-0.19691 0.46424,-0.30748 0.74281,-0.30739 0.27857,9e-5 0.54569,0.11084 0.74261,0.30789 0.19691,0.19704 0.30748,0.46424 0.30739,0.74281 -9e-5,0.2786 -0.11084,0.5457 -0.30789,0.7426 C 8.69577,16.0895 8.42857,16.2001 8.15,16.2 Z M 11.3,12.7 H 7.1 V 9.2 h 4.2 z m 4.55,3.5 c -0.2786,-10e-5 -0.5457,-0.1108 -0.7426,-0.3079 -0.19692,-0.197 -0.30749,-0.4642 -0.3074,-0.7428 9e-5,-0.27857 0.11084,-0.54569 0.3079,-0.74261 0.197,-0.19691 0.4642,-0.30748 0.7428,-0.30739 0.2786,9e-5 0.5457,0.11084 0.7426,0.30789 0.1969,0.19704 0.3075,0.46424 0.3074,0.74281 -10e-5,0.2786 -0.1108,0.5457 -0.3079,0.7426 -0.197,0.1969 -0.4642,0.3075 -0.7428,0.3074 z M 16.9,12.7 H 12.7 V 9.2 h 4.2 z"
     style="fill:#1e2a35" />
</svg>
