<svg width="24" height="24" viewBox="0 0 24 24" fill="none" xmlns="http://www.w3.org/2000/svg">
<path d="M16.0517 11.7319C16.4287 11.3836 16.7297 10.9611 16.9359 10.491C17.1421 10.0209 17.249 9.51332 17.25 9V8.25C17.2488 7.2558 16.8534 6.30265 16.1504 5.59964C15.4473 4.89664 14.4942 4.50117 13.5 4.5H12.75V2.25H11.25V4.5H7.5V19.5H11.25V21.75H12.75V19.5H14.25C15.2442 19.4988 16.1973 19.1034 16.9004 18.4004C17.6034 17.6973 17.9988 16.7442 18 15.75V15C17.9976 14.3307 17.8155 13.6744 17.4728 13.0995C17.1301 12.5246 16.6393 12.0523 16.0517 11.7319ZM9 6H13.5C14.0965 6.00066 14.6685 6.23792 15.0903 6.65973C15.5121 7.08155 15.7493 7.65346 15.75 8.25V9C15.7493 9.59654 15.5121 10.1685 15.0903 10.5903C14.6685 11.0121 14.0965 11.2493 13.5 11.25H9V6ZM16.5 15.75C16.4993 16.3465 16.2621 16.9185 15.8403 17.3403C15.4185 17.7621 14.8465 17.9993 14.25 18H9V12.75H14.25C14.8465 12.7507 15.4185 12.9879 15.8403 13.4097C16.2621 13.8315 16.4993 14.4035 16.5 15V15.75Z" fill="#1A2633"/>
</svg>
