<svg width="24" height="24" viewBox="0 0 24 24" fill="none" xmlns="http://www.w3.org/2000/svg">
<path d="M22.0034 9.9502L16.2041 7.86647L13.7805 4.82252C13.5697 4.56484 13.3041 4.35733 13.0031 4.21505C12.7021 4.07278 12.3732 3.99932 12.0403 4H6.0432C5.67646 3.99985 5.31525 4.08939 4.99106 4.26084C4.66686 4.43228 4.38952 4.68042 4.1832 4.98362L2.14965 7.97117C1.72591 8.59297 1.4995 9.32809 1.5 10.0805V16C1.5 16.1989 1.57902 16.3897 1.71967 16.5303C1.86032 16.671 2.05109 16.75 2.25 16.75H3.85658C4.02011 17.3933 4.39338 17.9638 4.91738 18.3712C5.44138 18.7787 6.08622 18.9999 6.75 18.9999C7.41378 18.9999 8.05863 18.7787 8.58262 18.3712C9.10662 17.9638 9.47989 17.3933 9.64342 16.75H14.3566C14.5201 17.3933 14.8934 17.9638 15.4174 18.3712C15.9414 18.7787 16.5862 18.9999 17.25 18.9999C17.9138 18.9999 18.5586 18.7787 19.0826 18.3712C19.6066 17.9638 19.9799 17.3933 20.1434 16.75H21.75C21.9489 16.75 22.1397 16.671 22.2803 16.5303C22.421 16.3897 22.5 16.1989 22.5 16V10.6562C22.5 10.5017 22.4524 10.351 22.3635 10.2246C22.2746 10.0982 22.1488 10.0024 22.0034 9.9502ZM6.75 17.5C6.45333 17.5 6.16332 17.412 5.91665 17.2472C5.66997 17.0824 5.47771 16.8481 5.36418 16.574C5.25065 16.2999 5.22094 15.9983 5.27882 15.7074C5.3367 15.4164 5.47956 15.1491 5.68934 14.9393C5.89912 14.7296 6.16639 14.5867 6.45737 14.5288C6.74834 14.4709 7.04994 14.5006 7.32403 14.6142C7.59811 14.7277 7.83238 14.92 7.9972 15.1666C8.16203 15.4133 8.25 15.7033 8.25 16C8.24946 16.3977 8.09126 16.7789 7.81007 17.0601C7.52888 17.3413 7.14766 17.4995 6.75 17.5ZM17.25 17.5C16.9533 17.5 16.6633 17.412 16.4166 17.2472C16.17 17.0824 15.9777 16.8481 15.8642 16.574C15.7506 16.2999 15.7209 15.9983 15.7788 15.7074C15.8367 15.4164 15.9796 15.1491 16.1893 14.9393C16.3991 14.7296 16.6664 14.5867 16.9574 14.5288C17.2483 14.4709 17.5499 14.5006 17.824 14.6142C18.0981 14.7277 18.3324 14.92 18.4972 15.1666C18.662 15.4133 18.75 15.7033 18.75 16C18.7495 16.3977 18.5913 16.7789 18.3101 17.0601C18.0289 17.3413 17.6477 17.4995 17.25 17.5ZM21 15.25H20.1434C19.9799 14.6067 19.6066 14.0362 19.0826 13.6288C18.5586 13.2213 17.9138 13.0001 17.25 13.0001C16.5862 13.0001 15.9414 13.2213 15.4174 13.6288C14.8934 14.0362 14.5201 14.6067 14.3566 15.25H9.64342C9.47989 14.6067 9.10662 14.0362 8.58262 13.6288C8.05863 13.2213 7.41378 13.0001 6.75 13.0001C6.08622 13.0001 5.44138 13.2213 4.91738 13.6288C4.39338 14.0362 4.02011 14.6067 3.85658 15.25H3V10.0805C2.99983 9.62883 3.13573 9.18753 3.39 8.81417L5.42325 5.82812C5.49198 5.72701 5.58441 5.64424 5.69247 5.58705C5.80053 5.52986 5.92094 5.49997 6.0432 5.5H12.0403C12.1495 5.49953 12.2575 5.5231 12.3567 5.56905C12.4558 5.615 12.5436 5.68219 12.6138 5.76587L15.1634 8.96725C15.2501 9.07623 15.3655 9.15891 15.4966 9.20605L21 11.1836V15.25Z" fill="#1A2633"/>
</svg>
