<?xml version="1.0" encoding="UTF-8" standalone="no"?>
<svg
   xmlns="http://www.w3.org/2000/svg"
   width="24"
   height="24.4"
   viewBox="0 0 24 24.4">
  <path
     style="fill:#000000"
     d="M 12,15.2 H 4.5 v 1.5 H 12 Z M 21,4.7 H 3 C 2.60218,4.7 2.22064,4.85804 1.93934,5.13934 1.65804,5.4206396 1.5,5.8021796 1.5,6.1999996 V 18.2 c 0,0.3978 0.15804,0.7794 0.43934,1.0607 C 2.22064,19.542 2.60218,19.7 3,19.7 h 18 c 0.3978,0 0.7794,-0.158 1.0607,-0.4393 C 22.342,18.9794 22.5,18.5978 22.5,18.2 V 6.1999996 C 22.5,5.8021796 22.342,5.4206396 22.0607,5.13934 21.7794,4.85804 21.3978,4.7 21,4.7 Z m 0,1.4999996 v 2.25 H 3 v -2.25 z M 3,18.2 V 9.9499996 H 21 V 18.2 Z"
/>
</svg>
