<?xml version="1.0" encoding="UTF-8" standalone="no"?>
<svg
   xmlns="http://www.w3.org/2000/svg"
   width="24"
   height="24"
   viewBox="0 0 24 24">
  <path
     style="fill:#1e2a35"
     d="M 20.4375,23.8125 H 18.75 v -4.2187 c 0,-0.5541 -0.1091,-1.1027 -0.3211,-1.6145 -0.212,-0.5118 -0.5228,-0.9769 -0.9145,-1.3687 -0.3918,-0.3917 -0.8569,-0.7025 -1.3687,-0.9145 -0.5118,-0.212 -1.0604,-0.3211 -1.6145,-0.3211 H 9.4688 c -1.11893,0 -2.19199,0.4445 -2.98316,1.2356 C 5.69447,17.4018 5.25,18.4749 5.25,19.5938 v 4.2187 H 3.5625 v -4.2187 c 0,-1.5665 0.62226,-3.0688 1.7299,-4.1764 1.10764,-1.1076 2.60992,-1.7299 4.1764,-1.7299 h 5.0624 c 1.5665,0 3.0688,0.6223 4.1764,1.7299 1.1076,1.1076 1.7299,2.6099 1.7299,4.1764 z M 12,1.875 c 0.8344,0 1.65,0.24743 2.3438,0.71099 0.6938,0.46356 1.2345,1.12244 1.5538,1.89331 0.3193,0.77088 0.4029,1.61913 0.2401,2.43749 -0.1628,0.81835 -0.5646,1.57006 -1.1546,2.16011 -0.59,0.59 -1.3417,0.9918 -2.1601,1.1545 -0.8183,0.1628 -1.6666,0.0793 -2.4374,-0.24 C 9.6147,9.6721 8.9558,9.1313 8.49224,8.43756 8.02868,7.74379 7.78125,6.92814 7.78125,6.09375 7.78125,4.97487 8.22573,3.90181 9.0169,3.11064 9.8081,2.31947 10.8811,1.875 12,1.875 Z m 0,-1.6875 c -1.1681,0 -2.3101,0.3464 -3.2813,0.99538 C 7.74739,1.83187 6.99037,2.7543 6.54334,3.83353 6.09631,4.91275 5.97935,6.1003 6.20724,7.246 c 0.22789,1.1457 0.79041,2.1981 1.61641,3.0241 0.82605,0.826 1.87835,1.3885 3.02415,1.6164 1.1457,0.2279 2.3332,0.1109 3.4124,-0.3361 1.0793,-0.447 2.0017,-1.204 2.6507,-2.1753 0.649,-0.97129 0.9954,-2.1132 0.9954,-3.28135 0,-1.56644 -0.6223,-3.06871 -1.7299,-4.17635 C 15.0687,0.80976 13.5664,0.1875 12,0.1875 Z"
    />
</svg>
