<?xml version="1.0" encoding="UTF-8" standalone="no"?>
<svg
   xmlns="http://www.w3.org/2000/svg"
   width="24"
   height="24"
   viewBox="0 0 24 24">
  <path
     style="fill:#1e2a35"
     d="m 8.625,1.875 c 0.8344,0 1.65,0.24743 2.3438,0.71099 0.6938,0.46356 1.2345,1.12244 1.5538,1.89331 0.3193,0.77088 0.4029,1.61913 0.2401,2.43749 -0.1628,0.81835 -0.5646,1.57006 -1.1546,2.16011 -0.59,0.59 -1.3417,0.9918 -2.1601,1.1545 C 8.6297,10.3942 7.78143,10.3107 7.01056,9.9914 6.23968,9.6721 5.5808,9.1313 5.11724,8.43756 4.65368,7.74379 4.40625,6.92814 4.40625,6.09375 4.40625,4.97487 4.85073,3.90181 5.6419,3.11064 6.43307,2.31947 7.50612,1.875 8.625,1.875 Z m 0,-1.6875 C 7.45686,0.1875 6.31494,0.5339 5.34367,1.18288 4.37239,1.83187 3.61537,2.7543 3.16834,3.83353 2.72131,4.91275 2.60435,6.1003 2.83224,7.246 c 0.22789,1.1457 0.79041,2.1981 1.61641,3.0241 0.82601,0.826 1.8784,1.3885 3.0241,1.6164 1.14575,0.2279 2.33325,0.1109 3.41245,-0.3361 1.0793,-0.447 2.0017,-1.204 2.6507,-2.1753 0.649,-0.97129 0.9954,-2.1132 0.9954,-3.28135 0,-1.56644 -0.6223,-3.06871 -1.7299,-4.17635 C 11.6937,0.80976 10.1914,0.1875 8.625,0.1875 Z m 6.75,0 V 1.875 c 1.1189,0 2.1919,0.44447 2.9831,1.23564 0.7912,0.79117 1.2357,1.86423 1.2357,2.98311 0,1.11888 -0.4445,2.19194 -1.2357,2.98315 -0.7912,0.7911 -1.8642,1.2356 -2.9831,1.2356 V 12 c 1.5664,0 3.0687,-0.6223 4.1763,-1.7299 C 20.659,9.1625 21.2812,7.66018 21.2812,6.09375 21.2812,4.52732 20.659,3.02504 19.5513,1.9174 18.4437,0.80976 16.9414,0.1875 15.375,0.1875 Z m 1.6875,23.625 H 15.375 V 19.5938 C 15.3737,18.4753 14.9288,17.403 14.1379,16.6121 13.347,15.8212 12.2747,15.3763 11.1562,15.375 H 6.09375 C 4.97527,15.3763 3.90298,15.8212 3.1121,16.6121 2.32121,17.403 1.87632,18.4753 1.875,19.5938 v 4.2187 H 0.1875 v -4.2187 c 0.00183,-1.5659 0.62468,-3.0671 1.73192,-4.1744 1.10724,-1.1072 2.60846,-1.7301 4.17433,-1.7319 h 5.06245 c 1.5659,0.0018 3.0671,0.6247 4.1744,1.7319 1.1072,1.1073 1.7301,2.6085 1.7319,4.1744 z m 6.75,0 H 22.125 V 19.5938 C 22.1237,18.4753 21.6788,17.4029 20.888,16.612 20.0971,15.8212 19.0247,15.3763 17.9062,15.375 v -1.6875 c 1.566,0.0017 3.0672,0.6246 4.1745,1.7318 1.1072,1.1073 1.7301,2.6085 1.7318,4.1745 z"
/>
</svg>
