<?xml version="1.0" encoding="UTF-8" standalone="no"?>
<svg
   xmlns="http://www.w3.org/2000/svg"
   width="24"
   height="24"
   viewBox="0 0 24 24">
  <path
     d="m 12.75,9 h -1.5 v 1.5 h 1.5 z m 0,3 h -1.5 v 1.5 h 1.5 z m 3,1.5 h -1.5 v -6 h -4.5 v 6 h -1.5 v -6 C 8.25042,7.1023 8.40859,6.72101 8.6898,6.4398 8.97101,6.15859 9.3523,6.00042 9.75,6 h 4.5 c 0.3977,4.2e-4 0.779,0.15859 1.0602,0.4398 C 15.5914,6.72101 15.7496,7.1023 15.75,7.5 Z M 12,22.5 5.67338,15.0385 C 5.63746,14.9957 5.41223,14.6999 5.41223,14.6999 4.33141,13.2763 3.74748,11.5374 3.75001,9.75 3.75001,7.56196 4.6192,5.46354 6.16638,3.91637 7.71355,2.36919 9.81197,1.5 12,1.5 c 2.188,0 4.2865,0.86919 5.8336,2.41637 1.5472,1.54717 2.4164,3.64559 2.4164,5.83363 0.0027,1.7867 -0.5808,3.5249 -1.6611,4.948 l -0.0011,0.0019 c 0,0 -0.225,0.2957 -0.2585,0.3355 z M 6.60938,13.7963 c 7.5e-4,5e-4 0.17505,0.2311 0.21495,0.2807 L 12,20.1809 17.1825,14.0684 C 17.2154,14.027 17.3912,13.7948 17.3916,13.7942 18.2746,12.631 18.7517,11.2103 18.75,9.75 18.75,7.95979 18.0388,6.2429 16.773,4.97703 15.5071,3.71116 13.7902,3 12,3 10.2098,3 8.49291,3.71116 7.22704,4.97703 5.96117,6.2429 5.25001,7.95979 5.25001,9.75 c -0.00166,1.4611 0.47586,2.8825 1.35937,4.0463 z"
     style="fill:#1a2633;fill-opacity:1" />
</svg>
