<?xml version="1.0" encoding="UTF-8" standalone="no"?>
<svg
   xmlns="http://www.w3.org/2000/svg"
   width="24"
   height="24"
   viewBox="0 0 24 24">
  <path
     id="path6"
     d="M 18,22.5 H 3 C 2.6023,22.4996 2.22101,22.3414 1.9398,22.0602 1.65859,21.779 1.50042,21.3977 1.5,21 V 6 C 1.50042,5.6023 1.65859,5.22101 1.9398,4.9398 2.22101,4.65859 2.6023,4.50042 3,4.5 H 6 V 6 H 3 v 15 h 15 v -7.5 h 1.5 V 21 c -4e-4,0.3977 -0.1586,0.779 -0.4398,1.0602 C 18.779,22.3414 18.3977,22.4996 18,22.5 Z m -3.0385,-9.75 c -0.734,10e-5 -1.4516,-0.2174 -2.062,-0.6251 -0.6103,-0.4077 -1.086,-0.9873 -1.367,-1.6654 -0.2809,-0.67816 -0.3544,-1.42437 -0.2112,-2.14427 0.1433,-0.7199 0.4968,-1.38115 1.0159,-1.90012 l 0.4144,-0.41445 1.0607,1.06095 -0.4144,0.41423 c -0.2053,0.20529 -0.3682,0.44901 -0.4793,0.71725 -0.1112,0.26824 -0.1684,0.55574 -0.1684,0.84609 0,0.29034 0.0572,0.57784 0.1684,0.84608 0.1111,0.26824 0.274,0.51194 0.4793,0.71724 0.4213,0.4021 0.9813,0.6264 1.5637,0.6264 0.5824,0 1.1425,-0.2243 1.5638,-0.6264 0.195,-0.195 3.547,-3.54696 3.829,-3.82836 0.414,-0.41492 0.6465,-0.97713 0.6465,-1.56326 0,-0.58614 -0.2325,-1.14834 -0.6465,-1.56327 C 19.933,3.24553 19.373,3.02118 18.7906,3.02118 c -0.5824,0 -1.1424,0.22435 -1.5637,0.62643 L 16.1661,2.58674 c 0.6962,-0.69495 1.6398,-1.08507 2.6235,-1.08463 0.9837,4.3e-4 1.927,0.39138 2.6226,1.08693 0.6956,0.69556 1.0866,1.63882 1.087,2.6225 5e-4,0.98369 -0.3896,1.92732 -1.0845,2.62355 -0.2824,0.282 -3.633,3.63211 -3.8278,3.82761 -0.3441,0.3458 -0.7532,0.6199 -1.2039,0.8065 -0.4506,0.1867 -0.9338,0.2821 -1.4215,0.2808 z m -6.00002,1.5 C 8.22747,14.2501 7.5099,14.0326 6.89954,13.6249 6.28918,13.2172 5.81345,12.6376 5.53253,11.9595 5.2516,11.2813 5.1781,10.5351 5.32133,9.81523 5.46455,9.09533 5.81807,8.43408 6.33715,7.91511 L 10.1661,4.08689 c 0.696,-0.69601 1.6399,-1.08704 2.6242,-1.08707 0.9842,-4e-5 1.9282,0.39093 2.6242,1.08688 0.696,0.69595 1.0871,1.63989 1.0871,2.62416 0,0.98426 -0.3909,1.92822 -1.0869,2.62423 L 15.0005,9.74954 13.9386,8.68986 14.3569,8.27144 C 14.7699,7.85633 15.0015,7.29442 15.001,6.70885 15.0004,6.12327 14.7678,5.5618 14.354,5.14746 13.9327,4.74537 13.3726,4.52103 12.7902,4.52103 c -0.5824,0 -1.1424,0.22434 -1.5637,0.62643 l -3.82855,3.828 C 7.19258,9.18075 7.02966,9.42448 6.91851,9.69274 6.80735,9.961 6.75014,10.2485 6.75014,10.5389 c 0,0.2904 0.05721,0.5779 0.16837,0.8462 0.11115,0.2682 0.27407,0.512 0.47944,0.7173 0.42133,0.4021 0.98135,0.6264 1.56375,0.6264 0.58241,0 1.1424,-0.2243 1.5638,-0.6264 l 1.0607,1.0608 c -0.344,0.3457 -0.753,0.6197 -1.2035,0.8063 C 9.93213,14.156 9.44909,14.2513 8.96148,14.25 Z"
     style="fill:#1a2633;fill-opacity:1" />
</svg>
