<?xml version="1.0" encoding="UTF-8" standalone="no"?>
<svg
   xmlns="http://www.w3.org/2000/svg"
   width="24"
   height="24"
   viewBox="0 0 24 24">
  <path
     style="fill:#1e2a35"
     d="M 21,1.5 H 3 C 2.6023,1.5004 2.221,1.65856 1.93978,1.93978 1.65856,2.221 1.5004,2.6023 1.5,3 v 18 c 4.6e-4,0.3977 0.15864,0.7789 0.43984,1.0602 C 2.22105,22.3414 2.60232,22.4995 3,22.5 h 18 c 0.3977,-5e-4 0.7789,-0.1587 1.0601,-0.4399 C 22.3413,21.7789 22.4995,21.3977 22.5,21 V 3 C 22.4995,2.60232 22.3414,2.22105 22.0602,1.93984 21.7789,1.65864 21.3977,1.50046 21,1.5 Z m 0,6.75 H 10.5 V 3 H 21 Z M 9,3 V 8.25 H 3 V 3 Z M 3,21 V 9.75 H 21.0005 L 21.0015,21 Z M 8.25,19.5 C 7.2558,19.4988 6.30265,19.1034 5.59964,18.4004 4.89664,17.6973 4.50117,16.7442 4.5,15.75 H 6 c 0,0.445 0.13196,0.88 0.37919,1.25 0.24724,0.37 0.59864,0.6584 1.00977,0.8287 C 7.8001,17.999 8.2525,18.0436 8.68895,17.9568 9.12541,17.87 9.52632,17.6557 9.84099,17.341 10.1557,17.0263 10.37,16.6254 10.4568,16.189 10.5436,15.7525 10.499,15.3001 10.3287,14.889 10.1584,14.4778 9.87004,14.1264 9.50003,13.8792 9.13002,13.632 8.69501,13.5 8.25,13.5 V 12 c 0.99456,0 1.9484,0.3951 2.6517,1.0983 C 11.6049,13.8016 12,14.7554 12,15.75 12,16.7446 11.6049,17.6984 10.9017,18.4017 10.1984,19.1049 9.24456,19.5 8.25,19.5 Z M 16.5,12 H 15 v 7.5 h 1.5 z m 3,3.75 H 18 v 3.75 h 1.5 z"
/>
</svg>
