<svg width="24" height="24" viewBox="0 0 24 24" fill="none" xmlns="http://www.w3.org/2000/svg">
<path d="M12 14H6V15.5H12V14Z" fill="#1A2633"/>
<path d="M17 11H10V12.5H17V11Z" fill="#1A2633"/>
<path d="M18 17H11V18.5H18V17Z" fill="#1A2633"/>
<path d="M20.25 2.25H3.75C3.35233 2.2505 2.97108 2.40869 2.68989 2.68989C2.40869 2.97108 2.2505 3.35233 2.25 3.75V20.25C2.2505 20.6477 2.40869 21.0289 2.68989 21.3101C2.97108 21.5913 3.35233 21.7495 3.75 21.75H20.25C20.6477 21.7495 21.0289 21.5913 21.3101 21.3101C21.5913 21.0289 21.7495 20.6477 21.75 20.25V3.75C21.7495 3.35233 21.5913 2.97108 21.3101 2.68989C21.0289 2.40869 20.6477 2.2505 20.25 2.25ZM20.25 3.75V6.75H3.75V3.75H20.25ZM3.75 20.25V8.25H20.25V20.25H3.75Z" fill="#1A2633"/>
</svg>
