<?xml version="1.0" encoding="UTF-8" standalone="no"?>
<svg
   xmlns="http://www.w3.org/2000/svg"
   width="24"
   height="24"
   viewBox="0 0 24 24">
  <path
     style="fill:#1e2a35"
     d="M 17.0625,12 H 6.9375 v 1.6875 h 10.125 z m 0,5.0625 H 6.9375 V 18.75 h 10.125 z M 20.1844,6.34688 14.2781,0.44062 C 14.1094,0.27187 13.9406,0.1875 13.6875,0.1875 H 5.25 c -0.92813,0 -1.6875,0.75937 -1.6875,1.6875 v 20.25 c 0,0.9281 0.75937,1.6875 1.6875,1.6875 h 13.5 c 0.9281,0 1.6875,-0.7594 1.6875,-1.6875 V 6.9375 c 0,-0.25313 -0.0844,-0.42188 -0.2531,-0.59062 z m -6.4969,-4.13438 4.725,4.725 h -4.725 z M 18.75,22.125 H 5.25 V 1.875 H 12 v 5.0625 c 0,0.92812 0.7594,1.6875 1.6875,1.6875 H 18.75 Z"
    />
</svg>
