<svg width="24" height="24" viewBox="0 0 24 24" fill="none" xmlns="http://www.w3.org/2000/svg">
<mask id="path-1-inside-1_12346_168" fill="white">
<path fill-rule="evenodd" clip-rule="evenodd" d="M10.1129 18.2367C9.44301 18.9207 8.35586 18.9212 7.68541 18.2377L2.62692 13.0807C2.12436 12.5683 2.12436 11.7377 2.62692 11.2253C3.12948 10.713 3.9443 10.713 4.44686 11.2253L8.89824 14.0141L19.5524 4.88498C20.0546 4.37224 20.8694 4.37159 21.3724 4.88354C21.8753 5.39549 21.876 6.22617 21.3738 6.73891L10.1129 18.2367Z"/>
</mask>
<path d="M7.97289 20.3391C9.13403 21.521 11.0334 21.5379 12.2154 20.3767C13.3973 19.2156 13.4141 17.3162 12.253 16.1343L7.97289 20.3391ZM11.3423 15.2073C10.1812 14.0254 8.28176 14.0085 7.09984 15.1697C5.91793 16.3308 5.90108 18.2302 7.06222 19.4122L11.3423 15.2073ZM7.06222 19.4122L7.97289 20.3391L12.253 16.1343L11.3423 15.2073L7.06222 19.4122ZM7.68541 18.2377L3.40208 22.4392L3.40208 22.4392L7.68541 18.2377ZM10.1129 18.2367L14.3995 22.4349L14.3995 22.4349L10.1129 18.2367ZM2.62692 13.0807L6.91026 8.87914L6.91026 8.87914L2.62692 13.0807ZM2.62692 11.2253L6.91026 15.4269L6.91027 15.4269L2.62692 11.2253ZM4.44686 11.2253L0.163519 15.4269C0.493531 15.7633 0.86203 16.0597 1.2614 16.3099L4.44686 11.2253ZM8.89824 14.0141L5.71278 19.0987C7.93711 20.4922 10.8091 20.2781 12.8022 18.5703L8.89824 14.0141ZM19.5524 4.88498L23.4564 9.44116C23.5891 9.32747 23.7168 9.20805 23.839 9.08322L19.5524 4.88498ZM21.3738 6.73891L25.6604 10.9372L25.6604 10.9372L21.3738 6.73891ZM3.40208 22.4392C6.426 25.522 11.3781 25.52 14.3995 22.4349L5.82636 14.0385C7.50794 12.3215 10.2857 12.3203 11.9688 14.0361L3.40208 22.4392ZM-1.65642 17.2822L3.40208 22.4392L11.9688 14.0361L6.91026 8.87914L-1.65642 17.2822ZM-1.65641 7.02377C-4.44786 9.86955 -4.44786 14.4365 -1.65641 17.2822L6.91026 8.87914C8.69658 10.7002 8.69658 13.6058 6.91026 15.4269L-1.65641 7.02377ZM8.7302 7.02378C5.87549 4.11349 1.19829 4.11349 -1.65642 7.02378L6.91027 15.4269C5.06068 17.3125 2.01311 17.3125 0.163519 15.4269L8.7302 7.02378ZM12.0837 8.92952L7.63232 6.14075L1.2614 16.3099L5.71278 19.0987L12.0837 8.92952ZM15.6484 0.328792L4.99424 9.45791L12.8022 18.5703L23.4564 9.44116L15.6484 0.328792ZM25.6525 0.67869C22.7954 -2.2295 18.1182 -2.22563 15.2659 0.686733L23.839 9.08322C21.991 10.9701 18.9435 10.9727 17.0923 9.0884L25.6525 0.67869ZM25.6604 10.9372C28.4495 8.08933 28.4462 3.52243 25.6525 0.67869L17.0923 9.0884C15.3044 7.26856 15.3024 4.36302 17.0872 2.54067L25.6604 10.9372ZM14.3995 22.4349L25.6604 10.9372L17.0872 2.54067L5.82636 14.0385L14.3995 22.4349Z" fill="#1A2633" mask="url(#path-1-inside-1_12346_168)"/>
</svg>
