<?xml version="1.0" encoding="UTF-8" standalone="no"?>
<svg
   xmlns="http://www.w3.org/2000/svg"
   width="24"
   height="24"
   viewBox="0 0 24 24"
   fill="none"
   version="1.1"
   id="svg18">
  <path
     d="M 12,16.5 C 11.11,16.5 10.24,16.2361 9.49994,15.7416 8.75991,15.2471 8.18314,14.5443 7.84254,13.7221 7.50195,12.8998 7.41283,11.995 7.58647,11.1221 7.7601,10.2492 8.18869,9.44736 8.81802,8.81802 9.44736,8.18869 10.2492,7.7601 11.1221,7.58647 c 0.8729,-0.17364 1.7777,-0.08452 2.6,0.25607 0.8222,0.3406 1.525,0.91737 2.0195,1.6574 C 16.2361,10.24 16.5,11.11 16.5,12 16.4986,13.1931 16.0241,14.3369 15.1805,15.1805 14.3369,16.0241 13.1931,16.4986 12,16.5 Z M 12,9 C 11.4067,9 10.8266,9.17595 10.3333,9.50559 9.83994,9.83524 9.45543,10.3038 9.22836,10.852 9.0013,11.4001 8.94189,12.0033 9.05765,12.5853 c 0.11575,0.5819 0.40147,1.1165 0.82103,1.536 0.41952,0.4196 0.95412,0.7053 1.53602,0.8211 0.582,0.1157 1.1852,0.0563 1.7334,-0.1708 0.5481,-0.227 1.0167,-0.6115 1.3463,-1.1049 C 14.8241,13.1734 15,12.5933 15,12 14.9991,11.2046 14.6828,10.4421 14.1203,9.87967 13.5579,9.31725 12.7954,9.0009 12,9 Z m 9,6.75 c -0.445,0 -0.88,-0.132 -1.25,-0.3792 -0.37,-0.2472 -0.6584,-0.5986 -0.8287,-1.0098 -0.1703,-0.4111 -0.2149,-0.8635 -0.1281,-1.3 0.0869,-0.4364 0.3011,-0.8373 0.6158,-1.152 0.3147,-0.3147 0.7156,-0.5289 1.152,-0.6158 0.4365,-0.0868 0.8889,-0.0422 1.3,0.1281 0.4112,0.1703 0.7626,0.4587 1.0098,0.8287 0.2472,0.37 0.3792,0.805 0.3792,1.25 -7e-4,0.5965 -0.2379,1.1685 -0.6597,1.5903 C 22.1685,15.5121 21.5965,15.7493 21,15.75 Z m 0,-3 c -0.1483,0 -0.2933,0.044 -0.4167,0.1264 -0.1233,0.0824 -0.2194,0.1995 -0.2762,0.3366 -0.0568,0.137 -0.0716,0.2878 -0.0427,0.4333 0.029,0.1455 0.1004,0.2791 0.2053,0.384 0.1049,0.1049 0.2385,0.1764 0.384,0.2053 0.1455,0.0289 0.2963,0.0141 0.4333,-0.0427 0.1371,-0.0568 0.2542,-0.1529 0.3366,-0.2762 C 21.706,13.7933 21.75,13.6483 21.75,13.5 21.7498,13.3012 21.6707,13.1105 21.5301,12.9699 21.3895,12.8293 21.1989,12.7502 21,12.75 Z m -18,3 C 2.55499,15.75 2.11998,15.618 1.74997,15.3708 1.37996,15.1236 1.09157,14.7722 0.921272,14.361 0.750975,13.9499 0.706417,13.4975 0.793234,13.061 0.880051,12.6246 1.09434,12.2237 1.40901,11.909 1.72368,11.5943 2.12459,11.3801 2.56105,11.2932 2.99751,11.2064 3.44991,11.251 3.86104,11.4213 4.27217,11.5916 4.62357,11.88 4.87081,12.25 5.11804,12.62 5.25,13.055 5.25,13.5 5.24935,14.0965 5.01208,14.6685 4.59027,15.0903 4.16845,15.5121 3.59654,15.7493 3,15.75 Z m 0,-3 c -0.14833,0 -0.29334,0.044 -0.41668,0.1264 -0.12333,0.0824 -0.21946,0.1995 -0.27623,0.3366 -0.05676,0.137 -0.07162,0.2878 -0.04268,0.4333 0.02894,0.1455 0.10037,0.2791 0.20526,0.384 0.10489,0.1049 0.23853,0.1764 0.38401,0.2053 0.14549,0.0289 0.29629,0.0141 0.43333,-0.0427 C 3.42406,14.1361 3.54119,14.04 3.6236,13.9167 3.70601,13.7933 3.75,13.6483 3.75,13.5 3.7498,13.3012 3.67072,13.1105 3.53011,12.9699 3.3895,12.8293 3.19885,12.7502 3,12.75 Z M 18.75,8.25 C 18.305,8.25 17.87,8.11804 17.5,7.87081 17.13,7.62357 16.8416,7.27217 16.6713,6.86104 16.501,6.4499 16.4564,5.99751 16.5432,5.56105 16.6301,5.12459 16.8443,4.72368 17.159,4.40901 c 0.3147,-0.31467 0.7156,-0.52896 1.152,-0.61578 0.4365,-0.08681 0.8889,-0.04226 1.3,0.12804 0.4112,0.1703 0.7626,0.45869 1.0098,0.8287 C 20.868,5.11998 21,5.55499 21,6 20.9993,6.59654 20.7621,7.16845 20.3403,7.59027 19.9185,8.01208 19.3465,8.24935 18.75,8.25 Z m 0,-3 c -0.1483,0 -0.2933,0.04399 -0.4167,0.1264 -0.1233,0.08241 -0.2194,0.19954 -0.2762,0.33659 -0.0568,0.13704 -0.0716,0.28784 -0.0427,0.43333 0.029,0.14548 0.1004,0.27912 0.2053,0.38401 0.1049,0.10489 0.2385,0.17632 0.384,0.20526 C 18.7492,6.76453 18.9,6.74968 19.037,6.69291 19.1741,6.63615 19.2912,6.54002 19.3736,6.41668 19.456,6.29334 19.5,6.14834 19.5,6 19.4998,5.80115 19.4207,5.6105 19.2801,5.46989 19.1395,5.32928 18.9489,5.2502 18.75,5.25 Z m -3,17.25 c -0.445,0 -0.88,-0.132 -1.25,-0.3792 -0.37,-0.2472 -0.6584,-0.5986 -0.8287,-1.0098 -0.1703,-0.4111 -0.2149,-0.8635 -0.1281,-1.3 0.0869,-0.4364 0.3011,-0.8373 0.6158,-1.152 0.3147,-0.3147 0.7156,-0.5289 1.152,-0.6158 0.4365,-0.0868 0.8889,-0.0422 1.3,0.1281 C 17.0222,18.3416 17.3736,18.63 17.6208,19 17.868,19.37 18,19.805 18,20.25 c -7e-4,0.5965 -0.2379,1.1685 -0.6597,1.5903 -0.4218,0.4218 -0.9938,0.659 -1.5903,0.6597 z m 0,-3 c -0.1483,0 -0.2933,0.044 -0.4167,0.1264 -0.1233,0.0824 -0.2194,0.1995 -0.2762,0.3366 -0.0568,0.137 -0.0716,0.2878 -0.0427,0.4333 0.029,0.1455 0.1004,0.2791 0.2053,0.384 0.1049,0.1049 0.2385,0.1764 0.384,0.2053 0.1455,0.0289 0.2963,0.0141 0.4333,-0.0427 0.1371,-0.0568 0.2542,-0.1529 0.3366,-0.2762 C 16.456,20.5433 16.5,20.3983 16.5,20.25 16.4998,20.0512 16.4207,19.8605 16.2801,19.7199 16.1395,19.5793 15.9489,19.5002 15.75,19.5 Z M 5.25,8.25 C 4.80499,8.25 4.36998,8.11804 3.99997,7.87081 3.62996,7.62357 3.34157,7.27217 3.17127,6.86104 3.00097,6.4499 2.95642,5.99751 3.04323,5.56105 3.13005,5.12459 3.34434,4.72368 3.65901,4.40901 3.97368,4.09434 4.37459,3.88005 4.81105,3.79323 5.24751,3.70642 5.6999,3.75097 6.11104,3.92127 6.52217,4.09157 6.87357,4.37996 7.12081,4.74997 7.36804,5.11998 7.5,5.55499 7.5,6 7.49935,6.59654 7.26208,7.16845 6.84027,7.59027 6.41845,8.01208 5.84654,8.24935 5.25,8.25 Z m 0,-3 C 5.10167,5.25 4.95666,5.29399 4.83332,5.3764 4.70999,5.45881 4.61386,5.57594 4.55709,5.71299 4.50033,5.85003 4.48547,6.00083 4.51441,6.14632 4.54335,6.2918 4.61478,6.42544 4.71967,6.53033 4.82456,6.63522 4.9582,6.70665 5.10368,6.73559 5.24917,6.76453 5.39997,6.74968 5.53701,6.69291 5.67406,6.63615 5.79119,6.54002 5.8736,6.41668 5.95601,6.29334 6,6.14834 6,6 5.9998,5.80115 5.92072,5.6105 5.78011,5.46989 5.6395,5.32928 5.44885,5.2502 5.25,5.25 Z m 3,17.25 C 7.80499,22.5 7.36998,22.368 6.99997,22.1208 6.62996,21.8736 6.34157,21.5222 6.17127,21.111 6.00097,20.6999 5.95642,20.2475 6.04323,19.811 6.13005,19.3746 6.34434,18.9737 6.65901,18.659 6.97368,18.3443 7.37459,18.1301 7.81105,18.0432 8.24751,17.9564 8.69991,18.001 9.11104,18.1713 9.52217,18.3416 9.87357,18.63 10.1208,19 10.368,19.37 10.5,19.805 10.5,20.25 10.4993,20.8465 10.2621,21.4185 9.84027,21.8403 9.41845,22.2621 8.84654,22.4993 8.25,22.5 Z m 0,-3 c -0.14833,0 -0.29334,0.044 -0.41668,0.1264 -0.12333,0.0824 -0.21946,0.1995 -0.27623,0.3366 -0.05676,0.137 -0.07162,0.2878 -0.04268,0.4333 0.02894,0.1455 0.10037,0.2791 0.20526,0.384 0.10489,0.1049 0.23853,0.1764 0.38401,0.2053 0.14549,0.0289 0.29629,0.0141 0.43333,-0.0427 C 8.67406,20.8861 8.79119,20.79 8.8736,20.6667 8.95601,20.5433 9,20.3983 9,20.25 8.9998,20.0512 8.92072,19.8605 8.78011,19.7199 8.6395,19.5793 8.44885,19.5002 8.25,19.5 Z M 12,5.25 C 11.555,5.25 11.12,5.11804 10.75,4.87081 10.38,4.62357 10.0916,4.27217 9.92127,3.86104 9.75097,3.44991 9.70642,2.99751 9.79323,2.56105 9.88005,2.12459 10.0943,1.72368 10.409,1.40901 10.7237,1.09434 11.1246,0.880051 11.561,0.793234 11.9975,0.706417 12.4499,0.750975 12.861,0.921272 13.2722,1.09157 13.6236,1.37996 13.8708,1.74997 14.118,2.11998 14.25,2.55499 14.25,3 14.2493,3.59654 14.0121,4.16845 13.5903,4.59027 13.1685,5.01208 12.5965,5.24935 12,5.25 Z m 0,-3 c -0.1483,0 -0.2933,0.04399 -0.4167,0.1264 -0.1233,0.08241 -0.2194,0.19954 -0.2762,0.33659 -0.0568,0.13704 -0.0716,0.28784 -0.0427,0.43333 0.029,0.14548 0.1004,0.27912 0.2053,0.38401 0.1049,0.10489 0.2385,0.17632 0.384,0.20526 C 11.9992,3.76453 12.15,3.74968 12.287,3.69291 12.4241,3.63615 12.5412,3.54002 12.6236,3.41668 12.706,3.29334 12.75,3.14834 12.75,3 12.7498,2.80115 12.6707,2.6105 12.5301,2.46989 12.3895,2.32928 12.1989,2.2502 12,2.25 Z"
     style="fill:#1a2633;fill-opacity:1" />
</svg>
