<svg width="24" height="24" viewBox="0 0 24 24" fill="none" xmlns="http://www.w3.org/2000/svg">
<path d="M12.75 19.5C10.0379 19.5 8.0004 17.7769 7.1658 15H14.25V13.5H6.84908C6.78325 13.0027 6.75016 12.5016 6.75 12C6.75 11.7525 6.7575 11.5019 6.76943 11.25H14.25V9.75H6.92782C7.38352 7.01437 8.8575 4.5 12.75 4.5C15.64 4.5 16.8986 5.73487 18.0962 7.86697L19.4039 7.13303C18.1987 4.9863 16.5584 3 12.75 3C7.9836 3 5.25 6.2805 5.25 12C5.25 17.2991 8.33408 21 12.75 21C16.5584 21 18.1987 19.0137 19.4039 16.867L18.0962 16.133C16.8986 18.2651 15.64 19.5 12.75 19.5Z" fill="#1A2633"/>
</svg>
