<?xml version="1.0" encoding="UTF-8" standalone="no"?>
<svg
   xmlns="http://www.w3.org/2000/svg"
   width="24"
   height="24"
   viewBox="0 0 24 24">
  <path
     style="fill:#1e2a35"
     d="m 12.843812,0.1881499 h -1.6876 V 12.00065 h 1.6876 z m 4.6406,3.15576 -0.8438,1.45969 c 1.7694,1.02156 3.1523,2.59842 3.9342,4.48605 0.7818,1.8876001 0.919,3.9804001 0.3902,5.9539001 -0.5288,1.9735 -1.694,3.7174 -3.3149,4.9612 -1.6209,1.2437 -3.607,1.9179 -5.6501,1.9179 -2.0431003,0 -4.0291503,-0.6742 -5.6500603,-1.9179 -1.62092,-1.2438 -2.78614,-2.9877 -3.31494,-4.9612 -0.52879,-1.9735 -0.39162,-4.0663 0.39025,-5.9539001 0.78187,-1.88763 2.16473,-3.46449 3.93413,-4.48605 l -0.84375,-1.45969 c -2.0911,1.2073 -3.7254,3.07086 -4.64943,5.30164 -0.92403003,2.2308001 -1.08614003,4.7042001 -0.46119,7.0365001 0.62494,2.3323 2.00201,4.3933 3.91764,5.8632 1.91563,1.4699 4.26275,2.2666 6.6773503,2.2666 2.4146,0 4.7617,-0.7967 6.6774,-2.2666 1.9156,-1.4699 3.2927,-3.5309 3.9176,-5.8632 0.6249,-2.3323 0.4628,-4.8057 -0.4612,-7.0365001 -0.924,-2.23078 -2.5583,-4.09434 -4.6494,-5.30164 z"
/>
</svg>
