<?xml version="1.0" encoding="UTF-8" standalone="no"?>
<svg
   xmlns="http://www.w3.org/2000/svg"
   width="24"
   height="24"
   viewBox="0 0 24 24">
  <path
     style="fill:#1e2a35"
     d="m 23.20515,11.745 c -0.86,-2.2401 -2.3564,-4.17973 -4.305,-5.58 l 3.6,-3.6075 L 21.44265,1.5 1.5001503,21.4425 l 1.0575,1.0575 3.825,-3.825 c 1.70541,1.0005 3.6404997,1.5431 5.6174997,1.575 2.4446,-0.0919 4.8087,-0.8982 6.8001,-2.3191 1.9914,-1.4209 3.5228,-3.3941 4.4049,-5.6759 0.0596,-0.1648 0.0596,-0.3452 0,-0.51 z M 15.00015,12 c -0.0032,0.5251 -0.1441,1.0401 -0.4087,1.4937 -0.2646,0.4535 -0.6436,0.8297 -1.0991,1.0908 -0.4555,0.2612 -0.9716,0.3982 -1.4967,0.3975 -0.5251,-8e-4 -1.0408,-0.1394 -1.4955,-0.402 l 4.08,-4.08 c 0.2696,0.4543 0.4145,0.9717 0.42,1.5 z m -3,6.75 C 10.42665,18.7225 8.8830703,18.316 7.5001502,17.565 l 1.905,-1.905 c 0.8664998,0.6012 1.9166998,0.879 2.9670998,0.7849 1.0504,-0.0942 2.0344,-0.5543 2.7802,-1.3001 0.7458,-0.7458 1.2059,-1.7298 1.3001,-2.7802 0.0941,-1.0504 -0.1837,-2.1006 -0.7849,-2.9671 l 2.1525,-2.1525 c 1.7209,1.18124 3.0667,2.8316 3.8775,4.755 -1.5225,3.8025 -5.7225,6.75 -9.6975,6.75 z M 8.9998003,11.7976 C 9.0519603,11.0789 9.3610703,10.403 9.8706102,9.89341 10.38015,9.38387 11.05605,9.07476 11.77485,9.0226 l 1.3575,-1.365 c -0.7607,-0.20029 -1.5606,-0.19769 -2.32,0.00755 -0.7593,0.20523 -1.4516398,0.60593 -2.0078498,1.16215 -0.55622,0.55621 -0.9569199,1.2485 -1.16215,2.0079 -0.20524,0.7593 -0.20784,1.5592 -0.00755,2.3199 z m -5.0699701,5.0849 1.0725001,-1.065 C 3.8279903,14.7631 2.9053102,13.4585 2.3023302,12 3.8248303,8.1975 8.0248302,5.25 11.99985,5.25 c 1.0229,0.0135 2.0366,0.19596 3,0.54 l 1.1625,-1.17 c -1.318,-0.55701 -2.7317,-0.85249 -4.1625,-0.87 -2.4446297,0.09193 -4.8087297,0.89817 -6.8001197,2.31906 -1.99139,1.4209 -3.52278,3.39418 -4.40489905,5.67594 -0.059575,0.1648 -0.059575,0.3452 0,0.51 0.66618905,1.7678 1.74031905,3.3533 3.13499895,4.6275 z"
     />
</svg>
