<?xml version="1.0" encoding="UTF-8" standalone="no"?>
<svg
   xmlns="http://www.w3.org/2000/svg"
   width="24"
   height="24"
   viewBox="0 0 24 24">
  <path
     style="fill:#1e2a35"
     d="m 12.0003,7.5 c -0.89,0 -1.76,0.26392 -2.5000597,0.75839 -0.74003,0.49446 -1.3168001,1.19727 -1.6574,2.01951 -0.34059,0.8223 -0.42971,1.7271 -0.25607,2.6 0.17363,0.8729 0.60222,1.6747 1.23155,2.3041 0.6293399,0.6293 1.4311797,1.0579 2.3040797,1.2315 0.8729,0.1737 1.7777,0.0846 2.6,-0.256 0.8222,-0.3406 1.525,-0.9174 2.0195,-1.6574 C 16.2364,13.76 16.5003,12.89 16.5003,12 c 0,-1.1935 -0.4741,-2.33807 -1.318,-3.18198 C 14.3384,7.97411 13.1938,7.5 12.0003,7.5 Z m 0,7.5 C 11.407,15 10.8269,14.8241 10.3336,14.4944 9.8402403,14.1648 9.4557302,13.6962 9.2286603,13.1481 c -0.22706,-0.5482 -0.28647,-1.1514 -0.17071,-1.7334 0.11575,-0.5819 0.40147,-1.1165 0.8210299,-1.53602 C 10.2985,9.45912 10.8331,9.1734 11.415,9.05764 c 0.582,-0.11575 1.1852,-0.05634 1.7334,0.17072 0.5481,0.22706 1.0167,0.61158 1.3463,1.10494 0.3297,0.4933 0.5056,1.0734 0.5056,1.6667 0,0.7957 -0.3161,1.5587 -0.8787,2.1213 C 13.559,14.6839 12.796,15 12.0003,15 Z M 23.205,11.745 C 22.3229,9.46324 20.7915,7.48996 18.8001,6.06906 16.8087,4.64817 14.4446,3.84193 12,3.75 9.5553703,3.84193 7.1912703,4.64817 5.1998803,6.06906 3.2084903,7.48996 1.6771002,9.46324 0.79498125,11.745 c -0.059575,0.1648 -0.059575,0.3452 0,0.51 0.88211895,2.2818 2.41350905,4.255 4.40489905,5.6759 1.99139,1.4209 4.35549,2.2272 6.8001197,2.3191 2.4446,-0.0919 4.8087,-0.8982 6.8001,-2.3191 1.9914,-1.4209 3.5228,-3.3941 4.4049,-5.6759 0.0596,-0.1648 0.0596,-0.3452 0,-0.51 z M 12,18.75 C 8.0249802,18.75 3.8249803,15.8025 2.3024802,12 3.8249803,8.1975 8.0249802,5.25 12,5.25 15.975,5.25 20.175,8.1975 21.6975,12 20.175,15.8025 15.975,18.75 12,18.75 Z"
/>
</svg>
