<?xml version="1.0" encoding="UTF-8" standalone="no"?>
<svg
   xmlns="http://www.w3.org/2000/svg"
   width="24"
   height="24"
   viewBox="0 0 24 24">
  <path
     d="M 20.0025,3 H 3.9975 C 3.733553,3.0019625 3.480974,3.107686 3.29433,3.29433 3.107686,3.480974 3.0019625,3.733553 3,3.9975 v 16.005 c 0.00196,0.2639 0.107686,0.5165 0.29433,0.7032 C 3.480974,20.8923 3.733553,20.998 3.9975,21 h 8.6175 v -6.96 h -2.34 v -2.7225 h 2.34 V 9.315 c 0,-2.325 1.4175,-3.5925 3.5025,-3.5925 0.6975,0 1.395,0 2.0925,0.105 V 8.25 h -1.4325 c -1.1325,0 -1.35,0.54 -1.35,1.3275 V 11.31 h 2.7 L 17.775,14.0325 H 15.4275 V 21 h 4.575 C 20.2664,20.998 20.519,20.8923 20.7057,20.7057 20.8923,20.519 20.998,20.2664 21,20.0025 V 3.9975 C 20.998,3.733553 20.8923,3.480974 20.7057,3.29433 20.519,3.107686 20.2664,3.0019625 20.0025,3 Z"
     style="fill:#1e2a35" />
</svg>
