<?xml version="1.0" encoding="UTF-8" standalone="no"?>
<svg
   xmlns="http://www.w3.org/2000/svg"
   width="24"
   height="24"
   viewBox="0 0 24 24">
  <path
     style="fill:#1e2a35"
     d="m 8.25,13.5 c -1.8,0 -3.3007812,1.275 -3.6757812,3 H 1.5 V 18 H 4.5742188 C 4.9492188,19.725 6.45,21 8.25,21 c 1.8,0 3.300781,-1.275 3.675781,-3 H 22.5 V 16.5 H 11.925781 C 11.550781,14.775 10.05,13.5 8.25,13.5 Z m 0,1.5 c 1.275,0 2.25,0.975 2.25,2.25 0,1.275 -0.975,2.25 -2.25,2.25 C 6.975,19.5 6,18.525 6,17.25 6,15.975 6.975,15 8.25,15 Z m 7.5,-12 c -1.8,0 -3.300781,1.275 -3.675781,3 H 1.5 v 1.5 h 10.574219 c 0.375,1.725 1.875781,3 3.675781,3 1.8,0 3.300781,-1.275 3.675781,-3 H 22.5 V 6 H 19.425781 C 19.050781,4.275 17.55,3 15.75,3 Z m 0,1.5 C 17.025,4.5 18,5.475 18,6.75 18,8.025 17.025,9 15.75,9 14.475,9 13.5,8.025 13.5,6.75 13.5,5.475 14.475,4.5 15.75,4.5 Z"
    />
</svg>
