<?xml version="1.0" encoding="UTF-8" standalone="no"?>
<svg
   xmlns="http://www.w3.org/2000/svg"
   width="24"
   height="24"
   viewBox="0 0 24 24">
  <path
     id="path4"
     style="fill:#1e2a35"
     d="M 11.99997,23.8125 4.8825296,15.4183 c -0.04042,-0.0482 -0.2938,-0.381 -0.2938,-0.381 -1.21592,-1.6015 -1.87285,-3.5577 -1.87,-5.5685 0,-2.46159 0.97784,-4.82231 2.71841,-6.56288 1.74058,-1.74058 4.10133,-2.71842 6.5628304,-2.71842 2.461499,0 4.822299,0.97784 6.562799,2.71842 1.7406,1.74057 2.7185,4.10129 2.7185,6.56288 0.003,2.0099 -0.6535,3.9654 -1.8688,5.5664 l -0.0012,0.0021 c 0,0 -0.2532,0.3328 -0.2909,0.3775 z M 5.9355296,14.0208 c 8.4e-4,6e-4 0.19693,0.26 0.24182,0.3159 l 5.8226204,6.8668 5.830299,-6.8765 c 0.0371,-0.0466 0.2348,-0.3079 0.2353,-0.3086 0.9933,-1.3086 1.5301,-2.9068 1.5282,-4.5496 0,-2.01404 -0.8001,-3.94554 -2.2242,-5.36964 -1.4241,-1.42411 -3.3556,-2.22416 -5.369599,-2.22416 -2.0140004,0 -3.9454804,0.80005 -5.3695804,2.22416 -1.42411,1.4241 -2.22416,3.3556 -2.22416,5.36964 -0.00187,1.6437 0.53534,3.2428 1.5293,4.552 z M 11.99997,13.6875 c -0.8344,0 -1.65,-0.2474 -2.3438004,-0.711 -0.6938,-0.4635 -1.23451,-1.1224 -1.55381,-1.8933 -0.31931,-0.7709 -0.40286,-1.6191 -0.24008,-2.4375 0.16279,-0.81834 0.56458,-1.57005 1.15459,-2.16005 0.59,-0.59001 1.3417004,-0.9918 2.1601004,-1.15459 0.8183,-0.16278 1.666599,-0.07923 2.437399,0.24008 0.7709,0.3193 1.4298,0.86003 1.8934,1.5538 0.4635,0.69377 0.711,1.50946 0.711,2.34386 -0.0013,1.1184 -0.4462,2.1908 -1.2371,2.9817 -0.7909,0.7908 -1.8632,1.2357 -2.981699,1.237 z m 0,-6.75 c -0.5006,0 -0.99,0.14846 -1.4063,0.42659 -0.4162,0.27814 -0.7407004,0.67347 -0.9323004,1.13601 -0.1916,0.4625 -0.2417,0.9715 -0.144,1.4625 0.0977,0.491 0.3387,0.942 0.6927004,1.296 0.354,0.354 0.8051,0.5951 1.2961,0.6928 0.491,0.0976 0.9999,0.0475 1.462499,-0.1441 0.4625,-0.1916 0.8578,-0.516 1.136,-0.9323 0.2781,-0.4162 0.4266,-0.9056 0.4266,-1.4062 -8e-4,-0.6712 -0.2677,-1.31456 -0.7422,-1.7891 C 13.314469,7.20516 12.67107,6.93824 11.99997,6.9375 Z"
/>
</svg>
