<svg width="24" height="24" viewBox="0 0 24 24" fill="none" xmlns="http://www.w3.org/2000/svg">
<path d="M17.5714 9.47682C17.5714 10.5133 17.2305 11.4715 16.5485 12.3514C15.8666 13.2313 14.9362 13.9267 13.7574 14.4375C12.5785 14.9482 11.2963 15.2036 9.91071 15.2036C9.28683 15.2036 8.64844 15.144 7.99554 15.0247C7.09598 15.6809 6.08762 16.1581 4.97042 16.4564C4.70926 16.5235 4.39732 16.5831 4.0346 16.6353H4.00195C3.92216 16.6353 3.84779 16.6055 3.77888 16.5459C3.70996 16.4862 3.66824 16.4079 3.65374 16.311C3.64648 16.2886 3.64286 16.2644 3.64286 16.2383C3.64286 16.2122 3.64467 16.1879 3.6483 16.1656C3.65192 16.1432 3.65918 16.1208 3.67006 16.0985L3.69727 16.0425C3.69727 16.0425 3.70996 16.022 3.73535 15.981C3.76074 15.94 3.77525 15.9214 3.77888 15.9251C3.7825 15.9288 3.79882 15.9102 3.82785 15.8692C3.85687 15.8281 3.87137 15.8114 3.87137 15.8188C3.90764 15.7741 3.99107 15.6809 4.12165 15.5392C4.25223 15.3975 4.34654 15.2875 4.40458 15.2092C4.46261 15.1309 4.54422 15.0228 4.64941 14.8849C4.75461 14.7469 4.84528 14.6034 4.92146 14.4542C4.99763 14.3051 5.07198 14.141 5.14453 13.9621C4.24497 13.4252 3.53766 12.7653 3.0226 11.9823C2.50754 11.1993 2.25 10.3642 2.25 9.47682C2.25 8.44032 2.59096 7.48213 3.27288 6.60223C3.9548 5.72232 4.88519 5.02698 6.06403 4.51619C7.24288 4.00539 8.52512 3.75 9.91071 3.75C11.2963 3.75 12.5785 4.00539 13.7574 4.51619C14.9362 5.02698 15.8666 5.72232 16.5485 6.60223C17.2305 7.48213 17.5714 8.44032 17.5714 9.47682ZM21.75 12.3402C21.75 13.235 21.4925 14.0721 20.9774 14.8513C20.4623 15.6305 19.755 16.2886 18.8555 16.8255C18.928 17.0045 19.0024 17.1685 19.0785 17.3176C19.1547 17.4668 19.2454 17.6103 19.3506 17.7483C19.4558 17.8862 19.5374 17.9943 19.5954 18.0726C19.6535 18.1509 19.7478 18.2609 19.8783 18.4026C20.0089 18.5443 20.0924 18.6375 20.1286 18.6822C20.1359 18.6897 20.1504 18.7065 20.1722 18.7326C20.1939 18.7587 20.2102 18.7773 20.2211 18.7885C20.232 18.7997 20.2465 18.8183 20.2646 18.8444C20.2828 18.8705 20.2955 18.891 20.3027 18.9059L20.3299 18.9619C20.3299 18.9619 20.3372 18.9842 20.3517 19.029C20.3662 19.0737 20.368 19.098 20.3571 19.1017C20.3463 19.1054 20.3426 19.1296 20.3463 19.1744C20.3245 19.2788 20.2773 19.3608 20.2048 19.4205C20.1323 19.4801 20.0525 19.5062 19.9654 19.4988C19.6027 19.4466 19.2907 19.3869 19.0296 19.3198C17.9124 19.0215 16.904 18.5443 16.0045 17.8881C15.3516 18.0074 14.7132 18.0671 14.0893 18.0671C12.1233 18.0671 10.4113 17.5749 8.95313 16.5906C9.37389 16.6204 9.69308 16.6353 9.91071 16.6353C11.0787 16.6353 12.1995 16.4676 13.2732 16.132C14.3468 15.7965 15.3044 15.3155 16.1459 14.6891C17.0527 14.0031 17.7492 13.2127 18.2352 12.3179C18.7213 11.423 18.9643 10.476 18.9643 9.47682C18.9643 8.90265 18.8809 8.33593 18.714 7.77667C19.6498 8.3061 20.3898 8.96976 20.9339 9.76764C21.478 10.5655 21.75 11.423 21.75 12.3402Z" fill="#1A2633"/>
</svg>
