<?xml version="1.0" encoding="UTF-8" standalone="no"?>
<svg
   xmlns="http://www.w3.org/2000/svg"
   width="24"
   height="24"
   viewBox="0 0 24 24">
  <path
     style="fill:#1e2a35"
     d="m 11.999998,1.499998 c -1.3988,2e-4 -2.7833101,0.28108 -4.0715801,0.82602 -1.28827,0.54494 -2.45409,1.34285 -3.42842,2.34648 v -3.1725 h -1.5 v 6 h 6 v -1.5 h -3.69 c 1.40702,-1.56353 3.31724,-2.58485 5.3989001,-2.8866 2.0816,-0.30174 4.2032,0.13516 5.9963,1.23483 1.7931,1.09967 3.1443,2.79263 3.8191,4.7848698 0.6748,1.9922002 0.6304,4.1579002 -0.1253,6.1208002 -0.7557,1.963 -2.1751,3.5992 -4.0117,4.6246 -1.8366,1.0254 -3.9742,1.3751 -6.0418,0.9884 -2.0675701,-0.3866 -3.9343901,-1.4853 -5.2762501,-3.1051 -1.34186,-1.6198 -2.074,-3.6584 -2.06925,-5.7618 h -1.5 c 0,2.0767 0.61581,4.1068 1.76957,5.8335 1.15375,1.7267 2.79363,3.0725 4.71225,3.8672 1.91863,0.7948 4.0297801,1.0027 6.0665801,0.5975 2.0368,-0.4051 3.9078,-1.4051 5.3762,-2.8736 1.4685,-1.4684 2.4685,-3.3394 2.8736,-5.3762 0.4052,-2.0368 0.1973,-4.1479502 -0.5975,-6.06658 -0.7947,-1.91862 -2.1405,-3.5585 -3.8672,-4.71225 -1.7267,-1.15376 -3.7568,-1.76957 -5.8335,-1.76957 z m 3.4425,15 -4.1925,-4.1925 v -7.0575 h 1.5 v 6.435 l 3.75,3.7575 z"
     />
</svg>
