<?xml version="1.0" encoding="UTF-8" standalone="no"?>
<svg
   xmlns="http://www.w3.org/2000/svg"
   width="24"
   height="24"
   viewBox="0 0 24 24">
  <path
     d="m 8.36674,12.34375 c -0.61407,0 -1.13149,-0.21198 -1.55224,-0.63594 -0.42075,-0.42396 -0.63113,-0.93958 -0.63113,-1.54687 0,-0.60729 0.21038,-1.12865 0.63113,-1.56407 0.42075,-0.43541 0.93817,-0.65312 1.55224,-0.65312 0.61407,0 1.13148,0.21771 1.55224,0.65312 0.42075,0.43542 0.63113,0.95678 0.63113,1.56407 0,0.60729 -0.21038,1.12291 -0.63113,1.54687 -0.42076,0.42396 -0.93817,0.63594 -1.55224,0.63594 z m 8.73346,-4.4 c 0.796,0 1.4783,0.28646 2.0469,0.85938 C 19.7157,9.37604 20,10.075 20,10.9 v 6.6 H 18.5672 V 15.3 H 5.46695 v 2.2 H 4 v -11 h 1.46695 v 6.6 h 5.79957 V 7.94375 Z"
     style="fill:#1e2a35" />
</svg>
