<?xml version="1.0" encoding="UTF-8" standalone="no"?>
<svg
   xmlns="http://www.w3.org/2000/svg"
   width="24"
   height="24"
   viewBox="0 0 24 24">
  <path
     style="fill:#1e2a35"
     d="m 12.000001,16.499998 c -0.2225,0 -0.44,0.066 -0.625,0.1896 -0.185,0.1236 -0.3292,0.2993 -0.4144,0.5049 -0.0851,0.2055 -0.1074,0.4317 -0.064,0.65 0.0434,0.2182 0.1506,0.4187 0.3079,0.576 0.1573,0.1573 0.3578,0.2645 0.576,0.3079 0.2183,0.0434 0.4445,0.0211 0.65,-0.064 0.2056,-0.0852 0.3813,-0.2294 0.5049,-0.4144 0.1236,-0.185 0.1896,-0.4025 0.1896,-0.625 0,-0.2984 -0.1185,-0.5845 -0.3295,-0.7955 -0.211,-0.211 -0.4971,-0.3295 -0.7955,-0.3295 z m 0.75,-10.5 h -1.5 v 8.25 h 1.5 z m -0.75,-4.5 c -2.0767004,0 -4.1067704,0.61581 -5.8334804,1.76957 -1.72672,1.15375 -3.07253,2.79363 -3.86725,4.71225 -0.79472,1.9186298 -1.00266,4.02978 -0.59751,6.06658 0.40514,2.0368 1.40517,3.9078 2.87362,5.3762 1.46845,1.4685 3.33938,2.4685 5.37618,2.8736 2.0368404,0.4052 4.1480404,0.1973 6.0666404,-0.5975 1.9186,-0.7947 3.5585,-2.1405 4.7122,-3.8672 1.1538,-1.7267 1.7696,-3.7568 1.7696,-5.8335 0,-2.7847702 -1.1062,-5.45549 -3.0754,-7.42462 -1.9691,-1.96913 -4.6398,-3.07538 -7.4246,-3.07538 z m 0,19.5 c -1.78,0 -3.5200804,-0.5278 -5.0001304,-1.5168 -1.48004,-0.9889 -2.63359,-2.3945 -3.31478,-4.039 -0.68119,-1.6446 -0.85942,-3.4542 -0.51215,-5.2 0.34726,-1.74584 1.20443,-3.34949 2.4631,-4.60816 1.25868,-1.25867 2.86232,-2.11584 4.6081604,-2.46311 1.7458,-0.34726 3.5554,-0.16903 5.2,0.51215 1.6445,0.68119 3.0501,1.83475 4.039,3.31479 0.989,1.48004 1.5168,3.22013 1.5168,5.00013 0,2.3869 -0.9482,4.6761 -2.636,6.364 -1.6879,1.6878 -3.977,2.636 -6.364,2.636 z"
     />
</svg>
