<?xml version="1.0" encoding="UTF-8" standalone="no"?>
<svg
   xmlns="http://www.w3.org/2000/svg"
   width="24"
   height="24"
   viewBox="0 0 24 24">
  <path
     d="M 12,3 C 9.55575,3 9.24927,3.0103602 8.28932,3.0541603 7.33136,3.0978604 6.67717,3.250001 6.10467,3.472501 5.51282,3.702481 5.0109,4.01022 4.51055,4.51058 4.01025,5.0109 3.702472,5.51284 3.472501,6.10464 3.250026,6.67714 3.0978602,7.33137 3.0541381,8.28933 3.0103741,9.24927 3,9.55575 3,12.00001 c 0,2.44429 0.010374,2.75079 0.054138,3.71069 0.043722,0.958 0.1958879,1.6122 0.4183629,2.1847 0.229971,0.5918 0.537749,1.0937 1.038049,1.594 0.50035,0.5004 1.00227,0.8081 1.59412,1.0381 0.5725,0.2225 1.22669,0.3747 2.18465,0.4184 C 9.24927,20.9897 9.55575,21 12,21 c 2.4443,0 2.7507,-0.0103 3.7107,-0.0541 0.9579,-0.0437 1.6122,-0.1959 2.1846,-0.4184 0.5919,-0.23 1.0938,-0.5377 1.5942,-1.0381 0.5003,-0.5003 0.808,-1.0022 1.038,-1.594 0.2225,-0.5725 0.3746,-1.2267 0.4184,-2.1847 C 20.9897,14.7508 21,14.4443 21,12.00001 21,9.55575 20.9897,9.24927 20.9459,8.28933 20.9021,7.33137 20.75,6.67714 20.5275,6.10464 20.2975,5.51284 19.9898,5.0109 19.4895,4.51058 18.9891,4.01022 18.4872,3.702481 17.8953,3.472501 17.3229,3.250001 16.6686,3.0978604 15.7107,3.0541603 14.7507,3.0103602 14.4443,3 12,3 Z m 0,1.9968 c 2.2809,0 2.5511,0.0087 3.4518,0.0498 0.8329,0.038 1.2852,0.17716 1.5863,0.29414 0.3987,0.15496 0.6833,0.3401 0.9822,0.639 0.2989,0.29892 0.484,0.58348 0.639,0.98222 0.117,0.30103 0.2561,0.75333 0.2941,1.58619 0.0411,0.90078 0.0498,1.17096 0.0498,3.45186 0,2.28089 -0.0087,2.55109 -0.0498,3.45189 -0.038,0.8328 -0.1771,1.2851 -0.2941,1.5862 -0.155,0.3987 -0.3401,0.6833 -0.639,0.9822 -0.2989,0.2989 -0.5835,0.484 -0.9822,0.639 -0.3011,0.117 -0.7534,0.2561 -1.5863,0.2941 -0.9006,0.0411 -1.1707,0.0498 -3.4518,0.0498 -2.28106,0 -2.55123,-0.0087 -3.45184,-0.0498 C 7.7153,18.9154 7.26296,18.7763 6.96195,18.6593 6.56324,18.5043 6.27867,18.3192 5.97974,18.0203 5.68084,17.7214 5.49571,17.4368 5.34075,17.0381 5.22378,16.737 5.08461,16.2847 5.0466,15.4519 5.0055,14.5511 4.99681,14.2809 4.99681,12.00001 4.99681,9.71911 5.0055,9.44893 5.0466,8.54817 5.08461,7.71529 5.22378,7.26299 5.34075,6.96196 5.49571,6.56322 5.68084,6.27866 5.97974,5.97974 6.27867,5.68084 6.56324,5.4957 6.96195,5.34074 7.26296,5.22376 7.7153,5.0846 8.54816,5.0466 9.44892,5.0055 9.71911,4.9968 12,4.9968 Z m 4.5036,3.73361 c 0.6887,0 1.2467,-0.5641 1.2467,-1.25988 0,-0.69581 -0.558,-1.25989 -1.2467,-1.25989 -0.6886,0 -1.2468,0.56408 -1.2468,1.25989 0,0.69578 0.5582,1.25988 1.2468,1.25988 z M 11.99994,8.00293 c -2.2075,0 -3.99708,1.78956 -3.99708,3.99708 0,2.20749 1.78958,3.99709 3.99708,3.99709 2.20756,0 3.99706,-1.7896 3.99706,-3.99709 0,-2.20752 -1.7895,-3.99708 -3.99706,-3.99708 z m -2.00063,3.99708 c 0,1.10489 0.89571,2.00069 2.00063,2.00069 1.10496,0 2.00066,-0.8958 2.00066,-2.00069 0,-1.10492 -0.8957,-2.00066 -2.00066,-2.00066 -1.10492,0 -2.00063,0.89574 -2.00063,2.00066 z"
     style="clip-rule:evenodd;fill:#1e2a35;fill-rule:evenodd" />
</svg>
