<svg
   xmlns="http://www.w3.org/2000/svg"
   width="24"
   height="24"
   viewBox="0 0 24 24">
  <path
     d="M 19.5,8.625 H 15 v -4.5 C 14.9993,3.52846 14.7621,2.95655 14.3403,2.534733 13.9185,2.112918 13.3465,1.875655 12.75,1.875 H 11.1504 C 10.7897,1.876446 10.44149,2.007212 10.169,2.243547 9.89652,2.479881 9.71783,2.80611 9.6654,3.16297 L 9.03142,7.60035 6.3486,11.625 H 1.5 v 10.5 h 15.75 c 1.3919,-0.0015 2.7264,-0.5552 3.7106,-1.5394 0.9842,-0.9842 1.5379,-2.3187 1.5394,-3.7106 v -5.25 C 22.4991,10.82963 22.1828,10.06708 21.6203,9.50467 21.0579,8.94225 20.2954,8.62589 19.5,8.625 Z M 6,20.625 H 3 v -7.5 h 3 z m 15,-3.75 c -0.0011,0.9942 -0.3966,1.9474 -1.0996,2.6504 -0.703,0.703 -1.6562,1.0985 -2.6504,1.0996 H 7.5 V 12.602 L 10.46835,8.14965 11.1504,3.375 H 12.75 c 0.1989,1.6e-4 0.3895,0.07923 0.5302,0.21985 0.1406,0.14061 0.2196,0.33129 0.2198,0.53015 v 6 h 6 c 0.3977,5e-4 0.7789,0.15869 1.0601,0.43989 0.2812,0.2812 0.4394,0.66244 0.4399,1.06011 z"
     style="fill:#000000"
/>
</svg>
