<svg
   xmlns="http://www.w3.org/2000/svg"
   width="24"
   height="24"
   viewBox="0 0 24 24">
  <path
     style="fill:#1a2633"
     d="M 17.25,22.125 H 6.75 V 11.023 L 9.03165,7.60035 9.66562,3.16297 C 9.71805,2.80615 9.8967,2.47995 10.1691,2.24362 10.4416,2.00729 10.7897,1.8765 11.1504,1.875 H 11.25 c 0.5965,6.6e-4 1.1685,0.23792 1.5903,0.65973 0.4218,0.42182 0.659,0.99373 0.6597,1.59027 v 4.5 h 6 c 0.7954,8.9e-4 1.5579,0.31725 2.1203,0.87967 0.5624,0.56243 0.8788,1.32493 0.8797,2.12033 v 5.25 c -0.0015,1.3919 -0.5552,2.7264 -1.5394,3.7106 -0.9842,0.9842 -2.3187,1.5379 -3.7106,1.5394 z m -12,-10.5 H 1.5 v 10.5 h 3.75 z"
/>
</svg>
