<svg
   xmlns="http://www.w3.org/2000/svg"
   width="24"
   height="24"
   viewBox="0 0 24 24">
  <path
     style="fill:#1e2a35"
     d="m 3.1478743,18.241484 c -0.28005,-0.2788 -0.50228,-0.6101 -0.65392,-0.975 -0.15163,-0.3649 -0.2297,-0.7561 -0.2297,-1.1513 0,-0.3951 0.07807,-0.7864 0.2297,-1.1513 0.15164,-0.3648 0.37387,-0.6962 0.65392,-0.9749 l 6,-6.0000302 c 0.27876,-0.28006 0.6101,-0.50229 0.9749497,-0.65393 0.3649,-0.15163 0.7562,-0.22969 1.1513,-0.22969 0.3951,0 0.7864,0.07806 1.1513,0.22969 0.3649,0.15164 0.6962,0.37387 0.975,0.65393 0.2782,0.28095 0.4973,0.6149 0.6442,0.98206 0.1468,0.36716 0.2185,0.76007 0.2108,1.1554702 0.0022,0.3966 -0.0741,0.7897 -0.2248,1.1566 -0.1506,0.3669 -0.3724,0.7003 -0.6527,0.9809 l -1.59,1.6125 1.065,1.065 1.59,-1.59 c 0.8463,-0.8464 1.3218,-1.9943 1.3218,-3.1913 0,-1.1969302 -0.4755,-2.3448602 -1.3218,-3.1912302 -0.8464,-0.8463796 -1.9943,-1.3218596 -3.1913,-1.3218596 -1.1969,0 -2.3448697,0.47548 -3.1912497,1.3218596 l -5.99999,6.0000302 c -0.42065,0.4182 -0.75447,0.9154 -0.98226,1.4631 -0.22779301,0.5477 -0.34506101,1.135 -0.34506101,1.7281 0,0.5932 0.117268,1.1805 0.34506101,1.7282 0.22779,0.5476 0.56161,1.0449 0.98226,1.4631 0.85411,0.8313 2.00317,1.2899 3.195,1.275 1.20232,0.0011 2.35628,-0.4734 3.21,-1.32 l -1.06501,-1.065 c -0.27875,0.28 -0.61009,0.5023 -0.97497,0.6539 -0.36489,0.1516 -0.75613,0.2297 -1.15127,0.2297 -0.39514,0 -0.78639,-0.0781 -1.15128,-0.2297 -0.36488,-0.1516 -0.69622,-0.3739 -0.97498,-0.6539 z M 21.943324,4.6967142 c -0.4181,-0.41952 -0.9148,-0.75239 -1.4618,-0.97951 -0.547,-0.22712 -1.1334,-0.34404 -1.7257,-0.34404 -0.5923,0 -1.1787,0.11692 -1.7257,0.34404 -0.547,0.22712 -1.0437,0.55999 -1.4618,0.97951 l 1.065,1.065 c 0.2792,-0.27922 0.6107,-0.50071 0.9755,-0.65183 0.3649,-0.15111 0.7559,-0.22889 1.1508,-0.22889 0.3948,0 0.7859,0.07778 1.1507,0.22889 0.3648,0.15112 0.6963,0.37261 0.9755,0.65183 0.2792,0.27922 0.5007,0.61071 0.6518,0.9755296 0.1512,0.36482 0.2289,0.75584 0.2289,1.15072 0,0.39488 -0.0777,0.7859 -0.2289,1.15072 -0.1511,0.36482 -0.3726,0.6963 -0.6518,0.9755002 l -6,6 c -0.5629,0.5639 -1.3268,0.8811 -2.1236,0.8818 -0.7968,8e-4 -1.5612,-0.3151 -2.1251,-0.878 -0.564,-0.5629 -0.8811597,-1.3268 -0.8818597,-2.1236 -7.1e-4,-0.7968 0.3151597,-1.5613 0.8780597,-2.1252 l 1.0575,-1.065 -1.0575,-1.0650002 -1.0649897,1.0650002 c -0.41952,0.4181 -0.75239,0.9149 -0.97951,1.4618 -0.22713,0.547 -0.34404,1.1335 -0.34404,1.7257 0,0.5923 0.11691,1.1787 0.34404,1.7257 0.22712,0.547 0.55999,1.0438 0.97951,1.4618 0.8485897,0.8378 1.9950897,1.3044 3.1874897,1.2975 0.5945,0.0025 1.1837,-0.1129 1.7334,-0.3395 0.5496,-0.2266 1.049,-0.5598 1.4691,-0.9805 l 6,-6 c 0.8407,-0.8457 1.3114,-1.9905702 1.3086,-3.1830702 -0.0029,-1.19251 -0.4789,-2.3351396 -1.3236,-3.1768996 z"
/>
</svg>
