<?xml version="1.0" encoding="UTF-8" standalone="no"?>
<svg
   xmlns="http://www.w3.org/2000/svg"
   width="24"
   height="24"
   viewBox="0 0 24 24">
  <path
     d="M 7.5,21 H 3 C 2.60232,20.9995 2.22105,20.8414 1.93984,20.5602 1.65864,20.279 1.50046,19.8977 1.5,19.5 V 15 C 1.50046,14.6023 1.65864,14.221 1.93984,13.9398 2.22105,13.6586 2.60232,13.5005 3,13.5 h 4.5 c 0.39768,5e-4 0.77895,0.1586 1.06016,0.4398 C 8.84136,14.221 8.99954,14.6023 9,15 v 4.5 C 8.99954,19.8977 8.84136,20.279 8.56016,20.5602 8.27895,20.8414 7.89768,20.9995 7.5,21 Z M 3,15 v 4.5 H 7.5009 L 7.5,15 Z M 7.5,10.5 H 3 C 2.60232,10.4995 2.22105,10.3414 1.93984,10.0602 1.65864,9.77895 1.50046,9.39768 1.5,9 V 4.5 C 1.50046,4.10232 1.65864,3.72105 1.93984,3.43984 2.22105,3.15864 2.60232,3.00046 3,3 H 7.5 C 7.89768,3.00046 8.27895,3.15864 8.56016,3.43984 8.84136,3.72105 8.99954,4.10232 9,4.5 V 9 C 8.99954,9.39768 8.84136,9.77895 8.56016,10.0602 8.27895,10.3414 7.89768,10.4995 7.5,10.5 Z M 3,4.5 V 9 H 7.5009 L 7.5,4.5 Z m 19.5,12 H 12 V 18 H 22.5 Z M 22.5,6 H 12 v 1.5 h 10.5 z"
     style="fill:#1a2633;fill-opacity:1" />
</svg>
