<?xml version="1.0" encoding="UTF-8" standalone="no"?>
<svg
   xmlns="http://www.w3.org/2000/svg"
   width="24.000008"
   height="24"
   viewBox="0 0 24.000008 24">
  <path
     style="clip-rule:evenodd;fill:#1e2a35;fill-rule:evenodd"
     d="m 17.2807,22.817913 6.6268,-20.3089201 -0.0048,-0.00624 c 0.211,-0.66154 0.0801,-1.4239 -0.4049,-1.95246 -0.8392,-0.91453 -1.8771,-0.41334 -1.8788,-0.41238 -9.9211,4.05037 -11.8995996,18.1554001 -7.1687,23.3094001 0.6762,0.7369 1.7722,0.7369 2.4484,0 0.1705,-0.1853 0.2974,-0.4004 0.382,-0.6294 z M 6.6996004,14.000013 C 8.4248004,5.2803129 15,2.0000129 15,2.0000129 c 0,0 -10.3237496,3.73896 -13.7704496,4.9694 -0.25186999,0.0895 -0.49018999,0.2284 -0.69158999,0.4314 -0.71728,0.7223 -0.71728,1.8939 0,2.6163001 0.07897,0.0796 0.16449,0.1465 0.2528,0.2081 z"
/>
</svg>
