<svg
   xmlns="http://www.w3.org/2000/svg"
   width="24"
   height="24"
   viewBox="0 0 24 24">
  <path
     d="M 21,4.5 H 3 C 2.60218,4.5 2.22064,4.658035 1.93934,4.93934 1.658035,5.22064 1.5,5.60218 1.5,6 v 12 c 0,0.3978 0.158035,0.7794 0.43934,1.0607 C 2.22064,19.342 2.60218,19.5 3,19.5 h 18 c 0.3978,0 0.7794,-0.158 1.0607,-0.4393 C 22.342,18.7794 22.5,18.3978 22.5,18 V 6 C 22.5,5.60218 22.342,5.22064 22.0607,4.93934 21.7794,4.658035 21.3978,4.5 21,4.5 Z M 19.35,6 12,11.085 4.65,6 Z M 3,18 V 6.6825 l 8.5725,5.9325 c 0.1255,0.0871 0.2747,0.13377 0.4275,0.13377 0.1528,0 0.302,-0.04667 0.4275,-0.13377 L 21,6.6825 V 18 Z"

     style="fill:#1e2a35" />
</svg>
