<svg
   xmlns="http://www.w3.org/2000/svg"
   width="24"
   height="24"
   viewBox="0 0 24 24">
  <path
     style="fill:#1e2a35"
     d="M 13.5,11.25 H 6 v 1.5 h 7.5 z M 18,6.75 H 6 v 1.5 h 12 z m -4.695,15 L 12,21 15,15.75 h 4.5 c 0.3978,0 0.7794,-0.158 1.0607,-0.4393 C 20.842,15.0294 21,14.6478 21,14.25 v -9 C 21,4.85218 20.842,4.47064 20.5607,4.18934 20.2794,3.90804 19.8978,3.75 19.5,3.75 H 4.5 C 4.10218,3.75 3.72064,3.90804 3.43934,4.18934 3.15804,4.47064 3,4.85218 3,5.25 v 9 c 0,0.3978 0.15804,0.7794 0.43934,1.0607 C 3.72064,15.592 4.10218,15.75 4.5,15.75 h 6.75 v 1.5 H 4.5 C 3.70435,17.25 2.94129,16.9339 2.37868,16.3713 1.81607,15.8087 1.5,15.0456 1.5,14.25 v -9 C 1.5,4.45435 1.81607,3.69129 2.37868,3.12868 2.94129,2.56607 3.70435,2.25 4.5,2.25 h 15 c 0.7956,0 1.5587,0.31607 2.1213,0.87868 C 22.1839,3.69129 22.5,4.45435 22.5,5.25 v 9 c 0,0.7956 -0.3161,1.5587 -0.8787,2.1213 C 21.0587,16.9339 20.2956,17.25 19.5,17.25 h -3.63 z"
/>
</svg>
