<svg
   xmlns="http://www.w3.org/2000/svg"
   width="24"
   height="24"
   viewBox="0 0 24 24">
  <path
     style="fill:#1a2633"
     d="M 21,15 H 3 C 2.60249,14.999 2.22154,14.8406 1.94046,14.5595 1.65937,14.2785 1.50101,13.8975 1.5,13.5 v -9 C 1.50101,4.10249 1.65937,3.72154 1.94046,3.44046 2.22154,3.15937 2.60249,3.00101 3,3 h 18 c 0.3975,0.00101 0.7785,0.15937 1.0595,0.44046 C 22.3406,3.72154 22.499,4.10249 22.5,4.5 v 9 c -5e-4,0.3977 -0.1587,0.7789 -0.4399,1.0601 C 21.7789,14.8413 21.3977,14.9995 21,15 Z M 21,4.5 H 3 v 9 H 21 Z M 6,7.5 C 5.70333,7.5 5.41332,7.58797 5.16665,7.7528 4.91997,7.91762 4.72771,8.15189 4.61418,8.42598 4.50065,8.70006 4.47094,9.00166 4.52882,9.29264 4.5867,9.58361 4.72956,9.85088 4.93934,10.0607 c 0.20978,0.2097 0.47705,0.3526 0.76803,0.4105 0.29097,0.0579 0.59257,0.0282 0.86666,-0.0854 C 6.84812,10.2723 7.08238,10.08 7.24721,9.83336 7.41203,9.58668 7.5,9.29667 7.5,9 7.5,8.60218 7.34197,8.22064 7.06066,7.93934 6.77936,7.65804 6.39783,7.5 6,7.5 Z M 12,12 C 11.4067,12 10.8266,11.8241 10.3333,11.4944 9.83994,11.1648 9.45543,10.6962 9.22836,10.1481 9.0013,9.59987 8.94189,8.99667 9.05765,8.41473 9.1734,7.83279 9.45912,7.29824 9.87868,6.87868 10.2982,6.45912 10.8328,6.1734 11.4147,6.05765 11.9967,5.94189 12.5999,6.0013 13.1481,6.22836 13.6962,6.45543 14.1648,6.83994 14.4944,7.33329 14.8241,7.82664 15,8.40666 15,9 14.9991,9.79538 14.6828,10.5579 14.1203,11.1203 13.5579,11.6828 12.7954,11.9991 12,12 Z m 0,-4.5 c -0.2967,0 -0.5867,0.08798 -0.8334,0.2528 -0.2466,0.16482 -0.4389,0.39909 -0.5524,0.67318 -0.1135,0.27409 -0.1433,0.57569 -0.0854,0.86666 0.0579,0.29097 0.2008,0.55824 0.4105,0.76806 0.2098,0.2097 0.4771,0.3526 0.7681,0.4105 0.2909,0.0579 0.5925,0.0282 0.8666,-0.0854 C 12.8481,10.2723 13.0824,10.08 13.2472,9.83336 13.412,9.58668 13.5,9.29667 13.5,9 13.4996,8.6023 13.3414,8.221 13.0602,7.93978 12.779,7.65856 12.3977,7.5004 12,7.5 Z m 6,0 c -0.2967,0 -0.5867,0.08797 -0.8334,0.2528 -0.2466,0.16482 -0.4389,0.39909 -0.5524,0.67318 -0.1136,0.27408 -0.1433,0.57568 -0.0854,0.86666 0.0579,0.29097 0.2008,0.55824 0.4105,0.76806 0.2098,0.2097 0.4771,0.3526 0.7681,0.4105 0.2909,0.0579 0.5925,0.0282 0.8666,-0.0854 C 18.8481,10.2723 19.0824,10.08 19.2472,9.83336 19.412,9.58668 19.5,9.29667 19.5,9 19.5,8.60218 19.342,8.22064 19.0607,7.93934 18.7794,7.65804 18.3978,7.5 18,7.5 Z m 4.5,12 H 1.5 V 21 h 21 z m 0,-3 H 1.5 V 18 h 21 z"
/>
</svg>
