<svg width="24" height="24" viewBox="0 0 24 24" fill="none" xmlns="http://www.w3.org/2000/svg">
<path d="M18.75 3H7.5C7.1023 3.0004 6.721 3.15856 6.43978 3.43978C6.15856 3.721 6.0004 4.1023 6 4.5V15.4172C5.54607 15.1471 5.02823 15.003 4.5 15C3.90666 15 3.32664 15.1759 2.83329 15.5056C2.33994 15.8352 1.95543 16.3038 1.72836 16.8519C1.5013 17.4001 1.44189 18.0033 1.55765 18.5853C1.6734 19.1672 1.95912 19.7018 2.37868 20.1213C2.79824 20.5409 3.33279 20.8266 3.91473 20.9424C4.49667 21.0581 5.09987 20.9987 5.64805 20.7716C6.19623 20.5446 6.66477 20.1601 6.99441 19.6667C7.32405 19.1734 7.5 18.5933 7.5 18V9H18.75V15.4172C18.2961 15.147 17.7782 15.003 17.25 15C16.6567 15 16.0766 15.1759 15.5833 15.5056C15.0899 15.8352 14.7054 16.3038 14.4784 16.8519C14.2513 17.4001 14.1919 18.0033 14.3076 18.5853C14.4234 19.1672 14.7091 19.7018 15.1287 20.1213C15.5482 20.5409 16.0828 20.8266 16.6647 20.9424C17.2467 21.0581 17.8499 20.9987 18.3981 20.7716C18.9462 20.5446 19.4148 20.1601 19.7444 19.6667C20.0741 19.1734 20.25 18.5933 20.25 18V4.5C20.2495 4.10232 20.0914 3.72105 19.8102 3.43984C19.529 3.15864 19.1477 3.00046 18.75 3ZM4.5 19.5C4.20333 19.5 3.91332 19.412 3.66665 19.2472C3.41997 19.0824 3.22771 18.8481 3.11418 18.574C3.00065 18.2999 2.97095 17.9983 3.02882 17.7074C3.0867 17.4164 3.22956 17.1491 3.43934 16.9393C3.64912 16.7296 3.91639 16.5867 4.20737 16.5288C4.49834 16.4709 4.79994 16.5006 5.07403 16.6142C5.34812 16.7277 5.58238 16.92 5.74721 17.1666C5.91203 17.4133 6 17.7033 6 18C5.99955 18.3977 5.84136 18.779 5.56016 19.0602C5.27895 19.3414 4.89769 19.4995 4.5 19.5ZM17.25 19.5C16.9533 19.5 16.6633 19.412 16.4166 19.2472C16.17 19.0824 15.9777 18.8481 15.8642 18.574C15.7507 18.2999 15.7209 17.9983 15.7788 17.7074C15.8367 17.4164 15.9796 17.1491 16.1893 16.9393C16.3991 16.7296 16.6664 16.5867 16.9574 16.5288C17.2483 16.4709 17.5499 16.5006 17.824 16.6142C18.0981 16.7277 18.3324 16.92 18.4972 17.1666C18.662 17.4133 18.75 17.7033 18.75 18C18.7495 18.3977 18.5913 18.7789 18.3101 19.0601C18.0289 19.3413 17.6477 19.4995 17.25 19.5ZM7.5 4.5H18.75V7.5H7.5V4.5Z" fill="#1A2633"/>
</svg>
