<svg
   xmlns="http://www.w3.org/2000/svg"
   width="24"
   height="24"
   viewBox="0 0 24 24">
  <path
     style="fill:#000000"
     d="m 14.25,2.25 v 1.5 h 4.9395 L 12.75,10.1895 13.8105,11.25 20.25,4.8105 V 9.75 h 1.5 v -7.5 z m 4.5,19.5 h -15 C 3.35234,21.7495 2.97112,21.5913 2.68993,21.3101 2.40874,21.0289 2.25054,20.6477 2.25,20.25 v -15 C 2.25054,4.85234 2.40874,4.47112 2.68993,4.18993 2.97112,3.90874 3.35234,3.75054 3.75,3.75 h 7.5 v 1.5 h -7.5 v 15 h 15 v -7.5 h 1.5 v 7.5 c -5e-4,0.3977 -0.1587,0.7789 -0.4399,1.0601 -0.2812,0.2812 -0.6624,0.4394 -1.0601,0.4399 z"
/>
</svg>
