<svg
   xmlns="http://www.w3.org/2000/svg"
   width="24"
   height="24"
   viewBox="0 0 24 24">
  <path
     d="m 19.5,22.5 h -3 c -0.3978,0 -0.7794,-0.158 -1.0607,-0.4393 C 15.158,21.7794 15,21.3978 15,21 v -5.25 h 1.5 V 21 h 3 V 14.25 H 21 V 9.75 C 21,9.55109 20.921,9.36032 20.7803,9.21967 20.6397,9.07902 20.4489,9 20.25,9 H 15.435 L 12,15 8.565,9 H 3.75 C 3.55109,9 3.36032,9.07902 3.21967,9.21967 3.07902,9.36032 3,9.55109 3,9.75 v 4.5 H 4.5 V 21 h 3 V 15.75 H 9 V 21 C 9,21.3978 8.84196,21.7794 8.56066,22.0607 8.27936,22.342 7.89782,22.5 7.5,22.5 h -3 C 4.10218,22.5 3.72064,22.342 3.43934,22.0607 3.15804,21.7794 3,21.3978 3,21 V 15.75 C 2.60218,15.75 2.22064,15.592 1.93934,15.3107 1.65804,15.0294 1.5,14.6478 1.5,14.25 V 9.75 C 1.5,9.15326 1.73705,8.58097 2.15901,8.15901 2.58097,7.73705 3.15326,7.5 3.75,7.5 H 9.435 L 12,12 14.565,7.5 h 5.685 c 0.5967,0 1.169,0.23705 1.591,0.65901 C 22.2629,8.58097 22.5,9.15326 22.5,9.75 v 4.5 c 0,0.3978 -0.158,0.7794 -0.4393,1.0607 C 21.7794,15.592 21.3978,15.75 21,15.75 V 21 c 0,0.3978 -0.158,0.7794 -0.4393,1.0607 C 20.2794,22.342 19.8978,22.5 19.5,22.5 Z M 18,6.75 C 17.4067,6.75 16.8266,6.57405 16.3333,6.24441 15.8399,5.91477 15.4554,5.44623 15.2284,4.89805 15.0013,4.34987 14.9419,3.74667 15.0576,3.16473 15.1734,2.58279 15.4591,2.04824 15.8787,1.62868 16.2982,1.20912 16.8328,0.923401 17.4147,0.807646 17.9967,0.69189 18.5999,0.7513 19.1481,0.978363 19.6962,1.20543 20.1648,1.58994 20.4944,2.08329 20.8241,2.57664 21,3.15666 21,3.75 21,4.54565 20.6839,5.30871 20.1213,5.87132 19.5587,6.43393 18.7957,6.75 18,6.75 Z m 0,-4.5 c -0.2967,0 -0.5867,0.08797 -0.8334,0.2528 -0.2466,0.16482 -0.4389,0.39909 -0.5524,0.67318 -0.1135,0.27409 -0.1433,0.57569 -0.0854,0.86666 0.0579,0.29097 0.2008,0.55824 0.4105,0.76802 0.2098,0.20978 0.4771,0.35264 0.7681,0.41052 0.2909,0.05788 0.5925,0.02817 0.8666,-0.08536 C 18.8481,5.02229 19.0824,4.83003 19.2472,4.58336 19.412,4.33668 19.5,4.04667 19.5,3.75 19.5,3.35218 19.342,2.97065 19.0607,2.68934 18.7794,2.40804 18.3978,2.25 18,2.25 Z M 6,6.75 C 5.40666,6.75 4.82664,6.57405 4.33329,6.24441 3.83994,5.91477 3.45543,5.44623 3.22836,4.89805 3.0013,4.34987 2.94189,3.74667 3.05765,3.16473 3.1734,2.58279 3.45912,2.04824 3.87868,1.62868 4.29824,1.20912 4.83279,0.923401 5.41473,0.807646 5.99667,0.69189 6.59987,0.7513 7.14805,0.978363 7.69623,1.20543 8.16477,1.58994 8.49441,2.08329 8.82405,2.57664 9,3.15666 9,3.75 9,4.54565 8.68393,5.30871 8.12132,5.87132 7.55871,6.43393 6.79565,6.75 6,6.75 Z M 6,2.25 C 5.70333,2.25 5.41332,2.33797 5.16665,2.5028 4.91997,2.66762 4.72771,2.90189 4.61418,3.17598 4.50065,3.45007 4.47095,3.75167 4.52882,4.04264 4.5867,4.33361 4.72956,4.60088 4.93934,4.81066 5.14912,5.02044 5.41639,5.1633 5.70737,5.22118 5.99834,5.27906 6.29994,5.24935 6.57403,5.13582 6.84812,5.02229 7.08238,4.83003 7.24721,4.58336 7.41203,4.33668 7.5,4.04667 7.5,3.75 7.5,3.35218 7.34197,2.97065 7.06066,2.68934 6.77936,2.40804 6.39783,2.25 6,2.25 Z"
     style="filter:url(#filter834);fill:#1a2633;fill-opacity:1"
/>
</svg>
