<?xml version="1.0" encoding="UTF-8" standalone="no"?>
<svg
   xmlns="http://www.w3.org/2000/svg"
   width="21"
   height="16.5"
   viewBox="0 0 21 16.5"
   style="fill:none">
  <path
     style="fill:#cc0000"
     d="M 7.5 0 C 7.37647 0.00064 7.2550844 0.03096375 7.1464844 0.08984375 C 7.0378844 0.14872375 6.9448931 0.23472062 6.8769531 0.33789062 L 5.5957031 2.25 L 0.75 2.25 C 0.55109 2.25 0.3594 2.3281 0.21875 2.46875 C 0.0781 2.6094 0 2.80109 0 3 L 0 15.75 C -1.8503717e-17 15.9489 0.0781 16.14065 0.21875 16.28125 C 0.3594 16.42195 0.55109 16.5 0.75 16.5 L 20.25 16.5 C 20.4489 16.5 20.64065 16.42195 20.78125 16.28125 C 20.92195 16.14065 21 15.9489 21 15.75 L 21 3 C 21 2.80109 20.92195 2.6094 20.78125 2.46875 C 20.64065 2.3281 20.4489 2.25 20.25 2.25 L 15.404297 2.25 L 14.123047 0.33789062 C 14.055147 0.23472062 13.962116 0.14872375 13.853516 0.08984375 C 13.744916 0.03096375 13.6235 0.00064 13.5 0 L 7.5 0 z M 10.28125 4.5058594 C 10.942525 4.4736352 11.605931 4.5863544 12.222656 4.8417969 C 13.044856 5.1823969 13.747688 5.75997 14.242188 6.5 C 14.736688 7.24006 15 8.11 15 9 C 15 10.1935 14.525541 11.337741 13.681641 12.181641 C 12.837741 13.025541 11.6935 13.5 10.5 13.5 C 9.61 13.5 8.74006 13.236688 8 12.742188 C 7.25997 12.247687 6.6823969 11.544856 6.3417969 10.722656 C 6.0012069 9.9003563 5.9122975 8.9959469 6.0859375 8.1230469 C 6.2595675 7.2501469 6.6890294 6.4476994 7.3183594 5.8183594 C 7.9476994 5.1890294 8.7501469 4.7595675 9.6230469 4.5859375 C 9.8412719 4.5425275 10.060825 4.5166008 10.28125 4.5058594 z M 10.5 6 C 9.9067 6 9.3272844 6.1762194 8.8339844 6.5058594 C 8.3406244 6.8355094 7.9555856 7.3033625 7.7285156 7.8515625 C 7.5014556 8.3996625 7.4428337 9.0039375 7.5585938 9.5859375 C 7.6743438 10.167837 7.9593463 10.701594 8.3789062 11.121094 C 8.7984263 11.540694 9.3321625 11.827559 9.9140625 11.943359 C 10.496063 12.059059 11.100238 11.998584 11.648438 11.771484 C 12.196537 11.544484 12.664541 11.159416 12.994141 10.666016 C 13.323841 10.172716 13.5 9.5933 13.5 9 C 13.5 8.2044 13.183694 7.4415262 12.621094 6.8789062 C 12.058494 6.3162962 11.2957 6 10.5 6 z "
     id="path4" />
</svg>
