<svg
   xmlns="http://www.w3.org/2000/svg"
   width="24"
   height="24"
   viewBox="0 0 23.999999 24.000001">
  <path
     style="fill:#1e2a35"
     d="m 15.55585,10.80265 -0.4442,1.6067 c 2.1592,0.5966 3.555,1.7441 3.555,2.9241 0,1.5767 -2.7375,3.3334 -6.6667,3.3334 -3.92913,0 -6.66663,-1.7567 -6.66663,-3.3334 0,-1.18 1.39583,-2.3275 3.55583,-2.925 l -0.44416,-1.6066 c -2.9475,0.815 -4.77834,2.5508 -4.77834,4.5316 0,2.8034 3.66084,5 8.3333,5 4.6725,0 8.3334,-2.1966 8.3334,-5 0,-1.9808 -1.8309,-3.7166 -4.7775,-4.5308 z m -3.5554,5.3639 0.8334,-1.6667 v -4.285 c 1.4341,-0.3724602 2.5,-1.6666302 2.5,-3.2149602 0,-1.8383396 -1.495,-3.3333396 -3.3334,-3.3333396 -1.8383,0 -3.33331,1.495 -3.33331,3.3333396 0,1.54833 1.06584,2.8425 2.50001,3.2149602 v 4.285 z"
/>
</svg>
