<svg width="24" height="24" viewBox="0 0 24 24" fill="none" xmlns="http://www.w3.org/2000/svg">
<path d="M9.33983 18.75C10.0989 17.6471 10.5036 16.3389 10.5 15C10.5026 14.4969 10.4574 13.9946 10.365 13.5H16.5V12H9.91312C9.84997 11.8418 9.78562 11.6855 9.72142 11.532C9.23225 10.5079 8.9854 9.38488 9 8.25001C8.97786 7.75166 9.0597 7.25416 9.24032 6.78916C9.42094 6.32416 9.69638 5.90186 10.0491 5.54913C10.4019 5.19639 10.8242 4.92095 11.2891 4.74033C11.7541 4.55971 12.2516 4.47787 12.75 4.50001C13.5154 4.47595 14.2747 4.64366 14.9587 4.98788C15.6428 5.33211 16.2299 5.84192 16.6667 6.47094L17.8333 5.52909C17.2556 4.72589 16.4907 4.07574 15.6049 3.63503C14.7191 3.19432 13.7391 2.97634 12.75 3.00001C12.0543 2.97684 11.3613 3.09678 10.7138 3.35242C10.0664 3.60806 9.47833 3.99393 8.98613 4.48614C8.49392 4.97834 8.10805 5.56639 7.85241 6.21383C7.59677 6.86127 7.47683 7.55431 7.5 8.25001C7.48319 9.54322 7.75367 10.824 8.29192 12H6V13.5H8.82967C8.94777 13.9911 9.00497 14.4949 9 15C9 16.8926 7.88565 18.75 6.75 18.75V20.25H18V18.75H9.33983Z" fill="#1A2633"/>
</svg>
