<svg
   xmlns="http://www.w3.org/2000/svg"
   width="24"
   height="24"
   viewBox="0 0 24 24">
  <path
     d="m 12.000001,1.499998 c -2.0767004,0 -4.1067704,0.61581 -5.8334804,1.76957 -1.72672,1.15375 -3.07253,2.79363 -3.86725,4.71225 -0.79472,1.9186298 -1.00266,4.02978 -0.59751,6.06658 0.40514,2.0368 1.40517,3.9078 2.87362,5.3762 1.46845,1.4685 3.33938,2.4685 5.37618,2.8736 2.0368404,0.4052 4.1480404,0.1973 6.0666404,-0.5975 1.9186,-0.7947 3.5585,-2.1405 4.7122,-3.8672 1.1538,-1.7267 1.7696,-3.7568 1.7696,-5.8335 0,-2.7847702 -1.1062,-5.45549 -3.0754,-7.42462 -1.9691,-1.96913 -4.6398,-3.07538 -7.4246,-3.07538 z m 0,17.25 c -0.2225,0 -0.44,-0.066 -0.625,-0.1896 -0.185,-0.1236 -0.3292,-0.2993 -0.4144,-0.5049 -0.0851,-0.2055 -0.1074,-0.4317 -0.064,-0.65 0.0434,-0.2182 0.1506,-0.4187 0.3079,-0.576 0.1573,-0.1573 0.3578,-0.2645 0.576,-0.3079 0.2183,-0.0434 0.4445,-0.0211 0.65,0.064 0.2056,0.0852 0.3813,0.2294 0.5049,0.4144 0.1236,0.185 0.1896,0.4025 0.1896,0.625 0,0.2984 -0.1185,0.5845 -0.3295,0.7955 -0.211,0.211 -0.4971,0.3295 -0.7955,0.3295 z m 0.8566,-5.8155 v 1.8761 h -1.6875 v -3.5606 h 1.5937 c 0.4727,0 0.926,-0.1878 1.2603,-0.522 0.3342,-0.3342 0.522,-0.7875502 0.522,-1.2602202 0,-0.47268 -0.1878,-0.926 -0.522,-1.2602298 -0.3343,-0.33423 -0.7876,-0.522 -1.2603,-0.522 h -1.125 c -0.4722,5.4e-4 -0.925,0.18837 -1.2589,0.52231 -0.3339,0.3339298 -0.5217804,0.7866898 -0.5223204,1.2589398 v 0.4782 h -1.6875 v -0.47827 c 0.00111,-0.91945 0.36699,-1.8008798 1.01732,-2.4508398 0.65034,-0.64995 1.5320004,-1.01531 2.4514004,-1.01589 h 1.125 c 0.9121,-6.7e-4 1.7877,0.35798 2.4372,0.99829 0.6495,0.64031 1.0206,1.5107098 1.0329,2.4226798 0.0124,0.9119302 -0.3351,1.7921302 -0.967,2.4497302 -0.632,0.6576 -1.4976,1.0398 -2.4093,1.0638 z"
     style="fill:#000000"/>
</svg>
