<svg
   xmlns="http://www.w3.org/2000/svg"
   width="24"
   height="24"
   viewBox="0 0 24 24">
  <path
     style="fill:#000000"
     d="m 12.750001,6.000008 h -1.125 c -0.4435,-9.9e-4 -0.8828,0.08563 -1.2927,0.25489 -0.4099404,0.16926 -0.7823904,0.41782 -1.0959804,0.73142 -0.3136,0.31359 -0.56216,0.68604 -0.73142,1.09596 -0.16926,0.40992 -0.25588,0.8492398 -0.25489,1.2927298 v 0.375 h 1.5 v -0.375 c 0,-0.49728 0.19754,-0.9741998 0.5491904,-1.3258298 0.3516,-0.35163 0.8285,-0.54917 1.3258,-0.54917 h 1.125 c 0.4973,0 0.9742,0.19754 1.3258,0.54917 0.3517,0.35163 0.5492,0.8285498 0.5492,1.3258298 0,0.49728 -0.1975,0.9741902 -0.5492,1.3257902 -0.3516,0.3517 -0.8285,0.5492 -1.3258,0.5492 h -1.5 v 3.375 h 1.5 v -1.875 c 0.8951,0 1.7536,-0.3556 2.3865,-0.9885 0.6329,-0.6329 0.9885,-1.4914 0.9885,-2.3864902 0,-0.8951098 -0.3556,-1.7535498 -0.9885,-2.3864898 -0.6329,-0.63293 -1.4914,-0.98851 -2.3865,-0.98851 z m -0.75,12.74999 c 0.6213,0 1.125,-0.5037 1.125,-1.125 0,-0.6213 -0.5037,-1.125 -1.125,-1.125 -0.6213,0 -1.125,0.5037 -1.125,1.125 0,0.6213 0.5037,1.125 1.125,1.125 z m 0,-17.25 c -2.0767004,0 -4.1067704,0.61581 -5.8334804,1.76957 -1.72672,1.15375 -3.07253,2.79363 -3.86725,4.71225 -0.79472,1.9186298 -1.00266,4.02978 -0.59751,6.06658 0.40514,2.0368 1.40517,3.9078 2.87362,5.3762 1.46845,1.4685 3.33938,2.4685 5.37618,2.8736 2.0368404,0.4052 4.1480404,0.1973 6.0666404,-0.5975 1.9186,-0.7947 3.5585,-2.1405 4.7122,-3.8672 1.1538,-1.7267 1.7696,-3.7568 1.7696,-5.8335 0,-2.7847702 -1.1062,-5.45549 -3.0754,-7.42462 -1.9691,-1.96913 -4.6398,-3.07538 -7.4246,-3.07538 z m 0,19.5 c -1.78,0 -3.5200804,-0.5278 -5.0001304,-1.5168 -1.48004,-0.9889 -2.63359,-2.3945 -3.31478,-4.039 -0.68119,-1.6446 -0.85942,-3.4542 -0.51215,-5.2 0.34726,-1.74584 1.20443,-3.34949 2.4631,-4.60816 1.25868,-1.25867 2.86232,-2.11584 4.6081604,-2.46311 1.7458,-0.34726 3.5554,-0.16903 5.2,0.51215 1.6445,0.68119 3.0501,1.83475 4.039,3.31479 0.989,1.48004 1.5168,3.22013 1.5168,5.00013 0,2.3869 -0.9482,4.6761 -2.636,6.364 -1.6879,1.6878 -3.977,2.636 -6.364,2.636 z"
/>
</svg>
