<svg
   xmlns="http://www.w3.org/2000/svg"
   width="24"
   height="24"
   viewBox="0 0 24 24">
  <path
     d="m 22.037197,22.12428 c -0.1335,0.0019 -0.265,-0.0319 -0.381,-0.0978 -0.116,-0.066 -0.2123,-0.1616 -0.279,-0.2772 -0.998899,-1.7017 -2.422699,-3.1147 -4.131799,-4.1008 -1.7092,-0.986 -3.6451,-1.5112 -5.6182,-1.5242 v 4.5 c -8e-4,0.1481 -0.0453,0.2926 -0.1281,0.4154 -0.0827,0.1228 -0.2,0.2183 -0.3369,0.2746 -0.1366,0.0574 -0.2872,0.0731 -0.4327,0.0451 -0.1454,-0.028 -0.2794,-0.0985 -0.38485,-0.2026 l -8.9999965,-9 c -0.070296,-0.0697 -0.126092,-0.1527 -0.164168,-0.2441 -0.038077,-0.0914 -0.057681,-0.1894 -0.057681,-0.2884 0,-0.099 0.019604,-0.19703 0.057681,-0.28843 0.038076,-0.09139 0.093872,-0.17434 0.164168,-0.24407 L 10.344647,2.0917846 c 0.10545,-0.104069 0.23945,-0.174566 0.38485,-0.202596 0.1455,-0.028031 0.2961,-0.012339 0.432701,0.045096 0.1369,0.056265 0.2542,0.151813 0.3369,0.274603 0.0828,0.12279 0.1273,0.267328 0.128099,0.415392 v 4.5825 c 3.1029,0.39855 5.955,1.91172 8.0248,4.2575004 2.0698,2.3458 3.2161,5.3641 3.2252,8.4925 -0.0018,0.5015 -0.0344,1.0025 -0.0975,1.5 -0.0188,0.156 -0.0861,0.3022 -0.1924,0.418 -0.1063,0.1157 -0.2463,0.1951 -0.400099,0.227 z m -10.785,-7.5 c 1.912801,-0.0275 3.8087,0.3607 5.5568,1.1376 1.7482,0.777 3.3068,1.9242 4.5682,3.3624 -0.2257,-2.7207 -1.413299,-5.272 -3.35,-7.1963 -1.9366,-1.92421 -4.4954,-3.0954904 -7.2175,-3.3037004 -0.187,-0.01689 -0.3609,-0.10331 -0.48726,-0.24217 -0.12636,-0.13887 -0.19605,-0.32007 -0.19529,-0.50783 v -3.4425 l -7.1924995,7.1925004 7.1924995,7.1925 v -3.4425 c 0,-0.1989 0.07902,-0.3897 0.21967,-0.5303 0.14068,-0.1407 0.33138,-0.2197 0.53038,-0.2197 h 0.405 z"
     style="fill:#1e2a35" />
</svg>
