<svg
   xmlns="http://www.w3.org/2000/svg"
   width="24"
   height="24"
   viewBox="0 0 23.999999 24">
  <path
     style="fill:#1e2a35"
     d="m 15.37497,17.062474 h 4.4044 c -1.0913,1.6771 -2.6953,2.9566 -4.573,3.6479 -1.8777,0.6912 -3.9285,0.7572 -5.8467001,0.188 -1.9182,-0.5692 -3.6011,-1.7431 -4.79784,-3.3466 -1.19674,-1.6036 -1.84323,-3.5509 -1.8431,-5.5518 H 1.03123 c -0.00233,2.2566 0.69142,4.459 1.9866299,6.3069 1.29521,1.8479 3.12886,3.2514 5.2509,4.019 2.1220101,0.7676 4.4292101,0.8621 6.6069101,0.2705 2.1777,-0.5916 4.1199,-1.8405 5.5618,-3.5764 v 3.105 h 1.6875 v -6.75 h -6.75 z M 8.6249699,6.9375339 h -4.40437 c 1.09126,-1.6771 2.69528,-2.95664 4.57297,-3.64788 1.8777001,-0.69125 3.9285001,-0.75719 5.8467001,-0.18799 1.9182,0.56921 3.6011,1.74307 4.7978,3.34661 1.1968,1.60353 1.8433,3.5509001 1.8431,5.5518001 h 1.6876 c 0.0023,-2.2567 -0.6915,-4.4590701 -1.9867,-6.3069801 -1.2952,-1.8479 -3.1288,-3.25135 -5.2509,-4.01898 -2.122,-0.76762999 -4.4292,-0.86206999 -6.6069001,-0.27045 -2.17767,0.59162 -4.11989,1.84051 -5.5618,3.57637 v -3.105 H 1.87497 v 6.75004 h 6.7499999 z"
/>
</svg>
