<svg width="24" height="24" viewBox="0 0 24 24" fill="none" xmlns="http://www.w3.org/2000/svg">
<path d="M10.5 21C8.71997 21 6.97991 20.4722 5.49987 19.4832C4.01982 18.4943 2.86627 17.0887 2.18508 15.4442C1.50389 13.7996 1.32566 11.99 1.67293 10.2442C2.0202 8.49836 2.87737 6.89472 4.13604 5.63604C5.39471 4.37737 6.99836 3.5202 8.74419 3.17294C10.49 2.82567 12.2996 3.0039 13.9441 3.68509C15.5887 4.36628 16.9943 5.51983 17.9832 6.99987C18.9722 8.47991 19.5 10.22 19.5 12V16.65L22.2 13.95L23.25 15L18.75 19.5L14.25 15L15.3 13.95L18 16.65V12C18 10.5166 17.5601 9.0666 16.736 7.83323C15.9119 6.59986 14.7406 5.63856 13.3701 5.07091C11.9997 4.50325 10.4917 4.35473 9.03682 4.64411C7.58196 4.9335 6.24559 5.64781 5.1967 6.6967C4.1478 7.7456 3.4335 9.08197 3.14411 10.5368C2.85472 11.9917 3.00324 13.4997 3.5709 14.8701C4.13856 16.2406 5.09985 17.4119 6.33322 18.236C7.56659 19.0601 9.01664 19.5 10.5 19.5V21Z" fill="#1A2633"/>
</svg>
