<svg
   xmlns="http://www.w3.org/2000/svg"
   width="24"
   height="24"
   viewBox="0 0 24 24">
  <path
     d="m 13.875002,21 c 1.78,0 3.5201,-0.5278 5.0001,-1.5168 1.4801,-0.9889 2.6336,-2.3945 3.3148,-4.039 0.6812,-1.6446 0.8594,-3.45418 0.5122,-5.20001 -0.3473,-1.7458302 -1.2045,-3.3494702 -2.4631,-4.6081502 -1.2587,-1.25867 -2.8624,-2.115836 -4.6082,-2.463103 -1.7458,-0.347267 -3.5554,-0.1690374 -5.1999,0.512151 C 8.7863116,4.3662798 7.3807116,5.5198298 6.3917716,6.9998698 5.4028416,8.4799098 4.8750016,10.21997 4.8750016,12 v 4.65 l -2.7,-2.7 -1.05,1.05 4.5,4.5 4.5000004,-4.5 -1.0500004,-1.05 -2.7,2.7 V 12 c 0,-1.48336 0.43987,-2.9334002 1.26398,-4.1667702 0.82411,-1.23337 1.99545,-2.19467 3.3659204,-2.76232 1.3704,-0.56766 2.8784,-0.71618 4.3333,-0.4268 1.4548,0.28939 2.7912,1.0037 3.8401,2.05259 1.0489,1.0489 1.7632,2.38527 2.0526,3.8401302 0.2894,1.45485 0.1409,2.96287 -0.4268,4.33327 -0.5677,1.3705 -1.529,2.5418 -2.7623,3.3659 -1.2334,0.8241 -2.6834,1.264 -4.1668,1.264 z"
     style="fill:#000000" />
</svg>
