<svg width="24" height="24" viewBox="0 0 24 24" fill="none" xmlns="http://www.w3.org/2000/svg">
<path d="M14.25 3H7.5V11.25H5.25V12.75H7.5V15H5.25V16.5H7.5V21H9V16.5H15.75V15H9V12.75H14.25C15.4431 12.7487 16.5869 12.2741 17.4305 11.4305C18.2741 10.5869 18.7487 9.44307 18.75 8.25V7.5C18.7487 6.30693 18.2741 5.16311 17.4305 4.31949C16.5869 3.47586 15.4431 3.00133 14.25 3ZM17.25 8.25C17.2491 9.04538 16.9327 9.80792 16.3703 10.3703C15.8079 10.9327 15.0454 11.2491 14.25 11.25H9V4.5H14.25C15.0454 4.50089 15.8079 4.81725 16.3703 5.37967C16.9327 5.94208 17.2491 6.70462 17.25 7.5V8.25Z" fill="#1A2633"/>
</svg>
