<svg
   xmlns="http://www.w3.org/2000/svg"
   width="24"
   height="24"
   viewBox="0 0 24 24">
  <path
     d="m 22.138283,21.077683 -5.6641,-5.6641 c 1.361,-1.634 2.0397,-3.7297 1.8949,-5.8513795 -0.1448,-2.12164 -1.1021,-4.10576 -2.6725,-5.53961 -1.5705,-1.43386 -3.6333,-2.207054 -5.7593195,-2.158742 -2.12602,0.048312 -4.15157,0.914412 -5.65529,2.418122 -1.50371,1.50372 -2.36981,3.52927 -2.418122,5.65529 -0.048312,2.1260195 0.724882,4.1888195 2.158742,5.7593195 1.43385,1.5704 3.41797,2.5277 5.53961,2.6725 2.1216795,0.1448 4.2173795,-0.5339 5.8513795,-1.8949 l 5.6641,5.6641 z M 3.3882635,10.138263 c 0,-1.3350295 0.39588,-2.6400695 1.13758,-3.7500995 0.7417,-1.11003 1.7959,-1.9752 3.0293,-2.48609 1.23341,-0.51089 2.5905995,-0.64456 3.8999395,-0.38411 1.3094,0.26045 2.5121,0.90332 3.4561,1.84733 0.9441,0.944 1.5869,2.14674 1.8474,3.45611 0.2604,1.3093695 0.1268,2.6665795 -0.3841,3.8999795 -0.5109,1.2334 -1.3761,2.2876 -2.4861,3.0293 -1.1101,0.7417 -2.4151,1.1376 -3.75012,1.1376 -1.7895995,-0.002 -3.5053395,-0.7138 -4.7707795,-1.9792 -1.26544,-1.2655 -1.97724,-2.9812 -1.97922,-4.77082 z"
     style="fill:#1e2a35" />
</svg>
