<svg
   xmlns="http://www.w3.org/2000/svg"
   width="24"
   height="24"
   viewBox="0 0 23.999999 24">
  <path
     style="fill:#000000"
     d="m 11.996164,16.499922 c -0.89,0 -1.76,-0.2639 -2.5000599,-0.7584 -0.74003,-0.4945 -1.3168,-1.1973 -1.6574,-2.0195 -0.34059,-0.8223 -0.42971,-1.7271 -0.25607,-2.6 0.17363,-0.8729 0.60221,-1.6747405 1.23155,-2.3040805 0.62934,-0.6293398 1.4311799,-1.0579198 2.3040799,-1.2315498 0.8729,-0.17364 1.7777,-0.08452 2.6,0.25607 0.8222,0.3406 1.525,0.9173698 2.0195,1.6573998 0.4945,0.7400605 0.7584,1.6100605 0.7584,2.5000605 0.006,0.5926 -0.1063,1.1805 -0.3303,1.7292 -0.224,0.5487 -0.5552,1.0471 -0.9743,1.4662 -0.4191,0.4191 -0.9175,0.7503 -1.4662,0.9743 -0.5487,0.224 -1.1366,0.3363 -1.7292,0.3303 z m 0,-7.5000005 c -0.3965,-0.0092 -0.7907,0.06205 -1.1589,0.20954 -0.3681,0.1475 -0.7025,0.36814 -0.9829799,0.64858 -0.28044,0.2804805 -0.50108,0.6148805 -0.64858,0.9829805 -0.14749,0.3682 -0.21877,0.7624 -0.20954,1.1589 -0.00923,0.3965 0.06205,0.7907 0.20954,1.1589 0.1475,0.3681 0.36814,0.7026 0.64858,0.983 0.2804799,0.2804 0.6148799,0.5011 0.9829799,0.6486 0.3682,0.1475 0.7624,0.2187 1.1589,0.2095 0.3965,0.0092 0.7907,-0.062 1.1589,-0.2095 0.3681,-0.1475 0.7026,-0.3682 0.983,-0.6486 0.2804,-0.2804 0.5011,-0.6149 0.6486,-0.983 0.1475,-0.3682 0.2187,-0.7624 0.2095,-1.1589 0.0092,-0.3965 -0.062,-0.7907 -0.2095,-1.1589 -0.1475,-0.3681 -0.3682,-0.7025 -0.6486,-0.9829805 -0.2804,-0.28044 -0.6149,-0.50108 -0.983,-0.64858 -0.3682,-0.14749 -0.7624,-0.21877 -1.1589,-0.20954 z m 8.2499,3.5701005 c 0,-0.1875 0,-0.375 0,-0.57 0,-0.195 0,-0.3825 0,-0.5775 l 1.44,-1.26 c 0.2655,-0.2340005 0.4397,-0.5542705 0.4918,-0.9042405 0.0522,-0.34997 -0.0211,-0.70711 -0.2068,-1.0082998 l -1.77,-3 c -0.1315,-0.2278 -0.3206,-0.41701 -0.5483,-0.54865 -0.2278,-0.13164 -0.4861,-0.20108 -0.7492,-0.20135 -0.163,-0.00125 -0.3251,0.02408 -0.48,0.075 l -1.8225,0.615 c -0.3146,-0.20909 -0.6428,-0.39701 -0.9825,-0.5625 l -0.3825,-1.89 c -0.0685,-0.3453 -0.2564,-0.65547 -0.5306,-0.87622 -0.2742,-0.22076 -0.6174,-0.33802 -0.9694,-0.33128 h -3.51 c -0.3519299,-0.00674 -0.6950699,0.11052 -0.9692999,0.33128 -0.27422,0.22075 -0.46207,0.53092 -0.53065,0.87622 l -0.3825,1.89 c -0.34205,0.16545 -0.67278,0.35336 -0.99,0.5625 l -1.785,-0.645 c -0.15653,-0.04078 -0.31862,-0.05598 -0.48,-0.045 -0.26305,2.7e-4 -0.5214,0.06971 -0.74913,0.20135 -0.22774,0.13164 -0.41685,0.32085 -0.54837,0.54865 l -1.77,3 c -0.17506,0.3007398 -0.24012,0.6529898 -0.18402,0.9964198 0.0561,0.34343 0.22986,0.65668 0.49152,0.8861205 l 1.4175,1.2975 c 0,0.1875 0,0.375 0,0.57 0,0.195 0,0.3825 0,0.5775 l -1.4175,1.26 c -0.26905,0.231 -0.44756,0.5498 -0.50386,0.8999 -0.05629,0.3501 0.01328,0.7089 0.19636,1.0126 l 1.77,3 c 0.13152,0.2278 0.32063,0.417 0.54837,0.5486 0.22773,0.1317 0.48608,0.2011 0.74913,0.2014 0.16301,0.0012 0.32513,-0.0241 0.48,-0.075 l 1.8225,-0.615 c 0.31465,0.2091 0.64288,0.397 0.9825,0.5625 l 0.3825,1.89 c 0.06858,0.3453 0.25643,0.6554 0.53065,0.8762 0.27423,0.2207 0.61737,0.338 0.9692999,0.3313 h 3.54 c 0.352,0.0067 0.6952,-0.1106 0.9694,-0.3313 0.2742,-0.2208 0.4621,-0.5309 0.5306,-0.8762 l 0.3825,-1.89 c 0.3421,-0.1655 0.6728,-0.3534 0.99,-0.5625 l 1.815,0.615 c 0.1549,0.0509 0.317,0.0762 0.48,0.075 0.2631,-3e-4 0.5214,-0.0697 0.7492,-0.2014 0.2277,-0.1316 0.4168,-0.3208 0.5483,-0.5486 l 1.71,-3 c 0.1751,-0.3008 0.2402,-0.653 0.1841,-0.9965 -0.0561,-0.3434 -0.2299,-0.6566 -0.4916,-0.886 z m -1.3425,5.43 -2.5725,-0.87 c -0.6022,0.51 -1.2904,0.9088 -2.0325,1.1775 l -0.5325,2.6925 h -3.54 l -0.5324499,-2.6625 c -0.73619,-0.2764 -1.42072,-0.6744 -2.025,-1.1775 l -2.58,0.84 -1.77,-3 2.04,-1.8 c -0.13868,-0.7764 -0.13868,-1.5712 0,-2.3475 l -2.04,-1.8525405 1.77,-2.9999998 2.5725,0.87 c 0.6022,-0.51008 1.29045,-0.90881 2.0325,-1.1775 l 0.5324499,-2.6925 h 3.54 l 0.5325,2.6625 c 0.7362,0.27632 1.4208,0.67436 2.025,1.1775 l 2.58,-0.84 1.77,2.9999998 -2.04,1.8000405 c 0.1387,0.7763 0.1387,1.5711 0,2.3475 l 2.04,1.8525 z"
/>
</svg>
