<svg
   xmlns="http://www.w3.org/2000/svg"
   width="24"
   height="24"
   viewBox="0 0 24 24"
   version="1.1">
  <path
     d="m 16.9673,15.4172 1.9691,-2.05117 c 0.4753,-0.49512 0.2796,-1.34095 -0.361,-1.55543 L 17.4,11.41705 V 7.3125 C 17.4,6.79474 16.9971,6.375 16.5,6.375 H 14.7 V 5.203125 C 14.7,4.814795 14.3978,4.5 14.025,4.5 H 9.975 C 9.6022,4.5 9.3,4.814795 9.3,5.203125 V 6.375 H 7.5 c -0.49705,0 -0.9,0.41974 -0.9,0.9375 v 4.10455 L 5.4246,11.8106 C 4.78467,12.02484 4.58777,12.87035 5.06359,13.36603 L 7.03267,15.4172 C 6.53891,16.6959 5.40713,17.625 3.675,17.625 3.302203,17.625 3,17.9398 3,18.3281 v 0.4688 C 3,19.1852 3.302203,19.5 3.675,19.5 5.39127,19.5 6.69841,18.8962 7.70413,17.7599 8.10967,18.7802 9.07559,19.5 10.2,19.5 h 3.6 c 1.1244,0 2.0903,-0.7198 2.4959,-1.7401 C 17.3014,18.896 18.6085,19.5 20.325,19.5 20.6978,19.5 21,19.1852 21,18.7969 v -0.4688 c 0,-0.3883 -0.3022,-0.7031 -0.675,-0.7031 -1.7105,0 -2.8559,-0.9082 -3.3577,-2.2078 z M 8.4,8.25 h 7.2 v 2.56438 L 12.2754,9.70125 c -0.17909,-0.05997 -0.37171,-0.05997 -0.5508,0 L 8.4,10.81438 Z"

     style="fill:#1e2a35" />
</svg>
