<?xml version="1.0" encoding="UTF-8" standalone="no"?>
<svg
   xmlns="http://www.w3.org/2000/svg"
   width="24"
   height="24"
   viewBox="0 0 24 24"
   fill="none"
   version="1.1"
   id="svg10">
  <path
     d="M 13.8075,6 16.5,3.3075 15.4425,2.25 12.75,4.9425 10.0575,2.25 9,3.3075 11.6925,6 9,8.6925 10.0575,9.75 12.75,7.0575 15.4425,9.75 16.5,8.6925 Z M 3.73545,2.10293 C 3.70145,1.93291 3.60959,1.77992 3.4755,1.66999 3.34142,1.56007 3.17339,1.5 3,1.5 H 0 V 3 h 2.385 l 2.87955,14.3971 c 0.034,0.17 0.12586,0.323 0.25995,0.4329 C 5.65858,17.9399 5.82661,18 6,18 H 19.5 V 16.5 H 6.615 l -0.6,-3 H 19.5 c 0.1706,0 0.3362,-0.0582 0.4693,-0.1649 0.1331,-0.1068 0.2258,-0.2558 0.2629,-0.4224 L 21.9334,5.25 H 20.3978 L 18.8987,12 H 5.715 Z M 18,22.5 c 0.8284,0 1.5,-0.6716 1.5,-1.5 0,-0.8284 -0.6716,-1.5 -1.5,-1.5 -0.8284,0 -1.5,0.6716 -1.5,1.5 0,0.8284 0.6716,1.5 1.5,1.5 z m -10.5,0 C 8.32843,22.5 9,21.8284 9,21 9,20.1716 8.32843,19.5 7.5,19.5 6.67157,19.5 6,20.1716 6,21 c 0,0.8284 0.67157,1.5 1.5,1.5 z"
     style="fill:#1a2633;fill-opacity:1" />
</svg>
