<?xml version="1.0" encoding="UTF-8" standalone="no"?>
<svg
   xmlns="http://www.w3.org/2000/svg"
   width="24"
   height="24"
   viewBox="0 0 24 24">
  <path
     d="m 12,5.99999 c 1.6061,7.4e-4 3.1822,0.43455 4.5625,1.25572 l 1.0902,-1.0902 C 16.0679,5.14648 14.2378,4.5734 12.3548,4.50657 10.4719,4.43973 8.60573,4.88161 6.95268,5.78572 5.29964,6.68983 3.92082,8.02274 2.96128,9.64423 2.00174,11.2657 1.49695,13.1159 1.50001,15 h 1.5 C 3.00273,12.6139 3.95182,10.3263 5.63906,8.63903 7.32629,6.95179 9.6139,6.00271 12,5.99999 Z M 21,7.0605 19.9394,6 13.5143,12.4252 C 13.057,12.1497 12.5338,12.0028 12,12 c -0.5933,0 -1.1734,0.1759 -1.6667,0.5056 -0.49336,0.3296 -0.87787,0.7982 -1.10494,1.3464 -0.22706,0.5481 -0.28647,1.1513 -0.17071,1.7333 0.11575,0.5819 0.40147,1.1165 0.82103,1.536 0.41952,0.4196 0.95412,0.7053 1.53602,0.8211 0.582,0.1157 1.1852,0.0563 1.7334,-0.1708 0.5481,-0.227 1.0167,-0.6115 1.3463,-1.1049 C 14.8241,16.1734 15,15.5933 15,15 14.9972,14.4662 14.8503,13.943 14.5748,13.4857 Z M 12,16.5 c -0.2967,0 -0.5867,-0.088 -0.8334,-0.2528 -0.2466,-0.1648 -0.4389,-0.3991 -0.5524,-0.6732 -0.1135,-0.2741 -0.1433,-0.5757 -0.0854,-0.8666 0.0579,-0.291 0.2008,-0.5583 0.4105,-0.7681 0.2098,-0.2097 0.4771,-0.3526 0.7681,-0.4105 0.2909,-0.0579 0.5925,-0.0282 0.8666,0.0854 0.2741,0.1135 0.5084,0.3058 0.6732,0.5524 C 13.412,14.4133 13.5,14.7033 13.5,15 c -5e-4,0.3977 -0.1586,0.779 -0.4398,1.0602 C 12.779,16.3414 12.3977,16.4995 12,16.5 Z M 22.4999,15 C 22.4988,12.996 21.9182,11.035 20.828,9.35339 l -1.0839,1.08401 c 0.8218,1.38 1.2557,2.9564 1.2558,4.5626 z"
     style="fill:#1a2633;fill-opacity:1" />
</svg>
