<?xml version="1.0" encoding="UTF-8" standalone="no"?>
<svg
   xmlns="http://www.w3.org/2000/svg"
   width="24"
   height="24"
   viewBox="0 0 24 24">
  <path
     d="M 18.75,3.75 H 16.5 V 3 C 16.4989,2.60253 16.3404,2.22166 16.0594,1.94061 15.7783,1.65955 15.3975,1.50115 15,1.5 H 9 C 8.60253,1.50115 8.22166,1.65955 7.94061,1.94061 7.65955,2.22166 7.50115,2.60253 7.5,3 V 3.75 H 5.25 C 4.85253,3.75115 4.47166,3.90955 4.19061,4.19061 3.90955,4.47166 3.75115,4.85253 3.75,5.25 V 21 c 0.00115,0.3975 0.15955,0.7783 0.44061,1.0594 0.28105,0.281 0.66192,0.4395 1.05939,0.4406 h 7.5 V 21 H 5.25 V 5.25 H 7.5 V 7.5 h 9 V 5.25 h 2.25 V 12 h 1.5 V 5.25 C 20.2489,4.85253 20.0904,4.47166 19.8094,4.19061 19.5283,3.90955 19.1475,3.75115 18.75,3.75 Z M 15,6 H 9 V 3 h 6 z m 8.25,12 h -3 v -3 h -1.5 v 3 h -3 v 1.5 h 3 v 3 h 1.5 v -3 h 3 z"
     style="fill:#1a2633;fill-opacity:1" />
</svg>
