<svg
   xmlns="http://www.w3.org/2000/svg"
   width="24"
   height="24"
   viewBox="0 0 24 24">
  <path
     d="M 19.888102,4.5930718 3.3752934,10.897983 c -0.500389,0.20015 -0.500389,1.00078 0,1.10085 l 4.2032779,1.20094 1.60124,4.90384 c 0.20016,0.5004 0.80063,0.7005 1.2009397,0.3002 l 2.20171,-2.2017 4.303341,3.1024 c 0.5004,0.4003 1.301,0.1001 1.4011,-0.5004 l 2.7021,-13.3103396 c 0.1001,-0.6004676 -0.5004,-1.2009356 -1.1009,-0.9007016 z m -2.1016,2.9022616 -7.705991,6.7051796 c 0,0.1001 -0.1000696,0.2002 -0.1000696,0.3003 l -0.30024,2.602 c 0,0.1001 -0.10008,0.1001 -0.20015,0 l -1.2009401,-3.90304 c -0.10008,-0.20016 0,-0.40031 0.20016,-0.50039 L 17.486302,7.1950934 c 0.3002,-0.10007 0.5004,0.20016 0.3002,0.30024 z"
     style="fill:#1e2a35"/>
</svg>
