<svg
   xmlns="http://www.w3.org/2000/svg"
   width="24"
   height="24"
   viewBox="0 0 24 24">
  <path
     d="M 15.281234,4 H 8.7157435 c -0.168,0 -1.04925,0.052 -1.877251,1.0808 C 6.0232435,6.0928 5.9999935,7.0896 5.9999935,7.2 V 16 c 0,0.4243 0.158035,0.8313 0.439339,1.1314 0.281304,0.3 0.662831,0.4686 1.060661,0.4686 h 0.75 L 6.7499925,20 h 1.764751 l 0.50025,-0.8 h 5.9999905 l 0.50775,0.8 h 1.72726 l -1.50001,-2.4 h 0.75001 c 0.3978,0 0.7793,-0.1686 1.0606,-0.4686 0.2814,-0.3001 0.4394,-0.7071 0.4394,-1.1314 V 7.2 c 7e-4,-0.1504 -0.024,-1.1472 -0.8468,-2.132 C 16.286194,4.0296 15.381734,4 15.281234,4 Z m -4.78125,1.6 h 3 v 1.6 h -3 z M 8.6249935,16 c -0.29847,-10e-5 -0.58467,-0.1267 -0.79565,-0.3519 -0.21098,-0.2252 -0.32945,-0.5305 -0.32935,-0.8489 10e-5,-0.3184 0.11876,-0.6237 0.32988,-0.84869 0.21112,-0.22505 0.4974,-0.35142 0.79587,-0.35131 0.29846,1.1e-4 0.58467,0.12668 0.79565,0.35187 0.21097,0.22523 0.32945,0.53053 0.32935,0.84893 -10e-5,0.3184 -0.11877,0.6237 -0.32988,0.8487 -0.21112,0.225 -0.49741,0.3514 -0.79587,0.3513 z m 6.7499905,0 c -0.29847,-10e-5 -0.58467,-0.1267 -0.79565,-0.3519 -0.21098,-0.2252 -0.32945,-0.5305 -0.32935,-0.8489 10e-5,-0.3184 0.11876,-0.6237 0.32988,-0.84869 0.21112,-0.22505 0.4974,-0.35142 0.79587,-0.35131 0.29847,1.1e-4 0.58467,0.12668 0.79566,0.35187 0.211,0.22523 0.3294,0.53053 0.3293,0.84893 -10e-5,0.3184 -0.1187,0.6237 -0.3298,0.8487 -0.21116,0.225 -0.49744,0.3514 -0.79591,0.3513 z m 1.12501,-4 H 7.4999935 V 8.8 h 9.0000005 z"
     style="fill:#1e2a35" />
</svg>
