<svg
   xmlns="http://www.w3.org/2000/svg"
   width="24"
   height="24"
   viewBox="0 0 24 23.999999">
  <path
     d="m 8.38364,20.249784 c 1.49719,0.0098 2.98135,-0.2901 4.36636,-0.8822 1.3851,-0.5921 2.6434,-1.4646 3.7021,-2.567 1.0587,-1.1024 1.8967,-2.4128 2.4653,-3.85503 0.5686,-1.44225 0.8566,-2.9877001 0.8471,-4.5467301 0,-0.18459 0,-0.35996 0,-0.54455 0.7761,-0.59209 1.4479,-1.31969 1.9855,-2.1505204 -0.7308,0.33282 -1.5041,0.5535504 -2.2957,0.6553104 0.8393,-0.5207604 1.4691,-1.3404604 1.7727,-2.3074204 -0.7822,0.48865 -1.6399,0.83218 -2.535,1.01526 -0.6027,-0.66881 -1.4004,-1.112123 -2.2695,-1.261339 -0.8691,-0.149217 -1.7612,0.00398 -2.5383,0.435889 -0.7771,0.43191 -1.3958,1.11845 -1.7605,1.95339 -0.36459,0.8349504 -0.45481,1.7717504 -0.25665,2.6654704 -1.59012,-0.08128 -3.14596,-0.51039 -4.56623,-1.25939 -1.42027,-0.749 -2.67312,-1.8011104 -3.67696,-3.0878004 -0.50618,0.91483 -0.659604,1.9957604 -0.42921,3.0239504 0.2304,1.02818 0.82739,1.92679 1.67012,2.5138701 C 4.24309,10.025974 3.63579,9.8489039 3.09205,9.5340739 v 0.04615 c -0.00553,0.9560501 0.30377,1.8851801 0.87635,2.6325601 0.57257,0.74738 1.37383,1.2678 2.27024,1.4747 -0.57823,0.1619 -1.18393,0.1871 -1.77273,0.0738 0.25951,0.8153 0.7549,1.5271 1.41822,2.0377 0.66332,0.5106 1.4621,0.795 2.28678,0.8143 -1.41002,1.1819 -3.16247,1.8324 -4.9725,1.8459 -0.31736,-0.0096 -0.633975,-0.0373 -0.94841,-0.0831 1.83207,1.2155 3.96134,1.8563 6.13364,1.846"
     style="fill:#1e2a35"/>
</svg>
