<svg
   xmlns="http://www.w3.org/2000/svg"
   width="24"
   height="24"
   viewBox="0 0 24 24">
  <path
     style="fill:#1e2a35"
     d="m 17.910206,17.11165 h -0.394 v -1.5761 h 0.394 c 0.9405,0.0377 1.8574,-0.2999 2.5491,-0.9383 0.6916,-0.6384 1.1013,-1.5255 1.1389,-2.466 0.0376,-0.94045 -0.2999,-1.85737 -0.9383,-2.549 -0.6385,-0.69163 -1.5255,-1.10132 -2.466,-1.13894 h -0.6777 l -0.0788,-0.64618 c -0.1748,-1.32669 -0.8259,-2.5446 -1.8321,-3.42685 -1.0061,-0.88225 -2.2987,-1.36868 -3.6368,-1.36868 -1.33818,0 -2.6307197,0.48643 -3.6368597,1.36868 -1.00613,0.88225 -1.65727,2.10016 -1.8321,3.42685 l -0.01576,0.64618 h -0.6777 c -0.9405,0.03762 -1.82753,0.44731 -2.46596,1.13894 -0.63843,0.69163 -0.97596,1.60855 -0.93834,2.549 0.03762,0.9405 0.44731,1.8276 1.13894,2.466 0.69163,0.6384 1.60855,0.976 2.54905,0.9383 h 0.39401 v 1.5761 h -0.39401 c -1.26368,-0.008 -2.4798,-0.4829 -3.41455,-1.3333 -0.934749,-0.8504 -1.522137,-2.0163 -1.6492359,-3.2736 -0.12709912,-1.25732 0.2150649,-2.51723 0.9607059,-3.53751 0.74564,-1.02028 1.84212,-1.72892 3.07864,-1.98967 0.3402,-1.58668 1.21422,-3.00872 2.47624,-4.02883 1.26201,-1.020108 2.8356797,-1.57659 4.4584297,-1.57659 1.6227,0 3.1964,0.556482 4.4584,1.57659 1.262,1.02011 2.1361,2.44215 2.4763,4.02883 1.2365,0.26075 2.333,0.96939 3.0786,1.98967 0.7457,1.02028 1.0878,2.28019 0.9607,3.53751 -0.1271,1.2573 -0.7145,2.4232 -1.6492,3.2736 -0.9348,0.8504 -2.1509,1.3253 -3.4146,1.3333 z m -9.8503497,-3.1521 1.11112,1.1111 2.0410297,-2.0331 v 9.5903 h 1.576 v -9.5903 l 2.041,2.0331 1.1112,-1.1111 -3.9402,-3.94018 z"/>
</svg>
