<?xml version="1.0" encoding="UTF-8" standalone="no"?>
<svg
   xmlns="http://www.w3.org/2000/svg"
   width="24"
   height="24"
   viewBox="0 0 24 24">
  <path
     id="path4"
     d="M 12,1.5 C 9.9233,1.5 7.89323,2.11581 6.16652,3.26957 4.4398,4.42332 3.09399,6.0632 2.29927,7.98182 1.50455,9.90045 1.29661,12.0116 1.70176,14.0484 c 0.40514,2.0368 1.40517,3.9078 2.87362,5.3762 1.46845,1.4685 3.33938,2.4685 5.37618,2.8736 2.03684,0.4052 4.14804,0.1973 6.06664,-0.5975 1.9186,-0.7947 3.5585,-2.1405 4.7122,-3.8672 C 21.8842,16.1068 22.5,14.0767 22.5,12 22.4969,9.21619 21.3896,6.5473 19.4212,4.57884 17.4527,2.61039 14.7838,1.50314 12,1.5 Z M 7.5,19.7824 V 18.75 C 7.50066,18.1535 7.73792,17.5815 8.15974,17.1597 8.58155,16.7379 9.15347,16.5007 9.75,16.5 h 4.5 c 0.5965,7e-4 1.1685,0.2379 1.5903,0.6597 0.4218,0.4218 0.659,0.9938 0.6597,1.5903 v 1.0324 C 15.1344,20.5798 13.5814,21 12,21 10.4186,21 8.86563,20.5798 7.5,19.7824 Z m 10.4944,-1.088 C 17.9795,17.7105 17.5786,16.772 16.8782,16.0809 16.1778,15.3899 15.2339,15.0017 14.25,15 H 9.75 C 8.76608,15.0017 7.8222,15.3899 7.1218,16.0809 6.42139,16.772 6.02054,17.7105 6.00563,18.6944 4.64555,17.4799 3.68643,15.881 3.25526,14.1093 2.82408,12.3377 2.9412,10.4769 3.59111,8.77324 4.24101,7.06963 5.39304,5.6036 6.89466,4.56927 8.39627,3.53495 10.1766,2.98112 12,2.98112 c 1.8234,0 3.6037,0.55383 5.1054,1.58815 1.5016,1.03433 2.6536,2.50036 3.3035,4.20397 0.6499,1.70366 0.767,3.56446 0.3359,5.33606 -0.4312,1.7717 -1.3903,3.3706 -2.7504,4.5851 z M 12,6 C 11.2583,6 10.5333,6.21993 9.91661,6.63199 9.29993,7.04404 8.81928,7.62971 8.53545,8.31494 8.25162,9.00016 8.17736,9.75416 8.32206,10.4816 c 0.14469,0.7274 0.50184,1.3956 1.02629,1.9201 0.52445,0.5244 1.19265,0.8816 1.92005,1.0262 0.7274,0.1447 1.4814,0.0705 2.1667,-0.2134 0.6852,-0.2838 1.2709,-0.7644 1.6829,-1.3811 C 15.5301,11.2167 15.75,10.4917 15.75,9.75 15.75,8.75544 15.3549,7.80161 14.6517,7.09835 13.9484,6.39509 12.9946,6 12,6 Z m 0,6 C 11.555,12 11.12,11.868 10.75,11.6208 10.38,11.3736 10.0916,11.0222 9.92127,10.611 9.75098,10.1999 9.70642,9.7475 9.79323,9.31105 9.88005,8.87459 10.0943,8.47368 10.409,8.15901 c 0.3147,-0.31467 0.7156,-0.52896 1.152,-0.61578 0.4365,-0.08681 0.8889,-0.04226 1.3,0.12804 0.4112,0.1703 0.7626,0.45869 1.0098,0.8287 C 14.118,8.86998 14.25,9.30499 14.25,9.75 c -7e-4,0.5965 -0.2379,1.1684 -0.6598,1.5902 C 13.1684,11.7621 12.5965,11.9993 12,12 Z"
     style="fill:#000000;fill-opacity:1" />
</svg>
