<?xml version="1.0" encoding="UTF-8" standalone="no"?>
<svg
   xmlns="http://www.w3.org/2000/svg"
   width="24"
   height="24"
   viewBox="0 0 24 24">
  <path
     d="M 6,3 C 6.44501,3 6.88002,3.13196 7.25004,3.37919 7.62005,3.62643 7.90843,3.97783 8.07873,4.38896 8.24903,4.8001 8.29359,5.2525 8.20677,5.68895 8.11995,6.12541 7.90566,6.52632 7.59099,6.84099 7.27632,7.15566 6.87541,7.36995 6.43896,7.45677 6.0025,7.54358 5.5501,7.49903 5.13896,7.32873 4.72783,7.15843 4.37643,6.87004 4.1292,6.50003 3.88196,6.13002 3.75,5.69501 3.75,5.25 3.75,4.65326 3.98705,4.08097 4.40901,3.65901 4.83097,3.23705 5.40326,3 6,3 Z M 6,1.5 C 5.25832,1.5 4.5333,1.71993 3.91661,2.13199 3.29993,2.54404 2.81928,3.12971 2.53545,3.81494 2.25162,4.50016 2.17736,5.25416 2.32206,5.98159 2.46675,6.70902 2.8239,7.3772 3.34835,7.90165 3.8728,8.4261 4.54098,8.78325 5.26841,8.92795 5.99584,9.07264 6.74984,8.99838 7.43506,8.71455 8.12029,8.43072 8.70596,7.95007 9.11801,7.33339 9.53007,6.7167 9.75,5.99168 9.75,5.25 9.75,4.25544 9.35491,3.30161 8.65165,2.59835 7.94839,1.89509 6.99456,1.5 6,1.5 Z m 0,9 H 4.5 C 3.5058,10.5012 2.55265,10.8966 1.84964,11.5996 1.14664,12.3027 0.751171,13.2558 0.75,14.25 v 3 h 1.5 v -3 C 2.25066,13.6535 2.48792,13.0815 2.90973,12.6597 3.33155,12.2379 3.90346,12.0007 4.5,12 H 6 Z m 6,-0.75 c 0.445,0 0.88,0.13196 1.25,0.3792 0.37,0.2472 0.6584,0.5986 0.8287,1.0098 0.1703,0.4111 0.2149,0.8635 0.1281,1.3 -0.0868,0.4364 -0.3011,0.8373 -0.6158,1.152 -0.3147,0.3147 -0.7156,0.529 -1.152,0.6158 -0.4365,0.0868 -0.8889,0.0422 -1.3,-0.1281 C 10.7278,13.9084 10.3764,13.62 10.1292,13.25 9.88196,12.88 9.75,12.445 9.75,12 9.75,11.4033 9.98705,10.831 10.409,10.409 10.831,9.98705 11.4033,9.75 12,9.75 Z m 0,-1.5 c -0.7417,0 -1.4667,0.21993 -2.08339,0.63199 -0.61668,0.41205 -1.09733,0.99772 -1.38116,1.68291 -0.28383,0.6853 -0.35809,1.4393 -0.21339,2.1667 0.14469,0.7274 0.50184,1.3956 1.02629,1.9201 0.52445,0.5244 1.19265,0.8816 1.92005,1.0262 0.7274,0.1447 1.4814,0.0705 2.1667,-0.2134 0.6852,-0.2838 1.2709,-0.7644 1.6829,-1.3811 C 15.5301,13.4667 15.75,12.7417 15.75,12 15.75,11.0054 15.3549,10.0516 14.6517,9.34835 13.9484,8.64509 12.9946,8.25 12,8.25 Z m 5.25,14.25 h -1.5 V 21 C 15.7493,20.4035 15.5121,19.8315 15.0903,19.4097 14.6685,18.9879 14.0965,18.7507 13.5,18.75 h -3 C 9.90346,18.7507 9.33155,18.9879 8.90973,19.4097 8.48792,19.8315 8.25066,20.4035 8.25,21 v 1.5 H 6.75 V 21 C 6.75117,20.0058 7.14664,19.0527 7.84964,18.3496 8.55265,17.6466 9.5058,17.2512 10.5,17.25 h 3 c 0.9942,0.0012 1.9473,0.3966 2.6504,1.0996 0.703,0.7031 1.0984,1.6562 1.0996,2.6504 z M 18,3 c 0.445,0 0.88,0.13196 1.25,0.37919 0.37,0.24724 0.6584,0.59864 0.8287,1.00977 C 20.249,4.8001 20.2936,5.2525 20.2068,5.68895 20.12,6.12541 19.9057,6.52632 19.591,6.84099 19.2763,7.15566 18.8754,7.36995 18.439,7.45677 18.0025,7.54358 17.5501,7.49903 17.139,7.32873 16.7278,7.15843 16.3764,6.87004 16.1292,6.50003 15.882,6.13002 15.75,5.69501 15.75,5.25 15.75,4.65326 15.9871,4.08097 16.409,3.65901 16.831,3.23705 17.4033,3 18,3 Z m 0,-1.5 c -0.7417,0 -1.4667,0.21993 -2.0834,0.63199 -0.6167,0.41205 -1.0973,0.99772 -1.3811,1.68295 -0.2839,0.68522 -0.3581,1.43922 -0.2134,2.16665 0.1447,0.72743 0.5018,1.39561 1.0263,1.92006 0.5244,0.52445 1.1926,0.8816 1.92,1.0263 0.7274,0.14469 1.4814,0.07043 2.1667,-0.2134 C 20.1203,8.43072 20.706,7.95007 21.118,7.33339 21.5301,6.7167 21.75,5.99168 21.75,5.25 21.75,4.25544 21.3549,3.30161 20.6517,2.59835 19.9484,1.89509 18.9946,1.5 18,1.5 Z m 1.5,9 H 18 V 12 h 1.5 c 0.5965,7e-4 1.1685,0.2379 1.5903,0.6597 0.4218,0.4218 0.659,0.9938 0.6597,1.5903 v 3 h 1.5 v -3 C 23.2488,13.2558 22.8534,12.3026 22.1504,11.5996 21.4474,10.8966 20.4942,10.5012 19.5,10.5 Z"
     style="fill:#1a2633;fill-opacity:1" />
</svg>
