<svg
   xmlns="http://www.w3.org/2000/svg"
   width="24"
   height="24"
   viewBox="0 0 24 24">
  <path
     d="m 11.897166,4.1175875 c 0.12087,-0.111111 0.20653,-0.1268021 0.62765,-0.1136553 0.22095,0.00763 0.54241,0.033078 0.71883,0.053859 0.88974,0.1111107 1.60941,0.3256997 2.39741,0.7099227 0.7756,0.379984 1.2726,0.738764 1.9296,1.392284 0.6145,0.61704 0.9563,1.08439 1.3184,1.81 0.5043,1.0123 0.7914,2.2158601 0.8406,3.5402901 0.0178,0.45208 0.0051,0.55343 -0.098,0.68151 -0.1968,0.25106 -0.6289,0.2095 -0.7756,-0.0721 -0.0475,-0.09287 -0.0607,-0.17303 -0.0755,-0.5352 -0.0259,-0.55513 -0.0645,-0.91348 -0.1425,-1.34266 -0.3054,-1.6806605 -1.1115,-3.0233205 -2.3995,-3.9864205 -1.0738,-0.80492 -2.18278,-1.19848 -3.6357,-1.282869 -0.49195,-0.027989 -0.57719,-0.046226 -0.6883,-0.131891 -0.20653,-0.163274 -0.21713,-0.544953 -0.01739,-0.72307 z m 3.08229,3.3257 c -0.5199,-0.30959 -1.28797,-0.53902 -1.98814,-0.59627 -0.25445,-0.02078 -0.39355,-0.0721 -0.48897,-0.18321 -0.14759,-0.16794 -0.16285,-0.39525 -0.03902,-0.58397 0.13444,-0.20865 0.34097,-0.24257 0.95886,-0.15012 1.56997,0.23028 2.78587,0.95844 3.58187,2.14122 0.4487,0.66581 0.7273,1.44868 0.8231,2.2879505 0.0327,0.30746 0.0327,0.86726 -0.0038,0.96014 -0.0326,0.08778 -0.1421,0.20695 -0.2349,0.25614 -0.1005,0.05132 -0.316,0.04623 -0.4347,-0.01569 -0.1985,-0.10008 -0.2583,-0.26081 -0.2583,-0.69423 0,-0.66921 -0.173,-1.3740405 -0.4728,-1.9206905 -0.3419,-0.62596 -0.838,-1.14165 -1.4432,-1.50127 z m 0.874,3.4423205 c -0.1522,0.1391 -0.4347,0.14419 -0.6056,0.01314 -0.1234,-0.09372 -0.1628,-0.19211 -0.1912,-0.45716 -0.0331,-0.35369 -0.095,-0.6022105 -0.2019,-0.8316405 -0.2273,-0.4877 -0.6281,-0.7413 -1.30577,-0.824 -0.31764,-0.03817 -0.41391,-0.07464 -0.51696,-0.19635 -0.18914,-0.22435 -0.1162,-0.58822 0.14504,-0.72307 0.09796,-0.04793 0.13868,-0.05386 0.35666,-0.04072 0.13401,0.0076 0.33333,0.03054 0.43935,0.05386 0.50938,0.10857 0.90038,0.30238 1.23328,0.61451 0.43,0.40585 0.6654,0.89609 0.7688,1.6009305 0.07,0.46013 0.0412,0.64079 -0.1217,0.7905 z m 3.863,6.78371 c -0.1904,0.4928 -0.9355,1.4173 -1.4554,1.8121 -0.4703,0.3563 -0.8045,0.4928 -1.2447,0.5144 -0.3613,0.0174 -0.5115,-0.014 -0.9742,-0.2044 -3.63099,-1.4949 -6.5304804,-3.7256 -8.8324304,-6.79131 -1.20186,-1.60093 -2.117469,-3.2608105 -2.744271,-4.9838805 -0.3634428,-1.00382 -0.3812549,-1.4402 -0.081849,-1.95462 0.129771,-0.21629 0.679812,-0.75361 1.08185,-1.05259 0.66709,-0.49618 0.97497,-0.679386 1.21967,-0.731549 0.16879,-0.036471 0.46056,-0.00763 0.64674,0.059796 0.0899,0.030535 0.2307,0.103478 0.31001,0.154793 0.49194,0.325699 1.85962,2.07336 2.30661,2.94614 0.2561504,0.49872 0.3418104,0.86726 0.2612404,1.14122 -0.08312,0.29389 -0.2205304,0.44911 -0.8324904,0.94274 -0.24597,0.1989 -0.47667,0.40246 -0.51229,0.45717 -0.0933,0.1340105 -0.16837,0.3978005 -0.16837,0.5831205 0.00255,0.43172 0.28245,1.21332 0.64928,1.81552 0.28499,0.46735 0.7934704,1.06616 1.2985604,1.52587 0.59202,0.54238 1.11408,0.91178 1.70441,1.20358 0.75699,0.377 1.22052,0.472 1.55894,0.3147 0.08567,-0.0382 0.17642,-0.0904 0.20399,-0.1137 0.02587,-0.0233 0.2248,-0.2659 0.4427,-0.5344 0.4186,-0.5267 0.5149,-0.6119 0.8016,-0.7099 0.3651,-0.12423 0.737,-0.09115 1.1119,0.1001 0.285,0.1476 0.9055,0.5327 1.3058,0.8109 0.528,0.3693 1.6556,1.2888 1.8083,1.472 0.2697,0.3312 0.3164,0.7544 0.1344,1.2222 z"
     style="fill:#1e2a35" />
</svg>
