<svg
   xmlns="http://www.w3.org/2000/svg"
   width="24"
   height="24"
   viewBox="0 0 24 24">
  <path
     d="m 11.785404,17.453884 h 1.1954 c 0,0 0.361,-0.0384 0.5456,-0.2299 0.1697,-0.1759 0.1642,-0.5062 0.1642,-0.5062 0,0 -0.0233,-1.5464 0.7211,-1.77415 0.734,-0.22445 1.6763,1.49459 2.6752,2.15555 0.7553,0.5001 1.3293,0.3907 1.3293,0.3907 l 2.6709,-0.036 c 0,0 1.3971,-0.0831 0.7346,-1.14218 -0.0542,-0.08652 -0.3859,-0.78338 -1.986,-2.21518 -1.6748,-1.49864 -1.4503,-1.25616 0.5671,-3.84837 1.2285,-1.5786901 1.7197,-2.5424201 1.5661,-2.9552011 -0.1462,-0.393256 -1.0498,-0.289359 -1.0498,-0.289359 l -3.0073,0.01797 c 0,0 -0.223,-0.02931 -0.3883,0.06604 -0.1617,0.09321 -0.2654,0.311016 -0.2654,0.311016 0,0 -0.4761,1.221544 -1.1107,2.260584 -1.3391,2.1920901 -1.8746,2.3081001 -2.0935,2.1717801 -0.5093,-0.31727 -0.3819,-1.27435 -0.3819,-1.9544701 0,-2.12449 0.3342,-3.01026 -0.651,-3.239524 -0.3268,-0.07608 -0.5675,-0.126404 -1.40358,-0.134549 -1.07309,-0.01059 -1.9811197,0.0031 -2.4953697,0.245972 -0.34215,0.161602 -0.60609,0.5214 -0.44521,0.542151 0.19878,0.02553 0.64881,0.117107 0.88742,0.43012 0.30825,0.40432 0.29744,1.31196 0.29744,1.31196 0,0 0.1771197,2.5008101 -0.41354,2.8114101 -0.4053,0.21303 -0.96142,-0.22192 -2.15528,-2.2107501 -0.61159,-1.01868 -1.07346,-2.144918 -1.07346,-2.144918 0,0 -0.08897,-0.210385 -0.24784,-0.32306 -0.19271,-0.136463 -0.46198,-0.17972 -0.46198,-0.17972 l -2.857733,0.01799 c 0,0 -0.428903,0.01157 -0.5865007,0.191404 -0.1402329,0.160077 -0.011194,0.490846 -0.011194,0.490846 0,0 2.2371973,5.0462401 4.7705073,7.5891901 2.32318,2.33185 4.9607197,2.17885 4.9607197,2.17885 z"
     style="clip-rule:evenodd;fill:#1e2a35;fill-rule:evenodd" />
</svg>
