<svg
   xmlns="http://www.w3.org/2000/svg"
   width="24"
   height="24"
   viewBox="0 0 24 24">
  <path
     style="fill:#1e2a35"
     d="M 21.749991,22.125 H 2.2500014 c -0.12886,0 -0.25554,-0.0332 -0.36783,-0.0964 -0.1123,-0.0632 -0.20642,-0.1542 -0.27329,-0.2644 -0.06686,-0.1101 -0.10423,-0.2356 -0.10848,-0.3644 -0.00426,-0.1288 0.02474,-0.2565 0.0842,-0.3708 L 11.334591,2.27896 c 0.0633,-0.12177 0.1589,-0.22383 0.2762,-0.29506 0.1173,-0.07123 0.2519,-0.1089 0.3892,-0.1089 0.1373,0 0.2719,0.03767 0.3892,0.1089 0.1173,0.07123 0.2129,0.17329 0.2762,0.29506 l 9.75,18.75004 c 0.0595,0.1143 0.0885,0.242 0.0842,0.3708 -0.0043,0.1288 -0.0416,0.2543 -0.1085,0.3644 -0.0669,0.1102 -0.161,0.2012 -0.2733,0.2644 -0.1123,0.0632 -0.2389,0.0964 -0.3678,0.0964 z M 3.4880214,20.625 H 20.511991 l 0.0015,-0.0025 -8.512,-16.36894 h -0.003 L 3.4865214,20.6225 Z m 9.2619696,-12 h -1.5 v 6.75 h 1.5 z m -0.75,8.25 c -0.2225,0 -0.44,0.066 -0.625,0.1896 -0.185,0.1236 -0.3292,0.2993 -0.4144,0.5049 -0.0851,0.2055 -0.1074,0.4317 -0.064,0.65 0.0434,0.2182 0.1506,0.4187 0.3079,0.576 0.1573,0.1573 0.3578,0.2645 0.576,0.3079 0.2183,0.0434 0.4445,0.0211 0.65,-0.064 0.2056,-0.0852 0.3813,-0.2294 0.5049,-0.4144 0.1236,-0.185 0.1896,-0.4025 0.1896,-0.625 0,-0.2984 -0.1185,-0.5845 -0.3295,-0.7955 -0.211,-0.211 -0.4971,-0.3295 -0.7955,-0.3295 z"
/>
</svg>
