<svg
   xmlns="http://www.w3.org/2000/svg"
   width="24"
   height="24"
   viewBox="0 0 24 24"
   fill="none"
   version="1.1"
   id="svg6">
  <path
     d="M 21.75,22.5 H 2.25001 C 2.12115,22.5 1.99447,22.4668 1.88218,22.4036 1.76988,22.3404 1.67576,22.2494 1.60889,22.1392 1.54203,22.0291 1.50466,21.9036 1.50041,21.7748 1.49615,21.646 1.52515,21.5183 1.58461,21.404 L 11.3346,2.65396 C 11.3979,2.53219 11.4935,2.43013 11.6108,2.3589 11.7281,2.28767 11.8627,2.25 12,2.25 c 0.1373,0 0.2719,0.03767 0.3892,0.1089 0.1173,0.07123 0.2129,0.17329 0.2762,0.29506 l 9.75,18.75004 c 0.0595,0.1143 0.0885,0.242 0.0842,0.3708 -0.0043,0.1288 -0.0416,0.2543 -0.1085,0.3644 -0.0669,0.1102 -0.161,0.2012 -0.2733,0.2644 C 22.0055,22.4668 21.8789,22.5 21.75,22.5 Z M 3.48803,21 H 20.512 l 0.0015,-0.0025 -8.512,-16.36894 h -0.003 L 3.48653,20.9975 Z M 12.0013,4.62854 h -0.003 L 3.48633,20.9974 3.48775,21 H 20.5119 l 0.0014,-0.0026 z m -0.8452,4.37145 h 1.6875 V 15.75 H 11.1561 Z M 11.9998,19.5 c -0.2225,0 -0.44,-0.066 -0.625,-0.1896 -0.185,-0.1236 -0.3292,-0.2993 -0.4144,-0.5049 -0.0851,-0.2056 -0.1074,-0.4318 -0.064,-0.65 0.0434,-0.2182 0.1506,-0.4187 0.3079,-0.576 0.1573,-0.1573 0.3578,-0.2645 0.576,-0.3079 0.2183,-0.0434 0.4445,-0.0211 0.65,0.064 0.2056,0.0852 0.3813,0.2294 0.5049,0.4144 0.1236,0.185 0.1896,0.4025 0.1896,0.625 0,0.2984 -0.1185,0.5845 -0.3295,0.7955 -0.211,0.211 -0.4971,0.3295 -0.7955,0.3295 z"
     style="fill:#000000;fill-opacity:1" />
</svg>
