<svg
   xmlns="http://www.w3.org/2000/svg"
   width="24"
   height="24"
   viewBox="0 0 24 24">
  <path
     d="m 22.057514,6.944999 c -0.1195,-0.4439701 -0.3535,-0.8487601 -0.6787,-1.17387 -0.3251,-0.32511 -0.7299,-0.5591299 -1.1738,-0.6786299 -1.635,-0.4424981 -8.205,-0.4424981 -8.205,-0.4424981 0,0 -6.5700199,0 -8.2050199,0.4424981 -0.44397,0.1195 -0.84877,0.3535199 -1.17388,0.6786299 -0.32511,0.32511 -0.55912,0.7299 -0.678624,1.17387 -0.305291,1.66745 -0.45344,3.35987 -0.4425,5.055 -0.01094,1.69513 0.137209,3.3876 0.4425,5.055 0.119504,0.444 0.353514,0.8488 0.678624,1.1739 0.32511,0.3251 0.72991,0.5591 1.17388,0.6786 1.635,0.4425 8.2050199,0.4425 8.2050199,0.4425 0,0 6.57,0 8.205,-0.4425 0.4439,-0.1195 0.8487,-0.3535 1.1738,-0.6786 0.3252,-0.3251 0.5592,-0.7299 0.6787,-1.1739 0.3053,-1.6674 0.4534,-3.35987 0.4425,-5.055 0.0109,-1.69513 -0.1372,-3.38755 -0.4425,-5.055 z m -12.1575199,8.205 v -6.3 l 5.4525199,3.15 z"
     style="fill:#1e2a35"/>
</svg>
