<svg
   xmlns="http://www.w3.org/2000/svg"
   width="24"
   height="24"
   viewBox="0 0 24 24"
   fill="none">
  <path
     d="M 16.0859,15 C 17.3233,13.5306 18.0013,11.671 18,9.75 18,8.11831 17.5161,6.52325 16.6096,5.16655 15.7031,3.80984 14.4146,2.75242 12.9071,2.128 11.3997,1.50357 9.74085,1.3402 8.14051,1.65853 6.54017,1.97685 5.07016,2.76259 3.91637,3.91637 2.76259,5.07016 1.97685,6.54017 1.65853,8.14051 1.3402,9.74085 1.50357,11.3997 2.128,12.9071 2.75242,14.4146 3.80984,15.7031 5.16655,16.6096 6.52325,17.5161 8.11831,18 9.75,18 11.671,18.0013 13.5306,17.3233 15,16.0859 L 20.6894,21.75 21.75,20.6894 Z M 9.75,16.5 C 8.41498,16.5 7.10994,16.1041 5.9999,15.3624 4.88987,14.6207 4.02471,13.5665 3.51382,12.3331 3.00293,11.0997 2.86925,9.74252 3.1297,8.43314 3.39015,7.12377 4.03303,5.92104 4.97703,4.97703 5.92104,4.03303 7.12377,3.39015 8.43314,3.1297 9.74252,2.86925 11.0997,3.00293 12.3331,3.51382 13.5665,4.02471 14.6207,4.88987 15.3624,5.9999 16.1041,7.10994 16.5,8.41498 16.5,9.75 16.498,11.5396 15.7862,13.2553 14.5208,14.5208 13.2553,15.7862 11.5396,16.498 9.75,16.5 Z M 13.5,9 H 6 v 1.5 h 7.5 z"/>
</svg>
