<svg version="1.1" xmlns="http://www.w3.org/2000/svg">
    <symbol id="es" viewBox="0 0 28 20">
        <g>
            <path
                    style="fill:#ffd133;"
                    d="M 0,14.6668 H 28 V 5.3335 H 0 Z"/>
            <path
                    style="fill:#ffedb1;"
                    d="m 7.33325,9.3335 h 1.33334 v 0.6667 H 7.33325 Z"/>
            <path
                    style="stroke:#a41517;stroke-width:0.66666698"
                    d="m 6.39121,8.99984 h 1.88427 c 0.19501,0 0.34838,0.16667 0.33218,0.36101 L 8.43638,11.4162 c -0.04319,0.5183 -0.47646,0.917 -0.99655,0.917 H 7.22686 c -0.52009,0 -0.95336,-0.3987 -0.99655,-0.917 L 6.05903,9.36085 C 6.04283,9.16651 6.1962,8.99984 6.39121,8.99984 Z"/>
            <path
                    style="fill:#a41517;"
                    d="m 6,10 h 2.66667 v 0.6667 H 8 L 7.33333,12 6.66667,10.6667 H 6 Z"/>
            <rect
                    style="fill:#a41517"
                    rx="0.66666698"
                    height="4.6666698"
                    width="1.33333"
                    y="8"
                    x="4"/>
            <rect
                    style="fill:#a41517"
                    rx="0.66666698"
                    height="4.6666698"
                    width="1.33333"
                    y="8"
                    x="9.33325"/>
            <path
                    style="fill:#a41517"
                    d="M 6,7.73317 C 6,7.14407 6.47756,6.6665 7.06667,6.6665 H 7.6 c 0.5891,0 1.06667,0.47757 1.06667,1.06667 v 0 C 8.66667,7.88045 8.54728,7.99984 8.4,7.99984 H 6.26667 C 6.11939,7.99984 6,7.88045 6,7.73317 Z"/>
            <path
                    d="M 0,14.666016 V 18 c 0,1.108 0.892,2 2,2 h 24 c 1.108,0 2,-0.892 2,-2 v -3.333984 z"
                    style="fill:#dd172c;"/>
            <path
                    d="M 2,0 C 0.892,0 0,0.892 0,2 V 5.3339844 H 28 V 2 C 28,0.892 27.108,0 26,0 Z"
                    style="fill:#dd172c"/>
        </g>
    </symbol>
    <symbol id="de" viewBox="0 0 28 20">
        <g>
            <path
                    d="M 0,13.333984 V 18 c 0,1.108 0.892,2 2,2 h 24 c 1.108,0 2,-0.892 2,-2 v -4.666016 z"
                    style="fill:#ffd521;fill-opacity:1"/>
            <path
                    d="M 0,13.3332 H 28 V 6.6665 H 0 Z"
                    style="fill:#f01515;fill-opacity:1"/>
            <path
                    d="M 2,0 C 0.892,0 0,0.892 0,2 V 6.6660156 H 28 V 2 C 28,0.892 27.108,0 26,0 Z"
                    style="display:inline;fill:#000000;fill-opacity:1"/>
        </g>
    </symbol>
    <symbol id="ru" viewBox="0 0 28 20">
        <g>
            <rect
                    x="0.25"
                    y="0.25"
                    width="27.5"
                    height="19.5"
                    rx="1.75"
                    style="fill:#ffffff;stroke:#e7e8ea;stroke-width:0.5;stroke-opacity:1" />
            <path
                    style="fill:#0c47b7;"
                    d="M 0,13.3332 H 28 V 6.6665 H 0 Z"/>
            <path
                    style="clip-rule:evenodd;fill:#e53b35;fill-rule:evenodd;stroke:none;stroke-width:0.51504844;stroke-miterlimit:4;stroke-dasharray:none;stroke-opacity:1"
                    d="m 0,13.3332 v 4.862695 c 0,1.010366 0.79469091,1.823764 1.7818181,1.823764 H 26.218182 C 27.20531,20.019659 28,19.206261 28,18.195895 V 13.3332 Z"/>
        </g>
    </symbol>
    <symbol id="tr" viewBox="0 0 28 20">
        <g>
            <path
                    id="Mask Copy"
                    d="M 2,0 C 0.892,0 0,0.892 0,2 v 16 c 0,1.108 0.892,2 2,2 h 24 c 1.108,0 2,-0.892 2,-2 V 2 C 28,0.892 27.108,0 26,0 Z"
                    style="fill:#e92434"/>
            <path
                    style="clip-rule:evenodd;fill:#ffffff;fill-rule:evenodd"
                    d="m 19.0209,10.7682 -1.2248,1.485 0.0834,-1.9231 -1.7908,-0.70603 1.8548,-0.51493 0.118,-1.92131 1.0629,1.60488 1.8638,-0.48144 -1.1979,1.5068 1.0338,1.62373 z"/>
            <path
                    style="fill:#ffffff;"
                    d="M 17.4028,13.6841 C 16.3049,15.0935 14.5917,16 12.6667,16 9.35304,16 6.66675,13.3137 6.66675,10 c 0,-3.31371 2.68629,-6 5.99995,-6 1.925,0 3.6382,0.90649 4.7361,2.31588 C 16.5556,5.70011 15.4904,5.33333 14.3334,5.33333 11.572,5.33333 9.33341,7.42267 9.33341,10 c 0,2.5773 2.23859,4.6667 4.99999,4.6667 1.157,0 2.2222,-0.3668 3.0694,-0.9826 z"/>
        </g>
    </symbol>
    <symbol id="en" viewBox="0 0 28 20">
        <path
                style="display:inline;fill:#0a17a7;stroke:none;stroke-opacity:1"
                d="M 1.7460938,0 C 0.77734239,0.02136478 0.00195313,0.8095572 0.00195313,1.7910156 V 18.210938 c 0,0.96862 0.75609101,1.748159 1.70703127,1.789062 H 26.304688 C 27.215121,19.961049 27.939235,19.243288 28,18.332031 V 1.6699219 C 27.938442,0.74677068 27.19655,0.02134222 26.269531,0 Z"/>
        <path
                style="clip-rule:evenodd;display:inline;fill:#ffffff;fill-rule:evenodd;stroke-width:1.02227747"
                d="M 10.601638,0.00187622 V 6.0448114 L 1.7068539,0.0078851 C 0.74931501,0.0421724 -0.0127908,0.82425151 -0.0127908,1.7965299 v 0.3425065 l 6.5461937,4.4425687 h -6.5461937 v 6.8381109 h 6.5461937 l -6.5461937,4.442569 v 0.342507 c 0,0.972278 0.76210581,1.754356 1.7196447,1.788644 L 10.601638,13.95651 v 6.042935 h 6.794983 V 13.95651 l 8.894784,6.036926 c 0.957537,-0.03429 1.719644,-0.816366 1.719644,-1.788644 v -0.342507 l -6.546193,-4.442569 h 6.546193 V 6.5816051 H 21.464856 L 28.011049,2.1390364 V 1.7965299 c 0,-0.97227839 -0.762107,-1.7543575 -1.719644,-1.7886448 L 17.396621,6.0448114 V 0.00187622 Z"/>
        <path
                style="color:#000000;font-style:normal;font-variant:normal;font-weight:normal;font-stretch:normal;font-size:medium;line-height:normal;font-family:sans-serif;font-variant-ligatures:normal;font-variant-position:normal;font-variant-caps:normal;font-variant-numeric:normal;font-variant-alternates:normal;font-feature-settings:normal;text-indent:0;text-align:start;text-decoration:none;text-decoration-line:none;text-decoration-style:solid;text-decoration-color:#000000;letter-spacing:normal;word-spacing:normal;text-transform:none;writing-mode:lr-tb;direction:ltr;text-orientation:mixed;dominant-baseline:auto;baseline-shift:baseline;text-anchor:start;white-space:normal;shape-padding:0;clip-rule:nonzero;display:inline;overflow:visible;visibility:visible;opacity:1;isolation:auto;mix-blend-mode:normal;color-interpolation:sRGB;color-interpolation-filters:linearRGB;solid-color:#000000;solid-opacity:1;vector-effect:none;fill:#db1f35;fill-opacity:1;fill-rule:nonzero;stroke:none;stroke-width:0.66666698;stroke-linecap:round;stroke-linejoin:miter;stroke-miterlimit:4;stroke-dasharray:none;stroke-dashoffset:0;stroke-opacity:1;color-rendering:auto;image-rendering:auto;shape-rendering:auto;text-rendering:auto;enable-background:accumulate"
                d="M 26.910156 0.50976562 L 18.484375 6.0546875 A 0.3334198 0.3334198 0 1 0 18.851562 6.6113281 L 27.416016 0.9765625 C 27.280102 0.78833469 27.109019 0.6310561 26.910156 0.50976562 z "/>
        <path
                style="color:#000000;font-style:normal;font-variant:normal;font-weight:normal;font-stretch:normal;font-size:medium;line-height:normal;font-family:sans-serif;font-variant-ligatures:normal;font-variant-position:normal;font-variant-caps:normal;font-variant-numeric:normal;font-variant-alternates:normal;font-feature-settings:normal;text-indent:0;text-align:start;text-decoration:none;text-decoration-line:none;text-decoration-style:solid;text-decoration-color:#000000;letter-spacing:normal;word-spacing:normal;text-transform:none;writing-mode:lr-tb;direction:ltr;text-orientation:mixed;dominant-baseline:auto;baseline-shift:baseline;text-anchor:start;white-space:normal;shape-padding:0;clip-rule:nonzero;display:inline;overflow:visible;visibility:visible;opacity:1;isolation:auto;mix-blend-mode:normal;color-interpolation:sRGB;color-interpolation-filters:linearRGB;solid-color:#000000;solid-opacity:1;vector-effect:none;fill:#db1f35;fill-opacity:1;fill-rule:nonzero;stroke:none;stroke-width:0.66666698;stroke-linecap:round;stroke-linejoin:miter;stroke-miterlimit:4;stroke-dasharray:none;stroke-dashoffset:0;stroke-opacity:1;color-rendering:auto;image-rendering:auto;shape-rendering:auto;text-rendering:auto;enable-background:accumulate"
                d="M 20.011719 13.361328 A 0.33336683 0.33336683 0 0 0 19.826172 13.974609 L 27.380859 19.066406 C 27.517216 18.889736 27.618713 18.686377 27.679688 18.464844 L 20.199219 13.421875 A 0.33336683 0.33336683 0 0 0 20.011719 13.361328 z "/>
        <path
                style="color:#000000;font-style:normal;font-variant:normal;font-weight:normal;font-stretch:normal;font-size:medium;line-height:normal;font-family:sans-serif;font-variant-ligatures:normal;font-variant-position:normal;font-variant-caps:normal;font-variant-numeric:normal;font-variant-alternates:normal;font-feature-settings:normal;text-indent:0;text-align:start;text-decoration:none;text-decoration-line:none;text-decoration-style:solid;text-decoration-color:#000000;letter-spacing:normal;word-spacing:normal;text-transform:none;writing-mode:lr-tb;direction:ltr;text-orientation:mixed;dominant-baseline:auto;baseline-shift:baseline;text-anchor:start;white-space:normal;shape-padding:0;clip-rule:nonzero;display:inline;overflow:visible;visibility:visible;opacity:1;isolation:auto;mix-blend-mode:normal;color-interpolation:sRGB;color-interpolation-filters:linearRGB;solid-color:#000000;solid-opacity:1;vector-effect:none;fill:#db1f35;fill-opacity:1;fill-rule:nonzero;stroke:none;stroke-width:0.66666698;stroke-linecap:round;stroke-linejoin:miter;stroke-miterlimit:4;stroke-dasharray:none;stroke-dashoffset:0;stroke-opacity:1;color-rendering:auto;image-rendering:auto;shape-rendering:auto;text-rendering:auto;enable-background:accumulate"
                d="M 0.62109375 0.93164062 C 0.4842723 1.1083348 0.38160335 1.3114574 0.3203125 1.5332031 L 7.8183594 6.5878906 A 0.33423126 0.33423126 0 1 0 8.1914062 6.0332031 L 0.62109375 0.93164062 z "/>
        <path
                style="color:#000000;font-style:normal;font-variant:normal;font-weight:normal;font-stretch:normal;font-size:medium;line-height:normal;font-family:sans-serif;font-variant-ligatures:normal;font-variant-position:normal;font-variant-caps:normal;font-variant-numeric:normal;font-variant-alternates:normal;font-feature-settings:normal;text-indent:0;text-align:start;text-decoration:none;text-decoration-line:none;text-decoration-style:solid;text-decoration-color:#000000;letter-spacing:normal;word-spacing:normal;text-transform:none;writing-mode:lr-tb;direction:ltr;text-orientation:mixed;dominant-baseline:auto;baseline-shift:baseline;text-anchor:start;white-space:normal;shape-padding:0;clip-rule:nonzero;display:inline;overflow:visible;visibility:visible;opacity:1;isolation:auto;mix-blend-mode:normal;color-interpolation:sRGB;color-interpolation-filters:linearRGB;solid-color:#000000;solid-opacity:1;vector-effect:none;fill:#db1f35;fill-opacity:1;fill-rule:nonzero;stroke:none;stroke-width:0.66666698;stroke-linecap:round;stroke-linejoin:miter;stroke-miterlimit:4;stroke-dasharray:none;stroke-dashoffset:0;stroke-opacity:1;color-rendering:auto;image-rendering:auto;shape-rendering:auto;text-rendering:auto;enable-background:accumulate"
                d="m 9.2832031,13.269531 a 0.33336683,0.33336683 0 0 0 -0.1777343,0.05859 l -8.54492192,5.666016 c 0.13071019,0.18952 0.29653776,0.349624 0.49023432,0.474609 L 9.4746094,13.882812 A 0.33336683,0.33336683 0 0 0 9.2832031,13.269531 Z"/>
        <path
                d="m 0,12 h 12 v 8 h 4 V 12 H 28 V 8 H 16 V 0 H 12 V 8 H 0 Z"
                style="clip-rule:evenodd;display:inline;fill:#e6273e;fill-rule:evenodd;stroke:none;stroke-opacity:1" />
    </symbol>
</svg>