<svg width="28" height="20" viewBox="0 0 28 20" fill="none" xmlns="http://www.w3.org/2000/svg">
<g id="AD">
<rect id="Mask" width="28" height="20" rx="2" fill="white"/>
<mask id="mask0_26538_62037" style="mask-type:alpha" maskUnits="userSpaceOnUse" x="0" y="0" width="28" height="20">
<rect id="Mask_2" width="28" height="20" rx="2" fill="white"/>
</mask>
<g mask="url(#mask0_26538_62037)">
<rect id="Mask Copy" width="28" height="20" fill="#1537D1"/>
<rect id="Mask_3" x="13.3333" width="14.6667" height="20" fill="#EA3058"/>
<path id="Rectangle 2" fill-rule="evenodd" clip-rule="evenodd" d="M9.33325 20H18.6666V0H9.33325V20Z" fill="#FFCF3C"/>
<path id="Rectangle 139 Copy" fill-rule="evenodd" clip-rule="evenodd" d="M12.6667 8.6665H14.0001V9.33317H12.6667V8.6665Z" fill="#FFEDB1"/>
<path id="Rectangle 137" d="M12.7245 8.33333H15.2754C15.4705 8.33333 15.6238 8.50001 15.6076 8.69435L15.4363 10.7497C15.3932 11.268 14.9599 11.6667 14.4398 11.6667H13.5602C13.0401 11.6667 12.6068 11.268 12.5636 10.7497L12.3923 8.69435C12.3761 8.50001 12.5295 8.33333 12.7245 8.33333Z" stroke="#D32E28" stroke-width="0.666667"/>
<path id="Rectangle 139" fill-rule="evenodd" clip-rule="evenodd" d="M12.6667 9.3335H15.3334V10.0002H14.6667H13.3334H12.6667V9.3335Z" fill="#D32E28"/>
</g>
</g>
</svg>
