<svg width="28" height="20" viewBox="0 0 28 20" fill="none" xmlns="http://www.w3.org/2000/svg">
<g id="AF">
<rect id="Mask" width="28" height="20" rx="2" fill="white"/>
<mask id="mask0_26538_62016" style="mask-type:alpha" maskUnits="userSpaceOnUse" x="0" y="0" width="28" height="20">
<rect id="Mask_2" width="28" height="20" rx="2" fill="white"/>
</mask>
<g mask="url(#mask0_26538_62016)">
<rect id="Mask_3" x="13.3333" width="14.6667" height="20" fill="#1AB11F"/>
<path id="Rectangle 2" fill-rule="evenodd" clip-rule="evenodd" d="M0 20H9.33333V0H0V20Z" fill="#262626"/>
<path id="Rectangle 2 Copy" fill-rule="evenodd" clip-rule="evenodd" d="M9.33325 20H18.6666V0H9.33325V20Z" fill="#DC0D18"/>
<path id="Oval 5" opacity="0.75" d="M12.9983 11.0647L13.3329 10.4881L12.9983 11.0647ZM13.2403 11.9759L13.8169 12.3105L13.8169 12.3105L13.2403 11.9759ZM12.3291 12.2179L12.6637 11.6413H12.6637L12.3291 12.2179ZM15.7941 12.1429L16.1533 12.7045H16.1533L15.7941 12.1429ZM14.8733 11.9405L14.3117 12.2997L14.8733 11.9405ZM15.0757 11.0197L15.4349 11.5813L15.0757 11.0197ZM12.6667 9.33317C12.6667 8.59679 12.0698 7.99984 11.3334 7.99984V9.33317H12.6667ZM13.3329 10.4881C12.932 10.2555 12.6667 9.82475 12.6667 9.33317H11.3334C11.3334 10.3186 11.868 11.1796 12.6637 11.6413L13.3329 10.4881ZM13.8169 12.3105C14.1865 11.6736 13.9698 10.8576 13.3329 10.4881L12.6637 11.6413L12.6637 11.6413L13.8169 12.3105ZM11.9945 12.7946C12.6315 13.1641 13.4474 12.9474 13.8169 12.3105L12.6637 11.6413L11.9945 12.7946ZM10.0001 9.33317C10.0001 10.8137 10.8051 12.1044 11.9945 12.7946L12.6637 11.6413C11.8681 11.1797 11.3334 10.3187 11.3334 9.33317H10.0001ZM11.3334 7.99984C10.597 7.99984 10.0001 8.59679 10.0001 9.33317H11.3334V7.99984ZM18.0001 9.33317C18.0001 8.59679 17.4031 7.99984 16.6667 7.99984V9.33317H18.0001ZM16.1533 12.7045C17.2608 11.9962 18.0001 10.7516 18.0001 9.33317H16.6667C16.6667 10.2775 16.1759 11.1074 15.4349 11.5813L16.1533 12.7045ZM14.3117 12.2997C14.7084 12.92 15.533 13.1013 16.1533 12.7045L15.4349 11.5813L15.4349 11.5813L14.3117 12.2997ZM14.7165 10.4581C14.0962 10.8548 13.9149 11.6793 14.3117 12.2997L15.4349 11.5813L14.7165 10.4581ZM15.3334 9.33317C15.3334 9.80435 15.0901 10.2192 14.7165 10.4581L15.4349 11.5813C16.176 11.1074 16.6667 10.2774 16.6667 9.33317H15.3334ZM16.6667 7.99984C15.9304 7.99984 15.3334 8.59679 15.3334 9.33317H16.6667V7.99984Z" fill="white"/>
<path id="Oval 5_2" fill-rule="evenodd" clip-rule="evenodd" d="M14.0001 10.6665C14.7365 10.6665 15.3334 9.77107 15.3334 8.6665C15.3334 7.56193 14.7365 6.6665 14.0001 6.6665C13.2637 6.6665 12.6667 7.56193 12.6667 8.6665C12.6667 9.77107 13.2637 10.6665 14.0001 10.6665Z" fill="white" fill-opacity="0.5"/>
</g>
</g>
</svg>
