<svg width="28" height="20" viewBox="0 0 28 20" fill="none" xmlns="http://www.w3.org/2000/svg">
<g id="AL">
<mask id="mask0_26538_62026" style="mask-type:alpha" x="0" y="0" width="28" height="20">
<rect id="Mask" width="28" height="20" rx="2" fill="white"/>
</mask>
<g mask="url(#mask0_26538_62026)">
<rect id="Mask_2" width="28" height="20" fill="#EE343C"/>
<path id="Line" fill-rule="evenodd" clip-rule="evenodd" d="M12.3865 4.38656C12.1618 4.16186 11.8097 4.12699 11.5453 4.30327L10.9559 4.69621C10.53 4.98015 10.5697 5.61827 11.0276 5.84719L12.2982 6.48251C12.5241 6.59544 12.6667 6.82628 12.6667 7.0788V7.33344C12.6667 7.70163 12.3682 8.00011 12.0001 8.00011H11.4908C11.3873 8.00011 11.2852 7.97601 11.1926 7.92972L9.0965 6.88166C8.83984 6.75333 8.52986 6.80363 8.32695 7.00654L7.98742 7.34607C7.66566 7.66783 7.75369 8.21026 8.16069 8.41376L9.10463 8.88573C9.50361 9.08522 9.53824 9.64132 9.16707 9.88876V9.88876C8.73641 10.1759 8.86786 10.8403 9.3754 10.9418L9.93734 11.0542C10.4769 11.1621 10.6346 11.8575 10.1944 12.1877L9.69134 12.565C9.36311 12.8111 9.53721 13.3334 9.94749 13.3334V13.3334C9.9824 13.3334 10.0172 13.3292 10.051 13.3207L11.3128 13.0052C11.7912 12.8856 12.1661 13.4176 11.8926 13.828V13.828C11.6536 14.1865 11.9106 14.6668 12.3415 14.6668H12.925C13.1689 14.6668 13.3854 14.8228 13.4625 15.0542V15.0542C13.6347 15.5708 14.3654 15.5708 14.5376 15.0542V15.0542C14.6147 14.8228 14.8312 14.6668 15.0751 14.6668H15.6586C16.0895 14.6668 16.3465 14.1865 16.1075 13.828V13.828C15.834 13.4176 16.2089 12.8856 16.6873 13.0052L17.9491 13.3207C17.9829 13.3292 18.0177 13.3334 18.0526 13.3334V13.3334C18.4629 13.3334 18.637 12.8111 18.3088 12.565L17.8057 12.1877C17.3655 11.8575 17.5232 11.1621 18.0628 11.0542L18.6247 10.9418C19.1322 10.8403 19.2637 10.1759 18.833 9.88876V9.88876C18.4619 9.64132 18.4965 9.08522 18.8955 8.88573L19.8394 8.41376C20.2464 8.21026 20.3344 7.66783 20.0127 7.34607L19.6732 7.00654C19.4702 6.80364 19.1603 6.75333 18.9036 6.88166L16.8075 7.92972C16.7149 7.97601 16.6128 8.00011 16.5093 8.00011H16.0001C15.6319 8.00011 15.3334 7.70163 15.3334 7.33344V7.0788C15.3334 6.82628 15.476 6.59545 15.7019 6.48252C16.0945 6.28623 16.5621 6.0524 16.9728 5.84708C17.4306 5.61816 17.4701 4.98015 17.0442 4.69621L16.4548 4.30327C16.1904 4.12699 15.8383 4.16186 15.6136 4.38657L14.4715 5.5287C14.2111 5.78905 13.789 5.78905 13.5286 5.5287L12.3865 4.38656Z" fill="#262626"/>
</g>
</g>
</svg>
