<svg width="28" height="20" viewBox="0 0 28 20" fill="none" xmlns="http://www.w3.org/2000/svg">
<g id="AU">
<rect id="Mask" width="28" height="20" rx="2" fill="white"/>
<mask id="mask0_26538_62078" style="mask-type:alpha" maskUnits="userSpaceOnUse" x="0" y="0" width="28" height="20">
<rect id="Mask_2" width="28" height="20" rx="2" fill="white"/>
</mask>
<g mask="url(#mask0_26538_62078)">
<rect id="Mask Copy" width="28" height="20" fill="#0A17A7"/>
<path id="Rectangle 36" d="M0 -0.333333H-0.901086L-0.21693 0.253086L4.33333 4.15331V5.16179L-0.193746 8.39542L-0.333333 8.49513V8.66667V9.33333V9.93475L0.176666 9.616L5.42893 6.33333H6.55984L11.0821 9.56351C11.176 9.6306 11.2886 9.66667 11.404 9.66667C11.9182 9.66667 12.1548 9.02698 11.7644 8.69237L7.66667 5.18002V4.17154L12.0542 1.03762C12.2294 0.912475 12.3333 0.710428 12.3333 0.495127V0V-0.601416L11.8233 -0.282666L6.57107 3H5.44016L0.860413 -0.271244L0.773488 -0.333333H0.666667H0Z" fill="#FF2E3B" stroke="white" stroke-width="0.666667"/>
<path id="Rectangle 2" fill-rule="evenodd" clip-rule="evenodd" d="M0 3.33333V6H4.66667V9.33333C4.66667 9.70152 4.96514 10 5.33333 10H6.66667C7.03486 10 7.33333 9.70152 7.33333 9.33333V6H12C12.3682 6 12.6667 5.70152 12.6667 5.33333V4C12.6667 3.63181 12.3682 3.33333 12 3.33333H7.33333V0H4.66667V3.33333H0Z" fill="url(#paint0_linear_26538_62078)"/>
<path id="Rectangle 36_2" fill-rule="evenodd" clip-rule="evenodd" d="M0 4H5.33333V3.33333V0H6.66667V3.33333V4H12V5.33333H6.66667V6V9.33333H5.33333V6V5.33333H0V4Z" fill="url(#paint1_linear_26538_62078)"/>
<path id="Star 2" fill-rule="evenodd" clip-rule="evenodd" d="M6.00001 16.3335L4.82444 16.9515L5.04896 15.6425L4.0979 14.7155L5.41223 14.5245L6.00001 13.3335L6.5878 14.5245L7.90213 14.7155L6.95107 15.6425L7.17558 16.9515L6.00001 16.3335Z" fill="white"/>
<path id="Star 2_2" fill-rule="evenodd" clip-rule="evenodd" d="M19.9999 17.3331L19.0571 17.6093L19.3333 16.6664L19.0571 15.7236L19.9999 15.9998L20.9427 15.7236L20.6666 16.6664L20.9427 17.6093L19.9999 17.3331Z" fill="white"/>
<path id="Star 2_3" fill-rule="evenodd" clip-rule="evenodd" d="M19.9999 4.6666L19.0571 4.94275L19.3333 3.99994L19.0571 3.05713L19.9999 3.33327L20.9427 3.05713L20.6666 3.99994L20.9427 4.94275L19.9999 4.6666Z" fill="white"/>
<path id="Star 2_4" fill-rule="evenodd" clip-rule="evenodd" d="M23.9999 8.6666L23.0571 8.94275L23.3333 7.99994L23.0571 7.05713L23.9999 7.33327L24.9427 7.05713L24.6666 7.99994L24.9427 8.94275L23.9999 8.6666Z" fill="white"/>
<path id="Star 2_5" fill-rule="evenodd" clip-rule="evenodd" d="M15.9999 10.0001L15.0571 10.2762L15.3333 9.33343L15.0571 8.39063L15.9999 8.66677L16.9427 8.39063L16.6666 9.33343L16.9427 10.2762L15.9999 10.0001Z" fill="white"/>
<path id="Star 2_6" fill-rule="evenodd" clip-rule="evenodd" d="M22 11.6666L21.5286 11.8046L21.6666 11.3332L21.5286 10.8618L22 10.9999L22.4714 10.8618L22.3333 11.3332L22.4714 11.8046L22 11.6666Z" fill="white"/>
</g>
</g>
<defs>
<linearGradient id="paint0_linear_26538_62078" x1="0" y1="0" x2="0" y2="10" gradientUnits="userSpaceOnUse">
<stop stop-color="white"/>
<stop offset="1" stop-color="#F0F0F0"/>
</linearGradient>
<linearGradient id="paint1_linear_26538_62078" x1="0" y1="0" x2="0" y2="9.33333" gradientUnits="userSpaceOnUse">
<stop stop-color="#FF2E3B"/>
<stop offset="1" stop-color="#FC0D1B"/>
</linearGradient>
</defs>
</svg>
