<svg width="28" height="20" viewBox="0 0 28 20" fill="none" xmlns="http://www.w3.org/2000/svg">
<g id="BB">
<rect id="Mask" width="28" height="20" rx="2" fill="white"/>
<mask id="mask0_26538_62140" style="mask-type:alpha" maskUnits="userSpaceOnUse" x="0" y="0" width="28" height="20">
<rect id="Mask_2" width="28" height="20" rx="2" fill="white"/>
</mask>
<g mask="url(#mask0_26538_62140)">
<rect id="Mask Copy" width="28" height="20" fill="url(#paint0_linear_26538_62140)"/>
<rect id="Mask_3" x="13.3333" width="14.6667" height="20" fill="#08379D"/>
<path id="Rectangle 2" fill-rule="evenodd" clip-rule="evenodd" d="M0 20H9.33333V0H0V20Z" fill="#08379D"/>
<path id="Rectangle 2 Copy" fill-rule="evenodd" clip-rule="evenodd" d="M9.33325 20H18.6666V0H9.33325V20Z" fill="#FFCC50"/>
<path id="Line" fill-rule="evenodd" clip-rule="evenodd" d="M13.7455 6.41362C13.8793 6.21692 14.1701 6.21962 14.3002 6.41877L14.9964 7.48448C15.1412 7.70619 14.9822 8.00012 14.7173 8.00012H14.7016C14.5044 8.00012 14.3503 8.17039 14.3699 8.36662L14.6366 11.0333C14.6536 11.2037 14.797 11.3335 14.9682 11.3335H15.1962C15.284 11.3335 15.3682 11.2988 15.4307 11.2371L15.901 10.7718C15.9643 10.7092 15.9999 10.6238 15.9999 10.5348V9.47152C15.9999 9.38312 15.9648 9.29833 15.9023 9.23582L15.7146 9.04816C15.5394 8.87294 15.6098 8.57459 15.8449 8.49623L16.7979 8.17855C17.0386 8.09834 17.2771 8.30561 17.2312 8.55508L16.7396 11.2279C16.727 11.2965 16.6931 11.3595 16.6428 11.4079L15.43 12.5738C15.3679 12.6334 15.2851 12.6668 15.199 12.6668H14.9999C14.8158 12.6668 14.6666 12.816 14.6666 13.0001V13.6668C14.6666 13.8509 14.5173 14.0001 14.3332 14.0001H13.6666C13.4825 14.0001 13.3332 13.8509 13.3332 13.6668V13.0001C13.3332 12.816 13.184 12.6668 12.9999 12.6668H12.8047C12.7162 12.6668 12.6315 12.6317 12.5689 12.5692L11.4046 11.4048C11.3581 11.3583 11.3264 11.299 11.3135 11.2345L10.7792 8.56336C10.729 8.31239 10.9687 8.10082 11.2115 8.18176L12.1549 8.49623C12.39 8.57459 12.4604 8.87294 12.2852 9.04816L12.0975 9.23582C12.035 9.29833 11.9999 9.38312 11.9999 9.47152V10.5348C11.9999 10.6239 12.0355 10.7092 12.0988 10.7718L12.5692 11.2371C12.6316 11.2988 12.7158 11.3335 12.8036 11.3335H13.0316C13.2028 11.3335 13.3462 11.2037 13.3633 11.0333L13.6299 8.36662C13.6496 8.17039 13.4948 8.00012 13.2976 8.00012V8.00012C13.0299 8.00012 12.8703 7.70064 13.0208 7.47934L13.7455 6.41362Z" fill="#262626"/>
</g>
</g>
<defs>
<linearGradient id="paint0_linear_26538_62140" x1="0" y1="0" x2="0" y2="20" gradientUnits="userSpaceOnUse">
<stop stop-color="#1132C7"/>
<stop offset="1" stop-color="#0522A5"/>
</linearGradient>
</defs>
</svg>
