<svg width="28" height="20" viewBox="0 0 28 20" fill="none" xmlns="http://www.w3.org/2000/svg">
<g id="CF">
<rect id="Mask" x="0.25" y="0.25" width="27.5" height="19.5" rx="1.75" fill="white" stroke="#E7E8EA" stroke-width="0.5"/>
<mask id="mask0_26538_62282" style="mask-type:alpha" maskUnits="userSpaceOnUse" x="0" y="0" width="28" height="20">
<rect id="Mask_2" x="0.25" y="0.25" width="27.5" height="19.5" rx="1.75" fill="white" stroke="white" stroke-width="0.5"/>
</mask>
<g mask="url(#mask0_26538_62282)">
<path id="Rectangle 2" fill-rule="evenodd" clip-rule="evenodd" d="M0 5.33333H28V0H0V5.33333Z" fill="#083D96"/>
<path id="Rectangle 2_2" fill-rule="evenodd" clip-rule="evenodd" d="M0 14.6668H28V9.3335H0V14.6668Z" fill="#37AE39"/>
<path id="Rectangle 2_3" fill-rule="evenodd" clip-rule="evenodd" d="M0 19.9998H28V14.6665H0V19.9998Z" fill="#FFD13F"/>
<path id="Rectangle 2_4" fill-rule="evenodd" clip-rule="evenodd" d="M10.6665 20H17.3332V0H10.6665V20Z" fill="#E42346"/>
<path id="Star 8" fill-rule="evenodd" clip-rule="evenodd" d="M4.66676 3.4465L3.49119 4.28454L3.92494 2.90754L2.76465 2.04847L4.20829 2.03547L4.66676 0.666504L5.12523 2.03547L6.56887 2.04847L5.40859 2.90754L5.84233 4.28454L4.66676 3.4465Z" fill="#FFD03B"/>
</g>
</g>
</svg>
