<svg width="28" height="20" viewBox="0 0 28 20" fill="none" xmlns="http://www.w3.org/2000/svg">
<g id="CY">
<rect id="Mask" x="0.25" y="0.25" width="27.5" height="19.5" rx="1.75" fill="white" stroke="#E7E8EA" stroke-width="0.5"/>
<mask id="mask0_26538_62385" style="mask-type:alpha" maskUnits="userSpaceOnUse" x="0" y="0" width="28" height="20">
<rect id="Mask_2" x="0.25" y="0.25" width="27.5" height="19.5" rx="1.75" fill="white" stroke="white" stroke-width="0.5"/>
</mask>
<g mask="url(#mask0_26538_62385)">
<path id="Line" fill-rule="evenodd" clip-rule="evenodd" d="M19.9999 3.33312C20.363 3.15157 20.7315 3.56902 20.5064 3.9068L20.0672 4.56558C20.0228 4.63217 19.9656 4.68931 19.8991 4.7337L18.0548 5.96317C18.0183 5.98752 17.9843 6.01542 17.9532 6.04646L17.8047 6.19505C17.5443 6.4554 17.5443 6.87751 17.8047 7.13786L18.1952 7.52838C18.4555 7.78873 18.4555 8.21084 18.1952 8.47119L17.673 8.99335C17.4701 9.19626 17.1601 9.24656 16.9035 9.11823L16.5962 8.96459C16.2669 8.79994 15.8664 8.93342 15.7018 9.26274L15.4567 9.7528C15.3777 9.91094 15.239 10.0312 15.0713 10.0871L13.4359 10.6322C13.3679 10.6549 13.2967 10.6665 13.2251 10.6665H12.4119C12.1594 10.6665 11.9286 10.8091 11.8157 11.035L11.6314 11.4035C11.4667 11.7328 11.0663 11.8663 10.737 11.7016L8.76335 10.7148C8.69926 10.6828 8.64075 10.6406 8.59009 10.59L7.52851 9.52838C7.40349 9.40336 7.33325 9.23379 7.33325 9.05698V8.47119C7.33325 8.21084 7.54431 7.99979 7.80466 7.99979V7.99979C7.92968 7.99979 8.04958 7.95012 8.13799 7.86171L9.13799 6.86171C9.26301 6.73669 9.43258 6.66645 9.60939 6.66645H10.1861C10.473 6.66645 10.7278 6.48283 10.8185 6.2106L11.1471 5.22477C11.2535 4.90581 11.5807 4.71593 11.9103 4.78187L14.5196 5.30372C14.6164 5.32308 14.7163 5.3207 14.812 5.29676L17.2623 4.6842C17.3094 4.6724 17.3552 4.65548 17.3987 4.63372L18.6666 3.99979L19.9999 3.33312V3.33312Z" fill="#E7832C"/>
<path id="Oval 81" fill-rule="evenodd" clip-rule="evenodd" d="M13.9999 15.9998C14.3681 15.9998 14.6666 15.7014 14.6666 15.3332C14.6666 14.965 14.3681 14.6665 13.9999 14.6665C13.6317 14.6665 13.3333 14.965 13.3333 15.3332C13.3333 15.7014 13.6317 15.9998 13.9999 15.9998Z" fill="#445128"/>
<path id="Line_2" opacity="0.75" d="M16 14.6665C16 14.6665 18 13.9998 18.6667 12.6665" stroke="#445128" stroke-width="1.33333" stroke-linecap="round"/>
<path id="Line_3" opacity="0.75" d="M12 14.6665C12 14.6665 10 13.9998 9.33333 12.6665" stroke="#445128" stroke-width="1.33333" stroke-linecap="round"/>
</g>
</g>
</svg>
