<svg
   xmlns="http://www.w3.org/2000/svg"
   width="28"
   height="20"
   viewBox="0 0 28 20"
   fill="none"
   version="1.1">
  <g>
    <path
       style="fill:#ffd133;"
       d="M 0,14.6668 H 28 V 5.3335 H 0 Z"/>
    <path
       style="fill:#ffedb1;"
       d="m 7.33325,9.3335 h 1.33334 v 0.6667 H 7.33325 Z"/>
    <path
       style="stroke:#a41517;stroke-width:0.66666698"
       d="m 6.39121,8.99984 h 1.88427 c 0.19501,0 0.34838,0.16667 0.33218,0.36101 L 8.43638,11.4162 c -0.04319,0.5183 -0.47646,0.917 -0.99655,0.917 H 7.22686 c -0.52009,0 -0.95336,-0.3987 -0.99655,-0.917 L 6.05903,9.36085 C 6.04283,9.16651 6.1962,8.99984 6.39121,8.99984 Z"/>
    <path
       style="fill:#a41517;"
       d="m 6,10 h 2.66667 v 0.6667 H 8 L 7.33333,12 6.66667,10.6667 H 6 Z"/>
    <rect
       style="fill:#a41517"
       rx="0.66666698"
       height="4.6666698"
       width="1.33333"
       y="8"
       x="4"/>
    <rect
       style="fill:#a41517"
       rx="0.66666698"
       height="4.6666698"
       width="1.33333"
       y="8"
       x="9.33325"/>
    <path
       style="fill:#a41517"
       d="M 6,7.73317 C 6,7.14407 6.47756,6.6665 7.06667,6.6665 H 7.6 c 0.5891,0 1.06667,0.47757 1.06667,1.06667 v 0 C 8.66667,7.88045 8.54728,7.99984 8.4,7.99984 H 6.26667 C 6.11939,7.99984 6,7.88045 6,7.73317 Z"/>
    <path
       d="M 0,14.666016 V 18 c 0,1.108 0.892,2 2,2 h 24 c 1.108,0 2,-0.892 2,-2 v -3.333984 z"
       style="fill:#dd172c;"/>
    <path
       d="M 2,0 C 0.892,0 0,0.892 0,2 V 5.3339844 H 28 V 2 C 28,0.892 27.108,0 26,0 Z"
       style="fill:#dd172c"/>
  </g>
</svg>
