<?xml version="1.0" encoding="UTF-8" standalone="no"?>
<svg
   xmlns="http://www.w3.org/2000/svg"
   width="28"
   height="20"
   viewBox="0 0 28 20"
   fill="none"
   version="1.1"
   id="svg15">

  <path
     style="display:inline;fill:#0a17a7;stroke:none;stroke-opacity:1"
     d="M 1.7460938,0 C 0.77734239,0.02136478 0.00195313,0.8095572 0.00195313,1.7910156 V 18.210938 c 0,0.96862 0.75609101,1.748159 1.70703127,1.789062 H 26.304688 C 27.215121,19.961049 27.939235,19.243288 28,18.332031 V 1.6699219 C 27.938442,0.74677068 27.19655,0.02134222 26.269531,0 Z"/>
  <path
     style="clip-rule:evenodd;display:inline;fill:#ffffff;fill-rule:evenodd;stroke-width:1.02227747"
     d="M 10.601638,0.00187622 V 6.0448114 L 1.7068539,0.0078851 C 0.74931501,0.0421724 -0.0127908,0.82425151 -0.0127908,1.7965299 v 0.3425065 l 6.5461937,4.4425687 h -6.5461937 v 6.8381109 h 6.5461937 l -6.5461937,4.442569 v 0.342507 c 0,0.972278 0.76210581,1.754356 1.7196447,1.788644 L 10.601638,13.95651 v 6.042935 h 6.794983 V 13.95651 l 8.894784,6.036926 c 0.957537,-0.03429 1.719644,-0.816366 1.719644,-1.788644 v -0.342507 l -6.546193,-4.442569 h 6.546193 V 6.5816051 H 21.464856 L 28.011049,2.1390364 V 1.7965299 c 0,-0.97227839 -0.762107,-1.7543575 -1.719644,-1.7886448 L 17.396621,6.0448114 V 0.00187622 Z"
/>
  <path
     style="color:#000000;font-style:normal;font-variant:normal;font-weight:normal;font-stretch:normal;font-size:medium;line-height:normal;font-family:sans-serif;font-variant-ligatures:normal;font-variant-position:normal;font-variant-caps:normal;font-variant-numeric:normal;font-variant-alternates:normal;font-feature-settings:normal;text-indent:0;text-align:start;text-decoration:none;text-decoration-line:none;text-decoration-style:solid;text-decoration-color:#000000;letter-spacing:normal;word-spacing:normal;text-transform:none;writing-mode:lr-tb;direction:ltr;text-orientation:mixed;dominant-baseline:auto;baseline-shift:baseline;text-anchor:start;white-space:normal;shape-padding:0;clip-rule:nonzero;display:inline;overflow:visible;visibility:visible;opacity:1;isolation:auto;mix-blend-mode:normal;color-interpolation:sRGB;color-interpolation-filters:linearRGB;solid-color:#000000;solid-opacity:1;vector-effect:none;fill:#db1f35;fill-opacity:1;fill-rule:nonzero;stroke:none;stroke-width:0.66666698;stroke-linecap:round;stroke-linejoin:miter;stroke-miterlimit:4;stroke-dasharray:none;stroke-dashoffset:0;stroke-opacity:1;color-rendering:auto;image-rendering:auto;shape-rendering:auto;text-rendering:auto;enable-background:accumulate"
     d="M 26.910156 0.50976562 L 18.484375 6.0546875 A 0.3334198 0.3334198 0 1 0 18.851562 6.6113281 L 27.416016 0.9765625 C 27.280102 0.78833469 27.109019 0.6310561 26.910156 0.50976562 z "
     id="Line" />
  <path
     style="color:#000000;font-style:normal;font-variant:normal;font-weight:normal;font-stretch:normal;font-size:medium;line-height:normal;font-family:sans-serif;font-variant-ligatures:normal;font-variant-position:normal;font-variant-caps:normal;font-variant-numeric:normal;font-variant-alternates:normal;font-feature-settings:normal;text-indent:0;text-align:start;text-decoration:none;text-decoration-line:none;text-decoration-style:solid;text-decoration-color:#000000;letter-spacing:normal;word-spacing:normal;text-transform:none;writing-mode:lr-tb;direction:ltr;text-orientation:mixed;dominant-baseline:auto;baseline-shift:baseline;text-anchor:start;white-space:normal;shape-padding:0;clip-rule:nonzero;display:inline;overflow:visible;visibility:visible;opacity:1;isolation:auto;mix-blend-mode:normal;color-interpolation:sRGB;color-interpolation-filters:linearRGB;solid-color:#000000;solid-opacity:1;vector-effect:none;fill:#db1f35;fill-opacity:1;fill-rule:nonzero;stroke:none;stroke-width:0.66666698;stroke-linecap:round;stroke-linejoin:miter;stroke-miterlimit:4;stroke-dasharray:none;stroke-dashoffset:0;stroke-opacity:1;color-rendering:auto;image-rendering:auto;shape-rendering:auto;text-rendering:auto;enable-background:accumulate"
     d="M 20.011719 13.361328 A 0.33336683 0.33336683 0 0 0 19.826172 13.974609 L 27.380859 19.066406 C 27.517216 18.889736 27.618713 18.686377 27.679688 18.464844 L 20.199219 13.421875 A 0.33336683 0.33336683 0 0 0 20.011719 13.361328 z "
     id="Line Copy 2" />
  <path
     style="color:#000000;font-style:normal;font-variant:normal;font-weight:normal;font-stretch:normal;font-size:medium;line-height:normal;font-family:sans-serif;font-variant-ligatures:normal;font-variant-position:normal;font-variant-caps:normal;font-variant-numeric:normal;font-variant-alternates:normal;font-feature-settings:normal;text-indent:0;text-align:start;text-decoration:none;text-decoration-line:none;text-decoration-style:solid;text-decoration-color:#000000;letter-spacing:normal;word-spacing:normal;text-transform:none;writing-mode:lr-tb;direction:ltr;text-orientation:mixed;dominant-baseline:auto;baseline-shift:baseline;text-anchor:start;white-space:normal;shape-padding:0;clip-rule:nonzero;display:inline;overflow:visible;visibility:visible;opacity:1;isolation:auto;mix-blend-mode:normal;color-interpolation:sRGB;color-interpolation-filters:linearRGB;solid-color:#000000;solid-opacity:1;vector-effect:none;fill:#db1f35;fill-opacity:1;fill-rule:nonzero;stroke:none;stroke-width:0.66666698;stroke-linecap:round;stroke-linejoin:miter;stroke-miterlimit:4;stroke-dasharray:none;stroke-dashoffset:0;stroke-opacity:1;color-rendering:auto;image-rendering:auto;shape-rendering:auto;text-rendering:auto;enable-background:accumulate"
     d="M 0.62109375 0.93164062 C 0.4842723 1.1083348 0.38160335 1.3114574 0.3203125 1.5332031 L 7.8183594 6.5878906 A 0.33423126 0.33423126 0 1 0 8.1914062 6.0332031 L 0.62109375 0.93164062 z "
     id="Line Copy" />
  <path
     style="color:#000000;font-style:normal;font-variant:normal;font-weight:normal;font-stretch:normal;font-size:medium;line-height:normal;font-family:sans-serif;font-variant-ligatures:normal;font-variant-position:normal;font-variant-caps:normal;font-variant-numeric:normal;font-variant-alternates:normal;font-feature-settings:normal;text-indent:0;text-align:start;text-decoration:none;text-decoration-line:none;text-decoration-style:solid;text-decoration-color:#000000;letter-spacing:normal;word-spacing:normal;text-transform:none;writing-mode:lr-tb;direction:ltr;text-orientation:mixed;dominant-baseline:auto;baseline-shift:baseline;text-anchor:start;white-space:normal;shape-padding:0;clip-rule:nonzero;display:inline;overflow:visible;visibility:visible;opacity:1;isolation:auto;mix-blend-mode:normal;color-interpolation:sRGB;color-interpolation-filters:linearRGB;solid-color:#000000;solid-opacity:1;vector-effect:none;fill:#db1f35;fill-opacity:1;fill-rule:nonzero;stroke:none;stroke-width:0.66666698;stroke-linecap:round;stroke-linejoin:miter;stroke-miterlimit:4;stroke-dasharray:none;stroke-dashoffset:0;stroke-opacity:1;color-rendering:auto;image-rendering:auto;shape-rendering:auto;text-rendering:auto;enable-background:accumulate"
     d="m 9.2832031,13.269531 a 0.33336683,0.33336683 0 0 0 -0.1777343,0.05859 l -8.54492192,5.666016 c 0.13071019,0.18952 0.29653776,0.349624 0.49023432,0.474609 L 9.4746094,13.882812 A 0.33336683,0.33336683 0 0 0 9.2832031,13.269531 Z"
/>
  <path
     id="Rectangle 2 Copy 3"
     d="m 0,12 h 12 v 8 h 4 V 12 H 28 V 8 H 16 V 0 H 12 V 8 H 0 Z"
     style="clip-rule:evenodd;display:inline;fill:#e6273e;fill-rule:evenodd;stroke:none;stroke-opacity:1" />
</svg>
