<svg width="28" height="20" viewBox="0 0 28 20" fill="none" xmlns="http://www.w3.org/2000/svg">
<g id="IL">
<rect id="Mask" x="0.25" y="0.25" width="27.5" height="19.5" rx="1.75" fill="white" stroke="#E7E8EA" stroke-width="0.5"/>
<mask id="mask0_26538_62767" style="mask-type:alpha" maskUnits="userSpaceOnUse" x="0" y="0" width="28" height="20">
<rect id="Mask_2" x="0.25" y="0.25" width="27.5" height="19.5" rx="1.75" fill="white" stroke="white" stroke-width="0.5"/>
</mask>
<g mask="url(#mask0_26538_62767)">
<path id="Rectangle 2" fill-rule="evenodd" clip-rule="evenodd" d="M0 4H28V0H0V4Z" fill="#0E46D4"/>
<path id="Rectangle 2_2" fill-rule="evenodd" clip-rule="evenodd" d="M0 20H28V16H0V20Z" fill="#0E46D4"/>
<path id="Star 25" d="M10.3752 11.8381L10.1001 12.3333L10.6666 12.3333L17.3333 12.3333L17.8998 12.3333L17.6247 11.8381L14.2913 5.8381L13.9999 5.31361L13.7085 5.8381L10.3752 11.8381Z" stroke="#093EC5" stroke-width="0.666667"/>
<path id="Star 25 Copy" d="M10.3752 8.1619L10.1001 7.66668L10.6666 7.66668L17.3333 7.66668L17.8998 7.66668L17.6247 8.1619L14.2913 14.1619L13.9999 14.6864L13.7085 14.1619L10.3752 8.1619Z" stroke="#093EC5" stroke-width="0.666667"/>
</g>
</g>
</svg>
