<svg width="28" height="20" viewBox="0 0 28 20" fill="none" xmlns="http://www.w3.org/2000/svg">
<g id="MO">
<rect id="Mask" width="28" height="20" rx="2" fill="white"/>
<mask id="mask0_26538_63058" style="mask-type:alpha" maskUnits="userSpaceOnUse" x="0" y="0" width="28" height="20">
<rect id="Mask_2" width="28" height="20" rx="2" fill="white"/>
</mask>
<g mask="url(#mask0_26538_63058)">
<path id="Rectangle 2" fill-rule="evenodd" clip-rule="evenodd" d="M0 20H28V0H0V20Z" fill="#079D7B"/>
<g id="Oval 9">
<path id="Mask_3" fill-rule="evenodd" clip-rule="evenodd" d="M15.8851 8.66634C15.8851 8.9582 15.8639 9.2413 15.8241 9.51108C15.9263 9.47964 16.0305 9.44967 16.1364 9.42129C17.9146 8.94482 19.5017 9.10203 19.6814 9.77244C19.8437 10.3783 18.8009 11.196 17.286 11.6995C17.0184 10.9058 15.6491 10.6663 14.0001 10.6663C12.3492 10.6663 10.9787 10.9064 10.7132 11.7021C9.2189 11.1977 8.19476 10.3886 8.35574 9.78775C8.53538 9.11735 10.1225 8.96013 11.9008 9.43661C11.9941 9.46162 12.0862 9.48789 12.1767 9.5153C12.1365 9.24426 12.115 8.95972 12.115 8.66634C12.115 6.82539 12.959 5.33301 14.0001 5.33301C15.0411 5.33301 15.8851 6.82539 15.8851 8.66634ZM10.6667 11.9997L11.8332 11.9997C11.6485 11.9635 11.4599 11.9201 11.2692 11.8694C11.4837 11.8758 11.7483 11.8941 12.051 11.9151C12.5992 11.953 13.2724 11.9997 14.0001 11.9997C14.7278 11.9997 15.401 11.953 15.9491 11.9151C16.2405 11.8949 16.4965 11.8772 16.7065 11.8702C16.5091 11.9211 16.3143 11.9642 16.1237 11.9997L17.3334 11.9997L19.3334 11.9997C19.1753 12.4744 18.9624 12.9217 18.7029 13.333H9.29724C9.03772 12.9217 8.82488 12.4744 8.66674 11.9997L10.6667 11.9997ZM14.0001 15.9997C15.3468 15.9997 16.5836 15.5002 17.5548 14.6663H10.4453C11.4166 15.5002 12.6533 15.9997 14.0001 15.9997Z" fill="white"/>
<path id="Oval 184" fill-rule="evenodd" clip-rule="evenodd" d="M14 3.99984C14.3682 3.99984 14.6667 3.70136 14.6667 3.33317C14.6667 2.96498 14.3682 2.6665 14 2.6665C13.6318 2.6665 13.3333 2.96498 13.3333 3.33317C13.3333 3.70136 13.6318 3.99984 14 3.99984ZM8.66667 7.33317C9.03486 7.33317 9.33333 7.03469 9.33333 6.6665C9.33333 6.29831 9.03486 5.99984 8.66667 5.99984C8.29848 5.99984 8 6.29831 8 6.6665C8 7.03469 8.29848 7.33317 8.66667 7.33317ZM20 6.6665C20 7.03469 19.7015 7.33317 19.3333 7.33317C18.9651 7.33317 18.6667 7.03469 18.6667 6.6665C18.6667 6.29831 18.9651 5.99984 19.3333 5.99984C19.7015 5.99984 20 6.29831 20 6.6665ZM17.3333 5.33317C17.7015 5.33317 18 5.03469 18 4.6665C18 4.29831 17.7015 3.99984 17.3333 3.99984C16.9651 3.99984 16.6667 4.29831 16.6667 4.6665C16.6667 5.03469 16.9651 5.33317 17.3333 5.33317ZM11.3333 4.6665C11.3333 5.03469 11.0349 5.33317 10.6667 5.33317C10.2985 5.33317 10 5.03469 10 4.6665C10 4.29831 10.2985 3.99984 10.6667 3.99984C11.0349 3.99984 11.3333 4.29831 11.3333 4.6665Z" fill="#FCD117"/>
</g>
</g>
</g>
</svg>
