<svg width="28" height="20" viewBox="0 0 28 20" fill="none" xmlns="http://www.w3.org/2000/svg">
<g id="SB">
<rect id="Mask" width="28" height="20" rx="2" fill="white"/>
<mask id="mask0_26538_63485" style="mask-type:alpha" maskUnits="userSpaceOnUse" x="0" y="0" width="28" height="20">
<rect id="Mask_2" width="28" height="20" rx="2" fill="white"/>
</mask>
<g mask="url(#mask0_26538_63485)">
<rect id="Mask Copy" width="28" height="20" fill="url(#paint0_linear_26538_63485)"/>
<g id="Rectangle 253" filter="url(#filter0_d_26538_63485)">
<path fill-rule="evenodd" clip-rule="evenodd" d="M0 0H28L0 20V0Z" fill="url(#paint1_linear_26538_63485)"/>
</g>
<path id="Rectangle 253_2" fill-rule="evenodd" clip-rule="evenodd" d="M28 0L0 20H28V0Z" fill="#2C7442"/>
<rect id="Rectangle 2" x="-2.77368" y="19.7056" width="33.5473" height="23.8329" transform="rotate(-34 -2.77368 19.7056)" fill="#FFD646"/>
<path id="Star 2" fill-rule="evenodd" clip-rule="evenodd" d="M2.02025 4.34852L2.20734 3.25768L1.41479 2.48513L2.51007 2.32598L2.99989 1.3335L3.48971 2.32598L4.58498 2.48513L3.79244 3.25768L3.97953 4.34852L2.99989 3.8335L2.02025 4.34852ZM8.68691 4.34852L8.87401 3.25768L8.08146 2.48513L9.17673 2.32598L9.66656 1.3335L10.1564 2.32598L11.2516 2.48513L10.4591 3.25768L10.6462 4.34852L9.66656 3.8335L8.68691 4.34852ZM8.87401 7.25768L8.68691 8.34852L9.66656 7.8335L10.6462 8.34852L10.4591 7.25768L11.2516 6.48513L10.1564 6.32598L9.66656 5.3335L9.17673 6.32598L8.08146 6.48513L8.87401 7.25768ZM2.99989 7.8335L2.02025 8.34852L2.20734 7.25768L1.41479 6.48513L2.51007 6.32598L2.99989 5.3335L3.48971 6.32598L4.58498 6.48513L3.79244 7.25768L3.97953 8.34852L2.99989 7.8335ZM5.35358 6.34852L6.33322 5.8335L7.31286 6.34852L7.12577 5.25768L7.91832 4.48513L6.82304 4.32598L6.33322 3.3335L5.8434 4.32598L4.74813 4.48513L5.54068 5.25768L5.35358 6.34852Z" fill="white"/>
</g>
</g>
<defs>
<filter id="filter0_d_26538_63485" x="0" y="0" width="28" height="20" filterUnits="userSpaceOnUse" color-interpolation-filters="sRGB">
<feFlood flood-opacity="0" result="BackgroundImageFix"/>
<feColorMatrix in="SourceAlpha" type="matrix" values="0 0 0 0 0 0 0 0 0 0 0 0 0 0 0 0 0 0 127 0" result="hardAlpha"/>
<feOffset/>
<feColorMatrix type="matrix" values="0 0 0 0 0 0 0 0 0 0 0 0 0 0 0 0 0 0 0.06 0"/>
<feBlend mode="normal" in2="BackgroundImageFix" result="effect1_dropShadow_26538_63485"/>
<feBlend mode="normal" in="SourceGraphic" in2="effect1_dropShadow_26538_63485" result="shape"/>
</filter>
<linearGradient id="paint0_linear_26538_63485" x1="0" y1="0" x2="0" y2="20" gradientUnits="userSpaceOnUse">
<stop stop-color="#1DBE4F"/>
<stop offset="1" stop-color="#159B3F"/>
</linearGradient>
<linearGradient id="paint1_linear_26538_63485" x1="0" y1="0" x2="0" y2="20" gradientUnits="userSpaceOnUse">
<stop stop-color="#0660D4"/>
<stop offset="1" stop-color="#0051BB"/>
</linearGradient>
</defs>
</svg>
