<svg width="28" height="20" viewBox="0 0 28 20" fill="none" xmlns="http://www.w3.org/2000/svg">
<g id="SY">
<rect id="Mask" x="0.25" y="0.25" width="27.5" height="19.5" rx="1.75" fill="white" stroke="#E7E8EA" stroke-width="0.5"/>
<mask id="mask0_26538_63478" style="mask-type:alpha" maskUnits="userSpaceOnUse" x="0" y="0" width="28" height="20">
<rect id="Mask_2" x="0.25" y="0.25" width="27.5" height="19.5" rx="1.75" fill="white" stroke="white" stroke-width="0.5"/>
</mask>
<g mask="url(#mask0_26538_63478)">
<path id="Rectangle 2" fill-rule="evenodd" clip-rule="evenodd" d="M0 20.0002H28V13.3335H0V20.0002Z" fill="#262626"/>
<path id="Rectangle 2_2" fill-rule="evenodd" clip-rule="evenodd" d="M0 6.66667H28V0H0V6.66667Z" fill="#E32139"/>
<path id="Star 33" fill-rule="evenodd" clip-rule="evenodd" d="M9.33341 11.0935L7.76599 12.1575L8.29359 10.338L6.79726 9.17612L8.69077 9.11564L9.33341 7.3335L9.97606 9.11564L11.8696 9.17612L10.3732 10.338L10.9008 12.1575L9.33341 11.0935Z" fill="#128A49"/>
<path id="Star 33_2" fill-rule="evenodd" clip-rule="evenodd" d="M18.6667 11.0935L17.0992 12.1575L17.6268 10.338L16.1305 9.17612L18.024 9.11564L18.6667 7.3335L19.3093 9.11564L21.2028 9.17612L19.7065 10.338L20.2341 12.1575L18.6667 11.0935Z" fill="#128A49"/>
</g>
</g>
</svg>
