<svg width="28" height="20" viewBox="0 0 28 20" fill="none" xmlns="http://www.w3.org/2000/svg">
<g id="TM">
<rect id="Mask" width="28" height="20" rx="2" fill="white"/>
<mask id="mask0_26538_63672" style="mask-type:alpha" maskUnits="userSpaceOnUse" x="0" y="0" width="28" height="20">
<rect id="Mask_2" width="28" height="20" rx="2" fill="white"/>
</mask>
<g mask="url(#mask0_26538_63672)">
<path id="Rectangle 2" fill-rule="evenodd" clip-rule="evenodd" d="M0 20H28V0H0V20Z" fill="#30C375"/>
<rect id="Rectangle 1092" x="4" width="4" height="20" fill="#DE414F"/>
<g id="Oval 161">
<path id="Mask_3" fill-rule="evenodd" clip-rule="evenodd" d="M6 4.00016C7.10457 4.00016 8 3.40321 8 2.66683C8 1.93045 7.10457 1.3335 6 1.3335C4.89543 1.3335 4 1.93045 4 2.66683C4 3.40321 4.89543 4.00016 6 4.00016Z" fill="white"/>
<mask id="mask1_26538_63672" style="mask-type:alpha" maskUnits="userSpaceOnUse" x="4" y="1" width="4" height="3">
<path id="Mask_4" fill-rule="evenodd" clip-rule="evenodd" d="M6 4.00016C7.10457 4.00016 8 3.40321 8 2.66683C8 1.93045 7.10457 1.3335 6 1.3335C4.89543 1.3335 4 1.93045 4 2.66683C4 3.40321 4.89543 4.00016 6 4.00016Z" fill="white"/>
</mask>
<g mask="url(#mask1_26538_63672)">
<path id="Oval 166" fill-rule="evenodd" clip-rule="evenodd" d="M5.99992 3.33333C6.36811 3.33333 6.66659 3.03486 6.66659 2.66667C6.66659 2.29848 6.36811 2 5.99992 2C5.63173 2 5.33325 2.29848 5.33325 2.66667C5.33325 3.03486 5.63173 3.33333 5.99992 3.33333Z" fill="#DD404F"/>
<rect id="Rectangle 1093" x="4" y="1.3335" width="2" height="1.33333" fill="#FBAF29"/>
<rect id="Rectangle 1093 Copy" x="6" y="2.66699" width="2" height="1.33333" fill="#FBAF29"/>
</g>
</g>
<g id="Oval 161 Copy 2">
<path id="Mask_5" fill-rule="evenodd" clip-rule="evenodd" d="M6 18.6667C7.10457 18.6667 8 18.0697 8 17.3333C8 16.597 7.10457 16 6 16C4.89543 16 4 16.597 4 17.3333C4 18.0697 4.89543 18.6667 6 18.6667Z" fill="white"/>
<mask id="mask2_26538_63672" style="mask-type:alpha" maskUnits="userSpaceOnUse" x="4" y="16" width="4" height="3">
<path id="Mask_6" fill-rule="evenodd" clip-rule="evenodd" d="M6 18.6667C7.10457 18.6667 8 18.0697 8 17.3333C8 16.597 7.10457 16 6 16C4.89543 16 4 16.597 4 17.3333C4 18.0697 4.89543 18.6667 6 18.6667Z" fill="white"/>
</mask>
<g mask="url(#mask2_26538_63672)">
<path id="Oval 166_2" fill-rule="evenodd" clip-rule="evenodd" d="M5.99992 17.9998C6.36811 17.9998 6.66659 17.7014 6.66659 17.3332C6.66659 16.965 6.36811 16.6665 5.99992 16.6665C5.63173 16.6665 5.33325 16.965 5.33325 17.3332C5.33325 17.7014 5.63173 17.9998 5.99992 17.9998Z" fill="#DD404F"/>
<rect id="Rectangle 1093_2" x="4" y="16" width="2" height="1.33333" fill="#FBAF29"/>
<rect id="Rectangle 1093 Copy_2" x="6" y="17.3335" width="2" height="1.33333" fill="#FBAF29"/>
</g>
</g>
<g id="Oval 161 Copy 3">
<path id="Mask_7" fill-rule="evenodd" clip-rule="evenodd" d="M6 12.0002C7.10457 12.0002 8 11.4032 8 10.6668C8 9.93045 7.10457 9.3335 6 9.3335C4.89543 9.3335 4 9.93045 4 10.6668C4 11.4032 4.89543 12.0002 6 12.0002Z" fill="#28AE67"/>
<mask id="mask3_26538_63672" style="mask-type:alpha" maskUnits="userSpaceOnUse" x="4" y="9" width="4" height="3">
<path id="Mask_8" fill-rule="evenodd" clip-rule="evenodd" d="M6 12.0002C7.10457 12.0002 8 11.4032 8 10.6668C8 9.93045 7.10457 9.3335 6 9.3335C4.89543 9.3335 4 9.93045 4 10.6668C4 11.4032 4.89543 12.0002 6 12.0002Z" fill="white"/>
</mask>
<g mask="url(#mask3_26538_63672)">
<path id="Oval 166_3" fill-rule="evenodd" clip-rule="evenodd" d="M6.00008 11.3333C6.73646 11.3333 7.33341 11.0349 7.33341 10.6667C7.33341 10.2985 6.73646 10 6.00008 10C5.2637 10 4.66675 10.2985 4.66675 10.6667C4.66675 11.0349 5.2637 11.3333 6.00008 11.3333Z" fill="#DD404F"/>
</g>
</g>
<g id="Oval 161 Copy 4">
<path id="Mask_9" fill-rule="evenodd" clip-rule="evenodd" d="M6 14.6668C7.10457 14.6668 8 14.3684 8 14.0002C8 13.632 7.10457 13.3335 6 13.3335C4.89543 13.3335 4 13.632 4 14.0002C4 14.3684 4.89543 14.6668 6 14.6668Z" fill="#28AE67"/>
<mask id="mask4_26538_63672" style="mask-type:alpha" maskUnits="userSpaceOnUse" x="4" y="13" width="4" height="2">
<path id="Mask_10" fill-rule="evenodd" clip-rule="evenodd" d="M6 14.6668C7.10457 14.6668 8 14.3684 8 14.0002C8 13.632 7.10457 13.3335 6 13.3335C4.89543 13.3335 4 13.632 4 14.0002C4 14.3684 4.89543 14.6668 6 14.6668Z" fill="white"/>
</mask>
<g mask="url(#mask4_26538_63672)">
</g>
</g>
<g id="Oval 161 Copy">
<path id="Mask_11" fill-rule="evenodd" clip-rule="evenodd" d="M6 8.00016C7.10457 8.00016 8 7.40321 8 6.66683C8 5.93045 7.10457 5.3335 6 5.3335C4.89543 5.3335 4 5.93045 4 6.66683C4 7.40321 4.89543 8.00016 6 8.00016Z" fill="#FBAF29"/>
<mask id="mask5_26538_63672" style="mask-type:alpha" maskUnits="userSpaceOnUse" x="4" y="5" width="4" height="3">
<path id="Mask_12" fill-rule="evenodd" clip-rule="evenodd" d="M6 8.00016C7.10457 8.00016 8 7.40321 8 6.66683C8 5.93045 7.10457 5.3335 6 5.3335C4.89543 5.3335 4 5.93045 4 6.66683C4 7.40321 4.89543 8.00016 6 8.00016Z" fill="white"/>
</mask>
<g mask="url(#mask5_26538_63672)">
<path id="Oval 166_4" fill-rule="evenodd" clip-rule="evenodd" d="M5.99992 7.33333C6.36811 7.33333 6.66659 7.03486 6.66659 6.66667C6.66659 6.29848 6.36811 6 5.99992 6C5.63173 6 5.33325 6.29848 5.33325 6.66667C5.33325 7.03486 5.63173 7.33333 5.99992 7.33333Z" fill="#DD404F"/>
<rect id="Rectangle 1093_3" x="4" y="5.3335" width="1.33333" height="2.66667" fill="#28AE67"/>
<rect id="Rectangle 1093 Copy 2" x="6.66675" y="5.3335" width="1.33333" height="2.66667" fill="#28AE67"/>
</g>
</g>
<path id="Oval 68" fill-rule="evenodd" clip-rule="evenodd" d="M14.8227 4.23799C14.5861 4.52004 14.6229 4.94055 14.9049 5.17722C15.187 5.41388 15.6075 5.37709 15.8441 5.09504C16.0808 4.81299 16.044 4.39249 15.762 4.15582C15.4799 3.91916 15.0594 3.95594 14.8227 4.23799ZM13.0953 6.82249C12.8132 6.58582 12.3927 6.62261 12.1561 6.90466C11.9194 7.18671 11.9562 7.60721 12.2382 7.84388C12.5203 8.08055 12.9408 8.04376 13.1775 7.76171C13.4141 7.47966 13.3773 7.05916 13.0953 6.82249ZM11.762 5.48916C11.4799 5.25249 11.0594 5.28928 10.8227 5.57133C10.5861 5.85338 10.6229 6.27388 10.9049 6.51055C11.187 6.74722 11.6075 6.71043 11.8441 6.42838C12.0808 6.14633 12.044 5.72582 11.762 5.48916ZM14.4286 2.82249C14.1466 2.58582 13.7261 2.62261 13.4894 2.90466C13.2527 3.18671 13.2895 3.60721 13.5716 3.84388C13.8536 4.08055 14.2741 4.04376 14.5108 3.76171C14.7475 3.47966 14.7107 3.05916 14.4286 2.82249ZM13.762 4.82249C13.4799 4.58582 13.0594 4.62261 12.8227 4.90466C12.5861 5.18671 12.6229 5.60721 12.9049 5.84388C13.187 6.08055 13.6075 6.04376 13.8441 5.76171C14.0808 5.47966 14.044 5.05916 13.762 4.82249Z" fill="white"/>
<path id="Star 8" fill-rule="evenodd" clip-rule="evenodd" d="M17.4761 9.45045C15.888 11.0385 13.3133 11.0385 11.7253 9.45045C11.5714 9.29658 11.4324 9.13343 11.3083 8.96282C12.8985 10.1191 15.1374 9.98009 16.5716 8.54592C18.0057 7.11175 18.1447 4.87284 16.9885 3.28271C17.1591 3.40677 17.3222 3.54574 17.4761 3.69962C19.0641 5.28767 19.0641 7.8624 17.4761 9.45045Z" fill="white"/>
</g>
</g>
</svg>
