<svg
   xmlns="http://www.w3.org/2000/svg"
   width="28"
   height="20"
   viewBox="0 0 28 20"
   fill="none"
   version="1.1">
  <g>
    <path
       id="Mask Copy"
       d="M 2,0 C 0.892,0 0,0.892 0,2 v 16 c 0,1.108 0.892,2 2,2 h 24 c 1.108,0 2,-0.892 2,-2 V 2 C 28,0.892 27.108,0 26,0 Z"
       style="fill:#e92434"/>
    <path
       style="clip-rule:evenodd;fill:#ffffff;fill-rule:evenodd"
       d="m 19.0209,10.7682 -1.2248,1.485 0.0834,-1.9231 -1.7908,-0.70603 1.8548,-0.51493 0.118,-1.92131 1.0629,1.60488 1.8638,-0.48144 -1.1979,1.5068 1.0338,1.62373 z"/>
    <path
       style="fill:#ffffff;"
       d="M 17.4028,13.6841 C 16.3049,15.0935 14.5917,16 12.6667,16 9.35304,16 6.66675,13.3137 6.66675,10 c 0,-3.31371 2.68629,-6 5.99995,-6 1.925,0 3.6382,0.90649 4.7361,2.31588 C 16.5556,5.70011 15.4904,5.33333 14.3334,5.33333 11.572,5.33333 9.33341,7.42267 9.33341,10 c 0,2.5773 2.23859,4.6667 4.99999,4.6667 1.157,0 2.2222,-0.3668 3.0694,-0.9826 z"/>
  </g>
</svg>
