<svg width="28" height="20" viewBox="0 0 28 20" fill="none" xmlns="http://www.w3.org/2000/svg">
<g id="UY">
<rect id="Mask" x="0.25" y="0.25" width="27.5" height="19.5" rx="1.75" fill="white" stroke="#E7E8EA" stroke-width="0.5"/>
<mask id="mask0_26538_63734" style="mask-type:alpha" maskUnits="userSpaceOnUse" x="0" y="0" width="28" height="20">
<rect id="Mask_2" x="0.25" y="0.25" width="27.5" height="19.5" rx="1.75" fill="white" stroke="white" stroke-width="0.5"/>
</mask>
<g mask="url(#mask0_26538_63734)">
<path id="Combined Shape" fill-rule="evenodd" clip-rule="evenodd" d="M28 2.6665H13.3333V5.33317H28V2.6665ZM13.3333 7.99984V10.6665H28V7.99984H13.3333ZM13.3333 13.3332L0 13.3332V15.9998H28V13.3332H13.3333ZM0 19.9998V18.6665H28V19.9998H0Z" fill="#0E4DC5"/>
<path id="Star 28" fill-rule="evenodd" clip-rule="evenodd" d="M6.66675 9.32136L5.77666 10.65L5.55121 9.06674L4.17279 9.87762L4.65661 8.35333L3.06287 8.48583L4.16015 7.32241L2.66675 6.7503L4.16015 6.17818L3.06287 5.01476L4.65661 5.14727L4.17279 3.62297L5.55121 4.43385L5.77666 2.85059L6.66675 4.17924L7.55683 2.85059L7.78229 4.43385L9.16071 3.62297L8.67689 5.14727L10.2706 5.01476L9.17335 6.17818L10.6667 6.7503L9.17335 7.32241L10.2706 8.48583L8.67689 8.35333L9.16071 9.87762L7.78229 9.06674L7.55683 10.65L6.66675 9.32136ZM6.66675 9.29575C8.07256 9.29575 9.2122 8.15611 9.2122 6.7503C9.2122 5.34448 8.07256 4.20484 6.66675 4.20484C5.26093 4.20484 4.12129 5.34448 4.12129 6.7503C4.12129 8.15611 5.26093 9.29575 6.66675 9.29575ZM8.66675 6.66672C8.66675 7.77129 7.77132 8.66672 6.66675 8.66672C5.56218 8.66672 4.66675 7.77129 4.66675 6.66672C4.66675 5.56215 5.56218 4.66672 6.66675 4.66672C7.77132 4.66672 8.66675 5.56215 8.66675 6.66672Z" fill="#FED443"/>
</g>
</g>
</svg>
