<svg width="28" height="20" viewBox="0 0 28 20" fill="none" xmlns="http://www.w3.org/2000/svg">
<g id="VG">
<rect id="Mask" width="28" height="20" rx="2" fill="white"/>
<mask id="mask0_26538_63811" style="mask-type:alpha" maskUnits="userSpaceOnUse" x="0" y="0" width="28" height="20">
<rect id="Mask_2" width="28" height="20" rx="2" fill="white"/>
</mask>
<g mask="url(#mask0_26538_63811)">
<rect id="Mask Copy" width="28" height="20" fill="#07319C"/>
<g id="Rectangle 1105">
<path id="Mask_3" fill-rule="evenodd" clip-rule="evenodd" d="M17.3333 10.0002C17.3333 8.90642 17.3333 7.61331 17.3333 6.66598C17.3333 5.9296 17.9302 5.3335 18.6666 5.3335H22.6666C23.403 5.3335 23.9999 5.9296 23.9999 6.66598C23.9999 7.61331 23.9999 8.90642 23.9999 10.0002C23.9999 13.3335 20.6666 14.6668 20.6666 14.6668C20.6666 14.6668 17.3333 13.3335 17.3333 10.0002Z" fill="#008339"/>
<mask id="mask1_26538_63811" style="mask-type:alpha" maskUnits="userSpaceOnUse" x="17" y="5" width="7" height="10">
<path id="Mask_4" fill-rule="evenodd" clip-rule="evenodd" d="M17.3333 10.0002C17.3333 8.90642 17.3333 7.61331 17.3333 6.66598C17.3333 5.9296 17.9302 5.3335 18.6666 5.3335H22.6666C23.403 5.3335 23.9999 5.9296 23.9999 6.66598C23.9999 7.61331 23.9999 8.90642 23.9999 10.0002C23.9999 13.3335 20.6666 14.6668 20.6666 14.6668C20.6666 14.6668 17.3333 13.3335 17.3333 10.0002Z" fill="white"/>
</mask>
<g mask="url(#mask1_26538_63811)">
<path id="Oval 197" fill-rule="evenodd" clip-rule="evenodd" d="M19.3332 8.00033C19.7014 8.00033 19.9998 7.70185 19.9998 7.33366C19.9998 6.96547 19.7014 6.66699 19.3332 6.66699C18.965 6.66699 18.6665 6.96547 18.6665 7.33366C18.6665 7.70185 18.965 8.00033 19.3332 8.00033ZM19.3332 9.33366C19.7014 9.33366 19.9998 9.03518 19.9998 8.66699C19.9998 8.2988 19.7014 8.00033 19.3332 8.00033C18.965 8.00033 18.6665 8.2988 18.6665 8.66699C18.6665 9.03518 18.965 9.33366 19.3332 9.33366ZM19.3332 10.667C18.965 10.667 18.6665 10.3685 18.6665 10.0003C18.6665 9.63214 18.965 9.33366 19.3332 9.33366C19.7014 9.33366 19.9998 9.63214 19.9998 10.0003C19.9998 10.3685 19.7014 10.667 19.3332 10.667ZM19.3332 10.667C19.7014 10.667 19.9998 10.9655 19.9998 11.3337C19.9998 11.7018 19.7014 12.0003 19.3332 12.0003C18.965 12.0003 18.6665 11.7018 18.6665 11.3337C18.6665 10.9655 18.965 10.667 19.3332 10.667ZM22.6665 11.3337C22.6665 11.7018 22.368 12.0003 21.9998 12.0003C21.6316 12.0003 21.3332 11.7018 21.3332 11.3337C21.3332 10.9655 21.6316 10.667 21.9998 10.667C22.368 10.667 22.6665 10.9655 22.6665 11.3337ZM21.9998 9.33366C22.368 9.33366 22.6665 9.63214 22.6665 10.0003C22.6665 10.3685 22.368 10.667 21.9998 10.667C21.6316 10.667 21.3332 10.3685 21.3332 10.0003C21.3332 9.63214 21.6316 9.33366 21.9998 9.33366ZM21.9998 8.00033C21.6316 8.00033 21.3332 8.2988 21.3332 8.66699C21.3332 9.03518 21.6316 9.33366 21.9998 9.33366C22.368 9.33366 22.6665 9.03518 22.6665 8.66699C22.6665 8.2988 22.368 8.00033 21.9998 8.00033ZM21.9998 8.00033C21.6316 8.00033 21.3332 7.70185 21.3332 7.33366C21.3332 6.96547 21.6316 6.66699 21.9998 6.66699C22.368 6.66699 22.6665 6.96547 22.6665 7.33366C22.6665 7.70185 22.368 8.00033 21.9998 8.00033Z" fill="#FFD033"/>
<path id="Oval 193" fill-rule="evenodd" clip-rule="evenodd" d="M20.6667 11.3335C21.0349 11.3335 21.3333 10.4381 21.3333 9.3335C21.3333 8.22893 21.0349 7.3335 20.6667 7.3335C20.2985 7.3335 20 8.22893 20 9.3335C20 10.4381 20.2985 11.3335 20.6667 11.3335Z" fill="white"/>
</g>
</g>
<path id="Shape" d="M16.6667 13.3332C16.6667 14.6047 18.4879 15.3332 20.6667 15.3332C22.8455 15.3332 24.6667 14.6047 24.6667 13.3332C24.6667 12.965 24.3683 12.6665 24.0001 12.6665C23.6319 12.6665 23.3334 12.965 23.3334 13.3332C23.3334 13.3459 23.1718 13.4987 22.7762 13.657C22.2391 13.8718 21.4825 13.9998 20.6667 13.9998C19.851 13.9998 19.0944 13.8718 18.5573 13.657C18.1617 13.4987 18.0001 13.3459 18.0001 13.3332C18.0001 12.965 17.7016 12.6665 17.3334 12.6665C16.9652 12.6665 16.6667 12.965 16.6667 13.3332V13.3332Z" fill="#FFD033"/>
<path id="Rectangle 36" d="M0 -0.333333H-0.901086L-0.21693 0.253086L4.33333 4.15331V5.16179L-0.193746 8.39542L-0.333333 8.49513V8.66667V9.33333V9.93475L0.176666 9.616L5.42893 6.33333H6.55984L11.0821 9.56351C11.176 9.6306 11.2886 9.66667 11.404 9.66667C11.9182 9.66667 12.1548 9.02698 11.7644 8.69237L7.66667 5.18002V4.17154L12.0542 1.03762C12.2294 0.912475 12.3333 0.710428 12.3333 0.495127V0V-0.601416L11.8233 -0.282666L6.57107 3H5.44016L0.860413 -0.271244L0.773488 -0.333333H0.666667H0Z" fill="#DB1E36" stroke="white" stroke-width="0.666667"/>
<path id="Rectangle 2" fill-rule="evenodd" clip-rule="evenodd" d="M0 3.33333V6H4.66667V9.33333C4.66667 9.70152 4.96514 10 5.33333 10H6.66667C7.03486 10 7.33333 9.70152 7.33333 9.33333V6H12C12.3682 6 12.6667 5.70152 12.6667 5.33333V4C12.6667 3.63181 12.3682 3.33333 12 3.33333H7.33333V0H4.66667V3.33333H0Z" fill="white"/>
<path id="Rectangle 36_2" fill-rule="evenodd" clip-rule="evenodd" d="M0 4H5.33333V3.33333V0H6.66667V3.33333V4H12V5.33333H6.66667V6V9.33333H5.33333V6V5.33333H0V4Z" fill="#DB1E36"/>
</g>
</g>
</svg>
