<svg width="28" height="20" viewBox="0 0 28 20" fill="none" xmlns="http://www.w3.org/2000/svg">
<g id="WS">
<rect id="Mask" width="28" height="20" rx="2" fill="white"/>
<mask id="mask0_26538_63781" style="mask-type:alpha" maskUnits="userSpaceOnUse" x="0" y="0" width="28" height="20">
<rect id="Mask_2" width="28" height="20" rx="2" fill="white"/>
</mask>
<g mask="url(#mask0_26538_63781)">
<rect id="Mask Copy" width="28" height="20" fill="#E31F37"/>
<path id="Rectangle 2" fill-rule="evenodd" clip-rule="evenodd" d="M-1.33325 10.6665H14.6667V-1.3335H-1.33325V10.6665Z" fill="#083B9A"/>
<path id="Star 2" fill-rule="evenodd" clip-rule="evenodd" d="M6.6666 2.6666L5.7238 2.94275L5.99994 1.99994L5.7238 1.05713L6.6666 1.33327L7.60941 1.05713L7.33327 1.99994L7.60941 2.94275L6.6666 2.6666ZM6.6666 9.33327L5.7238 9.60941L5.99994 8.6666L5.7238 7.7238L6.6666 7.99994L7.60941 7.7238L7.33327 8.6666L7.60941 9.60941L6.6666 9.33327ZM3.05713 6.27608L3.99994 5.99994L4.94275 6.27608L4.6666 5.33327L4.94275 4.39046L3.99994 4.6666L3.05713 4.39046L3.33327 5.33327L3.05713 6.27608ZM9.99994 5.33327L9.05713 5.60941L9.33327 4.6666L9.05713 3.7238L9.99994 3.99994L10.9427 3.7238L10.6666 4.6666L10.9427 5.60941L9.99994 5.33327ZM8.6666 6.99994C8.6666 7.18403 8.51737 7.33327 8.33327 7.33327C8.14918 7.33327 7.99994 7.18403 7.99994 6.99994C7.99994 6.81584 8.14918 6.6666 8.33327 6.6666C8.51737 6.6666 8.6666 6.81584 8.6666 6.99994Z" fill="white"/>
</g>
</g>
</svg>
