<?xml version="1.0" encoding="UTF-8" standalone="no"?>
<svg
   xmlns="http://www.w3.org/2000/svg"
   width="28"
   height="20"
   viewBox="0 0 28 20"
   fill="none"
   version="1.1"
   id="svg9">
  <defs
     id="defs13">
    <mask
       height="20"
       width="28"
       y="0"
       x="0"
       maskUnits="userSpaceOnUse"
       id="mask0_26538_64414">
      <rect
         style="fill:#ffffff"
         y="0"
         x="0"
         rx="2"
         height="20"
         width="28"
         id="Mask_2" />
    </mask>
  </defs>
  <path
     style="display:inline;fill:#79818c"
     d="M 2 0 C 0.892 0 0 0.892 0 2 L 0 18 C 0 19.108 0.892 20 2 20 L 26 20 C 27.108 20 28 19.108 28 18 L 28 2 C 28 0.892 27.108 0 26 0 L 2 0 z M 14 2.6660156 C 18.0501 2.6660156 21.333984 5.94991 21.333984 10 C 21.333984 14.05006 18.0501 17.333984 14 17.333984 C 9.94995 17.333984 6.6660156 14.05006 6.6660156 10 C 6.6660156 5.94991 9.94995 2.6660156 14 2.6660156 z M 14 4 C 13.8705 4 13.742734 4.0036385 13.615234 4.0117188 C 12.699734 5.0961086 12.110972 7.0849344 12.013672 9.3339844 L 15.986328 9.3339844 C 15.888928 7.0849344 15.300366 5.0961086 14.384766 4.0117188 C 14.257366 4.0036397 14.1295 4 14 4 z M 11.783203 4.4238281 C 9.7644032 5.2271781 8.2846294 7.0948144 8.0371094 9.3339844 L 10.679688 9.3339844 C 10.752887 7.4726244 11.133103 5.7478581 11.783203 4.4238281 z M 16.216797 4.4238281 C 16.866797 5.7478481 17.247212 7.4726244 17.320312 9.3339844 L 19.962891 9.3339844 C 19.715391 7.0948144 18.235597 5.2271681 16.216797 4.4238281 z M 8.0371094 10.666016 C 8.2846294 12.905216 9.7644032 14.772872 11.783203 15.576172 C 11.133103 14.252172 10.752887 12.527416 10.679688 10.666016 L 8.0371094 10.666016 z M 12.013672 10.666016 C 12.110972 12.915016 12.699734 14.903881 13.615234 15.988281 C 13.742734 15.996301 13.8705 16 14 16 C 14.1295 16 14.257366 15.996281 14.384766 15.988281 C 15.300366 14.903881 15.888928 12.915016 15.986328 10.666016 L 12.013672 10.666016 z M 17.320312 10.666016 C 17.247213 12.527416 16.866797 14.252172 16.216797 15.576172 C 18.235597 14.772872 19.715391 12.905216 19.962891 10.666016 L 17.320312 10.666016 z "
     id="Mask" />
</svg>
